<svg width="24" height="22" viewBox="0 0 24 22" fill="none" xmlns="http://www.w3.org/2000/svg">
<path d="M17.813 3.65301H18.667C20.177 3.70701 21.436 4.23101 22.44 5.22701C23.444 6.22201 23.964 7.47601 24 8.98701V16.347C23.964 17.857 23.444 19.116 22.44 20.12C21.436 21.124 20.178 21.644 18.667 21.68H5.333C3.823 21.644 2.564 21.124 1.56 20.12C0.556 19.116 0.036 17.858 0 16.347V8.98701C0.036 7.47601 0.556 6.22201 1.56 5.22701C2.564 4.23101 3.822 3.70701 5.333 3.65301H6.107L4.933 2.53301C4.81226 2.41546 4.71688 2.27443 4.65273 2.11861C4.58858 1.96279 4.55702 1.79549 4.56 1.62701C4.56 1.27101 4.684 0.969007 4.933 0.720007L4.96 0.693007C5.227 0.444007 5.533 0.320007 5.88 0.320007C6.227 0.320007 6.533 0.444007 6.8 0.693007L9.653 3.44001C9.724 3.51101 9.787 3.58201 9.84 3.65301H14.107C14.1486 3.57391 14.2026 3.502 14.267 3.44001L17.12 0.693007C17.387 0.444007 17.693 0.320007 18.04 0.320007C18.387 0.320007 18.702 0.471007 18.969 0.720007C19.236 0.969007 19.36 1.27101 19.36 1.62701C19.36 1.98201 19.236 2.28401 18.987 2.53301L17.813 3.65301ZM5.333 6.24001C4.587 6.25801 3.96 6.51601 3.453 7.01301C2.947 7.51101 2.684 8.14301 2.667 8.90701V16.427C2.684 17.191 2.947 17.822 3.453 18.32C3.96 18.818 4.587 19.076 5.333 19.093H18.667C19.413 19.076 20.04 18.818 20.547 18.32C21.053 17.822 21.316 17.191 21.333 16.427V8.90701C21.316 8.14201 21.053 7.51101 20.547 7.01301C20.04 6.51601 19.413 6.25801 18.667 6.24001H5.333ZM8 10.107C8.373 10.107 8.684 10.231 8.933 10.48C9.183 10.729 9.316 11.049 9.333 11.44V12.613C9.316 13.004 9.183 13.324 8.933 13.573C8.684 13.823 8.373 13.947 8 13.947C7.627 13.947 7.316 13.822 7.067 13.573C6.817 13.324 6.684 13.004 6.667 12.613V11.44C6.667 11.067 6.796 10.751 7.053 10.493C7.311 10.236 7.627 10.107 8 10.107ZM16 10.107C16.373 10.107 16.684 10.231 16.933 10.48C17.183 10.729 17.316 11.049 17.333 11.44V12.613C17.316 13.004 17.183 13.324 16.933 13.573C16.684 13.823 16.373 13.947 16 13.947C15.627 13.947 15.316 13.822 15.067 13.573C14.817 13.324 14.684 13.004 14.667 12.613V11.44C14.684 11.049 14.817 10.729 15.067 10.48C15.316 10.231 15.627 10.107 16 10.107Z" fill="#4093F6"/>
</svg>
