<svg width="53" height="17" viewBox="0 0 53 17" fill="none" xmlns="http://www.w3.org/2000/svg">
<path d="M30.9016 1.5336C30.9016 2.666 30.8958 3.8022 30.9016 4.9346C30.9073 5.6376 30.9245 6.3406 30.9533 7.0436C30.9762 7.5186 31.0222 7.9936 31.0624 8.4648C31.0854 8.7118 31.1084 8.955 31.1544 9.202C31.1946 9.4338 31.2636 9.6656 31.321 9.8974C31.3497 10.0228 31.3842 10.152 31.4244 10.2774C31.4474 10.3382 31.4762 10.4028 31.5279 10.456C31.5508 10.4788 31.6313 10.4864 31.683 10.494C31.7175 10.4978 31.7577 10.4788 31.7922 10.4788C32.3151 10.4674 32.8437 10.4446 33.3666 10.4484C33.7746 10.4522 34.1825 10.4788 34.5847 10.5092C34.9927 10.5396 35.4007 10.5776 35.8086 10.627C36.1706 10.6688 36.5326 10.7296 36.8946 10.7828C37.1762 10.8246 37.4635 10.8626 37.745 10.9158C38.0841 10.9804 38.4116 11.0602 38.7448 11.1362C38.9402 11.1818 39.1413 11.2274 39.3309 11.2806C39.5723 11.349 39.8078 11.4212 40.0434 11.4972C40.1928 11.5428 40.3365 11.596 40.4744 11.653C40.9341 11.8354 41.3708 12.0368 41.6178 12.3636C41.7557 12.546 41.7845 12.7512 41.7442 12.9526C41.6581 13.3858 41.3305 13.7392 40.8823 14.047C40.5376 14.2826 40.1526 14.4802 39.7217 14.6398C39.3941 14.7614 39.0724 14.8868 38.7391 14.9894C38.3943 15.0958 38.0323 15.1756 37.6761 15.263C37.4577 15.3162 37.2336 15.3694 37.0095 15.4112C36.728 15.4644 36.4464 15.5138 36.1649 15.5632C35.9465 15.6012 35.7224 15.643 35.5041 15.6772C35.3317 15.7038 35.1536 15.7266 34.9755 15.7494C34.6652 15.7874 34.3606 15.8292 34.0504 15.8634C33.7171 15.8976 33.3781 15.9204 33.0448 15.947C32.6541 15.9774 32.2634 16.0116 31.8726 16.0382C31.7002 16.0496 31.5279 16.0572 31.3612 16.0686C30.9245 16.0876 30.4878 16.1104 30.0511 16.1294C29.9592 16.1332 29.873 16.1294 29.7811 16.1332C29.7064 16.137 29.6662 16.1142 29.6604 16.0648C29.6547 16.0382 29.6489 16.0116 29.6489 15.985C29.6317 15.7722 29.6087 15.5594 29.5915 15.3466C29.5742 15.1642 29.5685 14.9818 29.5455 14.7956C29.4938 14.3244 29.4363 13.857 29.3789 13.3858C29.3444 13.097 29.3157 12.812 29.2812 12.5232C29.2582 12.3218 29.2295 12.1166 29.2007 11.9152C29.1605 11.6188 29.1203 11.3224 29.0743 11.026C29.0628 10.9386 29.0398 10.855 29.0226 10.7676C29.0054 10.6726 28.9996 10.5814 28.9824 10.4864C28.9652 10.3838 28.9364 10.2812 28.9134 10.1786C28.9134 10.171 28.9077 10.1634 28.9077 10.1558C28.8732 9.943 28.8445 9.7302 28.8043 9.5212C28.7583 9.2894 28.7066 9.0576 28.6606 8.8296C28.6089 8.5902 28.5687 8.3508 28.5112 8.1152C28.4595 7.9024 28.402 7.6858 28.3446 7.473C28.3044 7.321 28.2756 7.169 28.2412 7.017C28.1837 6.789 28.1262 6.561 28.0688 6.333C28.0286 6.1696 27.9883 6.0062 27.9481 5.8428C27.8964 5.6528 27.8389 5.459 27.7815 5.269C27.747 5.1474 27.7125 5.0258 27.6838 4.9042C27.6263 4.7028 27.5689 4.5014 27.5172 4.2962C27.4712 4.1366 27.4367 3.977 27.385 3.8212C27.3333 3.6502 27.2701 3.4792 27.2184 3.3082C27.1781 3.1828 27.1494 3.0612 27.1149 2.9358C27.0632 2.7686 27.0115 2.6014 26.9598 2.4342C26.9138 2.2746 26.8679 2.1188 26.8161 1.9592C26.7989 1.8946 26.8449 1.8642 26.9311 1.8414C27.431 1.716 27.9309 1.5906 28.4365 1.469C28.9766 1.336 29.5168 1.2106 30.0626 1.0776C30.3155 1.0168 30.5683 0.952203 30.8211 0.887603C30.9245 0.861003 30.9533 0.872402 30.9475 0.952202C30.9475 1.108 30.936 1.2638 30.936 1.4234C30.936 1.4614 30.936 1.4994 30.936 1.5336C30.9245 1.5336 30.913 1.5336 30.9016 1.5336ZM33.6137 12.0824C33.4011 12.0748 33.3781 12.0938 33.3838 12.1926C33.3838 12.204 33.3896 12.2192 33.3896 12.2306C33.4413 12.4814 33.493 12.7284 33.5447 12.9792C33.5677 13.0818 33.5907 13.1844 33.6137 13.287C33.6654 13.5188 33.7171 13.7544 33.7631 13.9862C33.8033 14.18 33.8378 14.3738 33.878 14.5676C33.8952 14.6398 33.9757 14.6588 34.0618 14.617C34.263 14.522 34.4583 14.4232 34.6594 14.3282C34.987 14.1724 35.3087 14.0128 35.6363 13.857C35.9695 13.6936 36.3028 13.534 36.6361 13.3706C36.8199 13.2794 37.0095 13.1882 37.1934 13.0932C37.2566 13.0628 37.2566 13.0324 37.1819 13.0134C36.9119 12.9336 36.6476 12.85 36.3775 12.7702C36.1132 12.6942 35.8374 12.622 35.573 12.5498C35.3949 12.5004 35.2168 12.4472 35.0329 12.4016C34.7111 12.3218 34.3894 12.2458 34.0618 12.1736C33.9067 12.1318 33.7286 12.1052 33.6137 12.0824Z" fill="black"/>
<path d="M4.447 3.52129C4.447 3.96589 4.43551 4.41049 4.447 4.85509C4.47573 5.76329 4.50446 6.67529 4.55043 7.58349C4.56766 7.97869 4.61363 8.37769 4.65385 8.77289C4.67684 8.98189 4.71131 9.18709 4.74579 9.39229C4.76877 9.53669 4.79176 9.68109 4.83773 9.82549C4.89519 10.0155 4.96414 10.2017 5.03884 10.3879C5.07906 10.4867 5.13077 10.5019 5.28591 10.4791C5.29741 10.4791 5.3089 10.4753 5.32039 10.4753C5.89499 10.4639 6.46959 10.4487 7.03844 10.4449C7.31425 10.4449 7.5958 10.4563 7.86587 10.4791C8.22212 10.5057 8.57262 10.5475 8.92888 10.5855C9.33109 10.6273 9.72757 10.6729 10.124 10.7223C10.3539 10.7527 10.5837 10.7945 10.8078 10.8325C11.0606 10.8743 11.3135 10.9199 11.5663 10.9693C11.7904 11.0111 12.0202 11.0605 12.2386 11.1099C12.4742 11.1631 12.7097 11.2201 12.9396 11.2847C13.1407 11.3417 13.3418 11.4101 13.5372 11.4709C13.9107 11.5887 14.2554 11.7331 14.5829 11.9003C14.807 12.0181 15.0139 12.1511 15.146 12.3183C15.2954 12.5083 15.3414 12.7211 15.3012 12.9339C15.2495 13.1923 15.1173 13.4317 14.9047 13.6521C14.6806 13.8801 14.4048 14.0777 14.0945 14.2525C13.6119 14.5261 13.066 14.7427 12.4971 14.9213C12.0949 15.0467 11.6697 15.1493 11.2503 15.2557C11.0089 15.3165 10.7676 15.3697 10.5205 15.4191C10.2677 15.4685 10.0149 15.5103 9.76204 15.5521C9.51497 15.5939 9.26789 15.6395 9.02081 15.6737C8.8197 15.7041 8.61859 15.7193 8.41174 15.7459C8.17615 15.7763 7.94631 15.8105 7.70498 15.8333C7.36022 15.8675 7.01546 15.9017 6.6707 15.9283C6.25699 15.9625 5.83753 15.9967 5.41807 16.0271C5.21122 16.0423 5.01011 16.0499 4.80325 16.0575C4.33782 16.0765 3.86665 16.0993 3.40123 16.1183C3.22885 16.1259 3.22885 16.1183 3.21736 16.0043C3.18863 15.6813 3.15415 15.3621 3.12542 15.0391C3.09669 14.7617 3.06796 14.4843 3.03923 14.2107C2.99901 13.8687 2.95879 13.5229 2.91856 13.1809C2.88983 12.9567 2.8726 12.7287 2.84387 12.5045C2.7979 12.1549 2.74618 11.8091 2.69447 11.4595C2.67149 11.2923 2.6485 11.1289 2.61977 10.9617C2.57955 10.7375 2.53358 10.5171 2.49336 10.2929C2.45314 10.0725 2.43015 9.84829 2.38993 9.62789C2.35546 9.42269 2.30374 9.21369 2.26352 9.00849C2.21181 8.75389 2.16009 8.50309 2.10263 8.24849C2.05092 8.03189 1.98771 7.81529 1.936 7.59869C1.89578 7.43149 1.86705 7.26429 1.83257 7.10089C1.79235 6.92229 1.74063 6.74369 1.69467 6.56509C1.63146 6.30669 1.56251 6.05209 1.4993 5.79369C1.45333 5.59989 1.40737 5.40989 1.35565 5.21609C1.27521 4.94249 1.18902 4.66889 1.10857 4.39149C1.06261 4.22429 1.02238 4.05709 0.976417 3.89369C0.930449 3.73029 0.872989 3.56689 0.821275 3.39969C0.781053 3.27049 0.746577 3.13749 0.706355 3.00829C0.654641 2.83729 0.602927 2.67009 0.551213 2.49909C0.493753 2.31289 0.430547 2.12669 0.378833 1.93669C0.355849 1.86449 0.436293 1.84169 0.516737 1.82269C0.827021 1.74669 1.13156 1.67069 1.44184 1.59469C1.72914 1.52249 2.01644 1.45409 2.30374 1.38569C2.52209 1.33249 2.74618 1.27549 2.96453 1.21849C3.25758 1.14629 3.54488 1.07789 3.83792 1.00569C3.95859 0.975287 4.07351 0.944887 4.19417 0.918287C4.25163 0.903087 4.31484 0.887887 4.37805 0.880287C4.48722 0.865087 4.51595 0.884087 4.5102 0.956287C4.49871 1.16909 4.49297 1.38189 4.48147 1.59849C4.47573 1.76189 4.47573 1.92149 4.47573 2.08489C4.47573 2.55989 4.47573 3.03489 4.47573 3.50989C4.45849 3.52129 4.45274 3.52129 4.447 3.52129ZM7.13612 12.0827C6.94076 12.0789 6.91203 12.1017 6.92927 12.1967C6.94651 12.2765 6.96949 12.3563 6.98673 12.4399C7.00971 12.5311 7.0212 12.6261 7.04419 12.7173C7.08441 12.8845 7.12463 13.0479 7.16485 13.2151C7.21082 13.4241 7.25104 13.6369 7.29127 13.8497C7.34298 14.0891 7.40044 14.3285 7.45215 14.5717C7.46939 14.6401 7.54984 14.6629 7.63603 14.6249C7.66476 14.6135 7.68774 14.5945 7.71647 14.5831C8.12444 14.3855 8.52666 14.1879 8.93462 13.9903C9.24491 13.8383 9.55519 13.6825 9.87122 13.5305C10.1528 13.3937 10.4343 13.2645 10.7159 13.1239C10.8308 13.0669 10.8193 13.0365 10.6986 12.9985C10.6469 12.9833 10.5952 12.9681 10.5435 12.9529C10.239 12.8693 9.94017 12.7857 9.63563 12.7021C9.29087 12.6033 8.94611 12.5007 8.59561 12.4095C8.25659 12.3221 7.90609 12.2423 7.56133 12.1663C7.40619 12.1207 7.2453 12.1017 7.13612 12.0827Z" fill="black"/>
<path d="M46.5479 2.5976C46.7433 2.6128 46.9444 2.62419 47.1397 2.63939C47.2432 2.64699 47.2949 2.70019 47.3006 2.76479C47.3408 3.09539 47.3753 3.42219 47.4098 3.75279C47.4443 4.11759 47.4787 4.48239 47.5132 4.84719C47.5419 5.12839 47.5707 5.40959 47.6051 5.69079C47.6511 6.05939 47.6971 6.42799 47.7373 6.79279C47.7545 6.92959 47.766 7.07019 47.7775 7.20699C47.8063 7.46919 47.8465 7.73139 47.8752 7.99359C47.9154 8.31659 47.9442 8.63959 47.9844 8.95879C48.0131 9.23619 48.0418 9.51359 48.0763 9.79099C48.1051 10.076 48.1338 10.3572 48.1683 10.6422C48.2142 11.007 48.2602 11.368 48.3062 11.7328C48.3579 12.1812 48.4038 12.6296 48.4613 13.078C48.5073 13.477 48.559 13.876 48.6107 14.275C48.6222 14.3586 48.5992 14.3776 48.4728 14.3928C47.9557 14.446 47.4385 14.4536 46.9214 14.3966C46.8065 14.3814 46.7662 14.3472 46.7605 14.275C46.7145 13.8836 46.6628 13.4922 46.6111 13.1008C46.5939 12.9868 46.5766 12.8728 46.5651 12.7588C46.5306 12.489 46.5019 12.2192 46.4617 11.9532C46.4157 11.6568 46.3468 11.3642 46.3008 11.0678C46.2548 10.798 46.2204 10.5244 46.1744 10.2546C46.1169 9.90499 46.0537 9.55539 45.9905 9.20199C45.9618 9.03859 45.9331 8.87899 45.8986 8.71559C45.8469 8.48379 45.7894 8.25579 45.7434 8.02399C45.7032 7.83779 45.6745 7.65159 45.6343 7.46539C45.5826 7.21459 45.5193 6.96379 45.4676 6.71299C45.4217 6.50019 45.3872 6.28739 45.3355 6.07459C45.2895 5.87699 45.2263 5.67939 45.1803 5.48179C45.1401 5.32219 45.1114 5.15879 45.0712 4.99539C45.0194 4.77879 44.9562 4.56599 44.9045 4.34939C44.8586 4.17459 44.8241 3.99599 44.7781 3.82119C44.7264 3.64259 44.6689 3.46399 44.6172 3.28539C44.5713 3.12579 44.531 2.96239 44.4908 2.80279C44.4793 2.75719 44.5023 2.72679 44.5827 2.71919C44.6345 2.71539 44.6862 2.70019 44.7379 2.70019C45.2091 2.66979 45.686 2.6432 46.1572 2.6166C46.2893 2.609 46.4215 2.6166 46.5536 2.6166C46.5479 2.609 46.5479 2.6052 46.5479 2.5976Z" fill="black"/>
<path d="M20.1623 2.60139C20.2945 2.60899 20.4898 2.62039 20.6852 2.63939C20.8001 2.65079 20.8461 2.70779 20.8576 2.7762C20.8748 2.8826 20.892 2.98899 20.8978 3.0954C20.9323 3.4906 20.9667 3.882 21.0012 4.2772C21.0299 4.5736 21.0644 4.87 21.0989 5.1664C21.1391 5.5236 21.1908 5.877 21.2311 6.2342C21.2943 6.7548 21.3517 7.2754 21.4092 7.7922C21.4666 8.2862 21.5184 8.7764 21.5701 9.2704C21.5988 9.5554 21.6275 9.8442 21.6677 10.1292C21.7195 10.5282 21.7827 10.9234 21.8286 11.3224C21.8746 11.71 21.9091 12.0938 21.955 12.4814C21.9953 12.8462 22.047 13.2148 22.0872 13.5796C22.1102 13.781 22.1217 13.9824 22.1389 14.1838C22.1447 14.218 22.1619 14.2522 22.1734 14.2864C22.1964 14.351 22.1619 14.3814 22.0585 14.3928C21.616 14.4422 21.1793 14.4574 20.7312 14.4194C20.6335 14.4118 20.5358 14.408 20.4439 14.389C20.4036 14.3814 20.3519 14.3472 20.3519 14.3244C20.3117 14.0736 20.283 13.819 20.2427 13.5682C20.2025 13.2832 20.1566 13.002 20.1106 12.717C20.0933 12.5992 20.0819 12.4776 20.0646 12.3598C20.0301 12.0824 20.0014 11.8088 19.9554 11.5314C19.9095 11.2578 19.8463 10.988 19.7946 10.7144C19.7486 10.4446 19.7199 10.1748 19.6681 9.9088C19.6164 9.6314 19.5532 9.354 19.5015 9.0766C19.4613 8.8638 19.4326 8.6472 19.3923 8.4344C19.3464 8.1988 19.2832 7.967 19.2315 7.7314C19.2315 7.72 19.2257 7.7124 19.2257 7.701C19.1855 7.4844 19.151 7.2678 19.105 7.0512C19.0476 6.77 18.9844 6.4926 18.9154 6.2114C18.8752 6.029 18.8235 5.8504 18.7833 5.6718C18.7373 5.4628 18.6971 5.2576 18.6396 5.0486C18.5592 4.7446 18.473 4.4406 18.3925 4.1328C18.3466 3.9504 18.3121 3.7642 18.2604 3.5818C18.2144 3.4184 18.1627 3.2588 18.111 3.0954C18.0823 2.99659 18.0478 2.9016 18.0305 2.8028C18.0248 2.78 18.0593 2.7382 18.088 2.7306C18.157 2.7116 18.2374 2.70399 18.3178 2.70019C18.7775 2.66979 19.2429 2.6432 19.7026 2.6166C19.8405 2.609 19.9727 2.60899 20.1623 2.60139Z" fill="black"/>
<path d="M52.6674 12.4624C52.6674 13.1198 52.6732 13.7734 52.6674 14.4308C52.6674 14.6778 52.6444 14.921 52.6387 15.168C52.6387 15.2212 52.5985 15.2478 52.5238 15.2516C52.4663 15.2554 52.4031 15.2554 52.3456 15.2554C51.9377 15.2668 51.5297 15.2782 51.1218 15.2934C50.9666 15.2972 50.8172 15.3086 50.6621 15.3162C50.5644 15.3238 50.5242 15.2972 50.5127 15.2288C50.4839 14.9932 50.4552 14.7614 50.415 14.5258C50.3633 14.2256 50.3001 13.9254 50.2541 13.6252C50.2024 13.306 50.1737 12.983 50.1277 12.66C50.099 12.4206 50.0645 12.1812 50.03 11.9418C50.0013 11.7328 49.9726 11.5276 49.9438 11.3186C49.9093 11.0754 49.8749 10.836 49.8461 10.5928C49.7887 10.1026 49.7312 9.6086 49.6795 9.1184C49.668 8.9816 49.6795 8.9854 49.8921 8.974C50.3403 8.9512 50.7885 8.9094 51.2367 8.898C51.5929 8.8904 51.9492 8.9056 52.3054 8.9208C52.4836 8.9284 52.518 9.0348 52.5353 9.1298C52.5582 9.2552 52.5755 9.3806 52.587 9.5098C52.61 9.772 52.6329 10.0342 52.6387 10.2964C52.6617 11.0184 52.6732 11.7366 52.6904 12.4586C52.6789 12.4624 52.6732 12.4624 52.6674 12.4624Z" fill="black"/>
<path d="M18.9326 14.7158C18.9384 14.9362 18.9326 14.902 18.6051 14.94C18.2201 14.9856 17.8294 15.0198 17.4444 15.054C17.2778 15.0692 17.1112 15.0806 16.9445 15.092C16.8583 15.0996 16.8296 15.0616 16.8181 15.016C16.7664 14.8374 16.7204 14.655 16.6687 14.4764C16.6285 14.3434 16.5825 14.2104 16.5423 14.0774C16.4906 13.914 16.4446 13.7506 16.3987 13.5872C16.3469 13.42 16.301 13.2566 16.2493 13.0894C16.1975 12.9184 16.1573 12.7474 16.1056 12.5802C16.0654 12.4434 16.0194 12.3104 15.9792 12.1736C15.9332 12.0178 15.8815 11.862 15.8413 11.7062C15.7666 11.4364 15.7034 11.1666 15.6287 10.9006C15.577 10.7258 15.5138 10.5548 15.4678 10.38C15.4276 10.228 15.3988 10.0722 15.3586 9.92021C15.3184 9.75681 15.2724 9.59341 15.2322 9.43001C15.192 9.27421 15.1518 9.12221 15.1173 8.96641C15.0943 8.87521 15.1173 8.86001 15.2552 8.84101C15.577 8.79921 15.8987 8.76501 16.2148 8.71561C16.5825 8.65481 16.9618 8.64341 17.3352 8.62441C17.4617 8.62061 17.5881 8.62061 17.7087 8.62821C17.8466 8.63581 17.9443 8.70421 17.9673 8.80681C18.0363 9.10321 18.111 9.39961 18.1742 9.69601C18.2259 9.92781 18.2718 10.1596 18.3121 10.3952C18.3638 10.6954 18.3983 10.9956 18.45 11.2958C18.5074 11.6758 18.5764 12.0558 18.6338 12.4358C18.6798 12.7436 18.7085 13.0514 18.743 13.3554C18.7775 13.6404 18.8005 13.9216 18.8407 14.2066C18.8637 14.3814 18.9039 14.5486 18.9326 14.7158Z" fill="black"/>
<path d="M41.5719 8.993C41.5661 8.8676 41.5604 8.8638 41.7443 8.841C42.0373 8.7992 42.3361 8.7688 42.6234 8.7194C42.9797 8.6586 43.3474 8.6586 43.7094 8.6244C43.899 8.6092 44.0829 8.613 44.2553 8.6624C44.3127 8.6776 44.3702 8.727 44.3874 8.7688C44.5483 9.1792 44.6345 9.601 44.692 10.0228C44.7264 10.285 44.7839 10.5472 44.8241 10.8094C44.8758 11.1286 44.9161 11.444 44.962 11.7632C45.0195 12.1394 45.0884 12.5156 45.1401 12.888C45.1861 13.211 45.2091 13.5378 45.2493 13.8608C45.278 14.1382 45.3125 14.4194 45.347 14.6968C45.347 14.7196 45.3642 14.7386 45.3757 14.7614C45.4045 14.8412 45.347 14.8944 45.2206 14.9058C44.8758 14.9362 44.5311 14.9666 44.1863 14.997C43.9335 15.0198 43.6864 15.0502 43.4336 15.0806C43.3187 15.092 43.2842 15.073 43.2612 15.0008C43.2152 14.845 43.152 14.6854 43.1061 14.5296C43.0773 14.4384 43.0658 14.3434 43.0371 14.2522C42.9797 14.0508 42.9107 13.8494 42.8532 13.648C42.7671 13.3592 42.6924 13.0666 42.6062 12.7778C42.5544 12.603 42.4912 12.4244 42.4395 12.2496C42.3993 12.1242 42.3706 12.0026 42.3418 11.8772C42.2959 11.7176 42.2557 11.5618 42.2097 11.4022C42.1522 11.2008 42.1005 11.0032 42.0431 10.8018C41.9913 10.6194 41.9281 10.4332 41.8764 10.2508C41.8419 10.1406 41.8132 10.0266 41.7845 9.9164C41.7155 9.639 41.6466 9.3578 41.5834 9.0804C41.5776 9.0576 41.5776 9.0272 41.5719 8.993Z" fill="black"/>
<path d="M26.2071 12.527C26.2071 13.23 26.2071 13.9292 26.2071 14.6322C26.2071 14.8146 26.1841 14.9932 26.1783 15.1756C26.1783 15.2212 26.1439 15.244 26.0807 15.2516C26.0519 15.2554 26.0289 15.2554 26.0002 15.2592C25.5865 15.2706 25.167 15.2858 24.7533 15.2972C24.581 15.3048 24.4086 15.3162 24.2362 15.32C24.0868 15.3238 24.0638 15.3086 24.0523 15.2136C24.0351 15.0768 24.0236 14.9362 24.0006 14.7956C23.9719 14.5752 23.9374 14.351 23.9029 14.1306C23.8627 13.8608 23.811 13.591 23.7708 13.3174C23.7018 12.8614 23.6329 12.4092 23.5697 11.9532C23.5179 11.596 23.4777 11.235 23.4318 10.8778C23.3973 10.627 23.3685 10.3762 23.3398 10.1216C23.3053 9.80242 23.2709 9.48322 23.2364 9.16782C23.2364 9.14502 23.2364 9.12222 23.2364 9.09942C23.2479 8.99682 23.2709 8.98542 23.4318 8.97782C23.8972 8.95122 24.3569 8.91702 24.8223 8.89802C25.0809 8.88662 25.3394 8.90182 25.598 8.90942C25.7129 8.91322 25.8278 8.92462 25.937 8.95122C25.9887 8.96262 26.0519 9.00822 26.0634 9.04622C26.1094 9.19442 26.1554 9.34262 26.1611 9.49462C26.1956 10.5054 26.2186 11.5162 26.2473 12.527C26.2301 12.527 26.2186 12.527 26.2071 12.527Z" fill="black"/>
<path d="M52.3628 6.9296C52.3628 7.2944 52.3628 7.6592 52.3628 8.024C52.3628 8.1 52.3284 8.1228 52.2134 8.1114C51.8744 8.0886 51.5354 8.062 51.1964 8.0392C51.1045 8.0316 51.0987 7.9936 51.0987 7.948C51.0872 7.7086 51.0815 7.4692 51.07 7.2336C51.0527 6.7434 51.0413 6.24939 51.024 5.75919C51.0183 5.64899 51.0298 5.64139 51.1907 5.64899C51.5182 5.66039 51.8514 5.67179 52.179 5.68699C52.3571 5.69459 52.3916 5.71359 52.3916 5.83139C52.3973 6.19619 52.3916 6.561 52.3916 6.9258C52.3858 6.9296 52.3743 6.9296 52.3628 6.9296Z" fill="black"/>
<path d="M24.581 6.5762C24.581 6.2988 24.581 6.0252 24.581 5.7478C24.581 5.6528 24.5925 5.6414 24.7361 5.649C25.0636 5.6604 25.3911 5.6642 25.7129 5.6908C25.9255 5.706 25.9657 5.7136 25.9657 5.8618C25.9485 6.54581 25.9428 7.22981 25.914 7.91001C25.9025 8.15701 25.937 8.11901 25.6037 8.10001C25.3222 8.08481 25.0349 8.06201 24.7533 8.03921C24.6786 8.03541 24.6672 8.00121 24.6614 7.95941C24.6499 7.74281 24.6269 7.52241 24.6212 7.30581C24.6154 7.06261 24.6212 6.8194 24.6212 6.5762C24.6039 6.5762 24.5925 6.5762 24.581 6.5762Z" fill="black"/>
<path d="M16.6687 5.4248C16.8354 5.4248 17.0077 5.4248 17.1744 5.4248C17.318 5.4248 17.3468 5.44 17.364 5.535C17.3985 5.7478 17.4272 5.9606 17.4559 6.1734C17.5076 6.561 17.5536 6.9448 17.5996 7.3324C17.6111 7.435 17.6111 7.5414 17.6226 7.644C17.6226 7.6668 17.6283 7.6934 17.6398 7.7162C17.6743 7.8112 17.6513 7.8302 17.5019 7.8302C17.1686 7.8264 16.8354 7.8226 16.5021 7.8226C16.4274 7.8226 16.3987 7.7998 16.3929 7.758C16.3699 7.6592 16.3412 7.5566 16.324 7.4578C16.278 7.2032 16.2378 6.9448 16.1976 6.6864C16.1688 6.504 16.1401 6.3216 16.1114 6.1392C16.0826 5.9454 16.0482 5.7516 16.0194 5.5578C16.0194 5.5464 16.0137 5.5312 16.0137 5.5198C15.9907 5.4514 16.0079 5.4324 16.1229 5.4286C16.2952 5.4286 16.4791 5.4286 16.6687 5.4248C16.6687 5.4286 16.6687 5.4286 16.6687 5.4248Z" fill="black"/>
<path d="M43.1061 5.4248C43.2784 5.4248 43.4508 5.4248 43.6232 5.4248C43.7726 5.4248 43.8071 5.4514 43.8186 5.5464C43.8703 5.9834 43.9277 6.4166 43.9795 6.8536C44.0139 7.1462 44.0542 7.4388 44.0886 7.7314C44.1001 7.815 44.0714 7.834 43.945 7.8302C43.7324 7.8226 43.5255 7.8074 43.3129 7.8036C43.2152 7.7998 43.1118 7.8112 43.0141 7.8226C42.8762 7.8378 42.8303 7.8188 42.813 7.7276C42.7671 7.5072 42.7268 7.283 42.6866 7.0626C42.6521 6.8764 42.6406 6.6902 42.5947 6.5078C42.543 6.3178 42.52 6.1316 42.5027 5.9416C42.4912 5.801 42.451 5.6642 42.4223 5.5236C42.4108 5.4552 42.4568 5.4286 42.5545 5.4286C42.7498 5.4324 42.9279 5.4286 43.1061 5.4248C43.1061 5.4286 43.1061 5.4286 43.1061 5.4248Z" fill="black"/>
<path d="M23.7363 5.6832C23.7765 5.6832 23.811 5.6832 23.8512 5.6832C23.9489 5.6794 23.9949 5.7098 24.0006 5.7744C24.0351 6.2494 24.0638 6.7282 24.104 7.2032C24.1213 7.454 24.1615 7.7048 24.1845 7.9518C24.196 8.0696 24.1787 8.0772 23.9949 8.081C23.765 8.0886 23.5352 8.1 23.3111 8.1076C23.1502 8.1152 23.1157 8.1 23.0985 7.9974C23.0525 7.7124 23.0123 7.4236 22.9663 7.1386C22.9376 6.9296 22.9031 6.7244 22.8744 6.5154C22.8457 6.3368 22.8169 6.162 22.7825 5.9834C22.7767 5.9378 22.7422 5.896 22.7537 5.8542C22.7595 5.8238 22.8112 5.7744 22.8514 5.7706C23.1502 5.7326 23.449 5.7022 23.7478 5.6718C23.7363 5.6756 23.7363 5.6794 23.7363 5.6832Z" fill="black"/>
<path d="M42.3476 7.75801C42.3533 7.89861 42.3418 7.90241 42.1235 7.91761C41.8936 7.93281 41.6638 7.95941 41.434 7.98221C41.342 7.98981 41.3133 7.97081 41.2961 7.91001C41.2214 7.65541 41.1294 7.40081 41.049 7.14621C41.003 7.00181 40.9685 6.85361 40.9226 6.70921C40.8708 6.54961 40.8076 6.39381 40.7617 6.23421C40.71 6.07081 40.6697 5.90742 40.6295 5.74402C40.6238 5.72502 40.6697 5.69082 40.6985 5.68322C41.0145 5.62622 41.3248 5.57682 41.6408 5.52362C41.7902 5.50082 41.8419 5.53122 41.8649 5.63382C41.9166 5.86562 41.9798 6.09741 42.0373 6.32541C42.0718 6.48121 42.1005 6.63321 42.135 6.78901C42.1924 7.05501 42.2556 7.31721 42.3131 7.58321C42.3246 7.64401 42.3361 7.70101 42.3476 7.75801Z" fill="black"/>
<path d="M14.945 7.9898C14.9162 7.9708 14.8588 7.9442 14.8415 7.91C14.7898 7.777 14.7496 7.644 14.7094 7.511C14.6462 7.3134 14.5887 7.1158 14.5312 6.9182C14.491 6.7814 14.4508 6.6408 14.4106 6.504C14.3646 6.3596 14.3129 6.2152 14.2669 6.0708C14.2325 5.9682 14.198 5.8618 14.175 5.7592C14.1692 5.7364 14.2152 5.6908 14.2497 5.6832C14.5542 5.6262 14.853 5.5768 15.1576 5.5274C15.3529 5.497 15.4104 5.5236 15.4391 5.6794C15.4793 5.8656 15.5023 6.0518 15.5425 6.238C15.5885 6.4432 15.6517 6.6484 15.6977 6.8536C15.7436 7.0664 15.7839 7.2754 15.8298 7.4882C15.8471 7.5756 15.8816 7.6592 15.9045 7.7428C15.9333 7.8416 15.9045 7.88719 15.7666 7.90239C15.5081 7.93659 15.2437 7.9594 14.945 7.9898Z" fill="black"/>
<path d="M50.6046 7.6782C50.6046 7.8074 50.6046 7.9024 50.6046 7.9974C50.6046 8.0506 50.5759 8.081 50.4897 8.0848C50.2311 8.0924 49.9725 8.1038 49.714 8.1152C49.6105 8.119 49.5588 8.1 49.5531 8.0278C49.5301 7.8568 49.5014 7.6858 49.4726 7.5186C49.4209 7.2298 49.3635 6.9448 49.306 6.656C49.3003 6.6332 49.306 6.6066 49.3003 6.58C49.2715 6.4052 49.2428 6.2304 49.2141 6.0556C49.2026 5.9872 49.1968 5.915 49.2083 5.8466C49.2141 5.82 49.26 5.7782 49.2945 5.7744C49.6278 5.7402 49.961 5.7098 50.2943 5.6794C50.392 5.6718 50.4265 5.7022 50.4322 5.763C50.4667 6.1354 50.5012 6.5078 50.5356 6.884C50.5586 7.1614 50.5816 7.435 50.6046 7.6782Z" fill="black"/>
</svg>
