<svg width="100%" height="100%" viewBox="0 0 1189 839" fill="none" xmlns="http://www.w3.org/2000/svg">
<path d="M789.155 231.623C792.785 231.623 795.727 228.68 795.727 225.049C795.727 221.419 792.785 218.476 789.155 218.476C785.525 218.476 782.583 221.419 782.583 225.049C782.583 228.68 785.525 231.623 789.155 231.623Z" fill="white"/>
<path d="M811.745 231.844C815.375 231.844 818.317 228.901 818.317 225.27C818.317 221.64 815.375 218.697 811.745 218.697C808.115 218.697 805.173 221.64 805.173 225.27C805.173 228.901 808.115 231.844 811.745 231.844Z" fill="white"/>
<path d="M833.388 232.324C837.018 232.324 839.96 229.381 839.96 225.75C839.96 222.12 837.018 219.177 833.388 219.177C829.758 219.177 826.816 222.12 826.816 225.75C826.816 229.381 829.758 232.324 833.388 232.324Z" fill="white"/>
<path d="M257.462 187.143C261.259 187.143 264.338 184.064 264.338 180.266C264.338 176.467 261.259 173.388 257.462 173.388C253.664 173.388 250.586 176.467 250.586 180.266C250.586 184.064 253.664 187.143 257.462 187.143Z" fill="white"/>
<path d="M281.098 187.373C284.896 187.373 287.974 184.294 287.974 180.496C287.974 176.698 284.896 173.619 281.098 173.619C277.3 173.619 274.222 176.698 274.222 180.496C274.222 184.294 277.3 187.373 281.098 187.373Z" fill="white"/>
<path d="M303.746 187.873C307.543 187.873 310.622 184.793 310.622 180.995C310.622 177.197 307.543 174.118 303.746 174.118C299.948 174.118 296.869 177.197 296.869 180.995C296.869 184.793 299.948 187.873 303.746 187.873Z" fill="white"/>
<path d="M118.215 556.598L106.565 568.448L118.412 580.1L130.063 568.251L118.215 556.598Z" fill="#1877C2"/>
<path opacity="0.26" d="M58.4907 0H403.014C404.892 0 406.693 0.746148 408.021 2.0743C409.348 3.40245 410.095 5.20381 410.095 7.0821V662.239C410.095 663.169 409.911 664.09 409.555 664.949C409.2 665.808 408.678 666.589 408.021 667.247C407.363 667.904 406.582 668.426 405.723 668.782C404.864 669.138 403.943 669.321 403.014 669.321H60.4874C59.5575 669.321 58.6367 669.138 57.7776 668.782C56.9185 668.426 56.1379 667.904 55.4804 667.247C54.8228 666.589 54.3013 665.808 53.9454 664.949C53.5896 664.09 53.4064 663.169 53.4064 662.239V5.09796C53.4064 3.74811 53.9417 2.45336 54.8948 1.49768C55.8479 0.54199 57.1411 0.00338945 58.4907 0V0Z" fill="#39ABD4"/>
<path d="M218.438 655.627C233.019 655.627 244.839 643.805 244.839 629.222C244.839 614.639 233.019 602.817 218.438 602.817C203.857 602.817 192.037 614.639 192.037 629.222C192.037 643.805 203.857 655.627 218.438 655.627Z" fill="#39ABD4"/>
<path opacity="0.26" d="M73.7822 66.6383H387.719C388.649 66.6383 389.57 66.8215 390.429 67.1774C391.288 67.5333 392.068 68.055 392.726 68.7126C393.383 69.3703 393.905 70.151 394.261 71.0102C394.617 71.8695 394.8 72.7904 394.8 73.7204V582.195C394.8 583.125 394.617 584.046 394.261 584.905C393.905 585.764 393.383 586.545 392.726 587.202C392.068 587.86 391.288 588.382 390.429 588.738C389.57 589.094 388.649 589.277 387.719 589.277H75.766C73.888 589.277 72.0869 588.531 70.759 587.202C69.4311 585.874 68.685 584.073 68.685 582.195V71.7363C68.685 70.3842 69.222 69.0875 70.1779 68.1315C71.1338 67.1754 72.4303 66.6383 73.7822 66.6383V66.6383Z" fill="#39ABD4"/>
<path d="M661.81 150.756L233.137 154.348C231.836 154.359 230.791 155.422 230.801 156.723L231.231 208.046C231.242 209.347 232.305 210.393 233.606 210.382L662.279 206.79C663.58 206.779 664.625 205.716 664.614 204.415L664.184 153.092C664.173 151.791 663.11 150.745 661.81 150.756Z" fill="url(#paint0_linear)"/>
<path d="M1175.6 259.186L766.922 262.61C765.407 262.623 764.19 263.861 764.203 265.376L766.625 554.618C766.638 556.133 767.876 557.35 769.39 557.338L1178.07 553.913C1179.59 553.901 1180.8 552.663 1180.79 551.148L1178.37 261.906C1178.36 260.391 1177.12 259.173 1175.6 259.186Z" fill="url(#paint1_linear)"/>
<path d="M1175.08 196.877L766.4 200.301C764.885 200.314 763.668 201.552 763.681 203.067L764.083 251.132C764.096 252.647 765.334 253.865 766.848 253.852L1175.53 250.427C1177.04 250.415 1178.26 249.177 1178.25 247.662L1177.85 199.596C1177.83 198.082 1176.6 196.864 1175.08 196.877Z" fill="#1877C2"/>
<path d="M120.597 838.171L1188.75 835.953C1188.75 835.953 1192.94 601.796 1069.96 627.475C946.968 653.153 983.425 300.431 778.714 277.508C574.003 254.584 675.232 609.265 436.361 607.256C197.49 605.246 120.597 838.171 120.597 838.171Z" fill="url(#paint2_linear)"/>
<path d="M674.96 463.143L668.932 478.591L650.412 473.614L640.09 466.516L623.957 501.555C623.957 501.555 632.519 543.571 620.575 587.814C620.575 587.814 647.485 614.277 710.058 609.643C710.058 609.643 714.515 529.535 704.881 482.396C681.117 463.089 674.96 463.143 674.96 463.143Z" fill="#1877C2"/>
<path d="M674.957 463.143L712.58 420.737L723.436 369.316L742.935 369.152L736.219 424.644L703.886 485.484L674.957 463.143Z" fill="#1877C2"/>
<path d="M418.948 587.075L437.241 565.365L450.661 574.492L439.638 606.408L418.948 587.075Z" fill="url(#paint3_linear)"/>
<path d="M319.255 804.62L308.683 803.436L307.803 790.379L318.25 789.675L319.255 804.62Z" fill="url(#paint4_linear)"/>
<path d="M296.079 785.044L291.727 785.339L294.889 832.35L298.05 831.646C299.964 831.217 301.74 830.318 303.218 829.029C304.697 827.741 305.83 826.104 306.517 824.266C306.825 823.43 307.04 822.561 307.156 821.677L308.974 807.788L312.222 804.073C312.222 804.073 307.227 794.792 311.287 790.142C310.946 788.893 310.222 787.782 309.216 786.967C308.21 786.152 306.974 785.673 305.681 785.598L296.079 785.044Z" fill="url(#paint5_linear)"/>
<path d="M489.703 811.811L487.902 822.298L474.815 822.407L474.726 811.936L489.703 811.811Z" fill="url(#paint6_linear)"/>
<path d="M468.803 833.803L468.841 838.165L515.947 837.768L515.432 834.568C515.047 832.183 513.936 829.975 512.251 828.244C510.566 826.513 508.389 825.343 506.016 824.894L492.257 822.26L488.737 818.8C488.737 818.8 479.176 823.242 474.78 818.919C473.512 819.183 472.359 819.839 471.485 820.796C470.612 821.753 470.062 822.96 469.913 824.247L468.803 833.803Z" fill="url(#paint7_linear)"/>
<path d="M436.774 691.124C436.774 691.124 507.599 691.553 515.807 692.51C524.014 693.467 529.338 714.982 491.169 813.853L472.694 814.006L479.192 732.852L414.558 734.423L402.994 703.73L436.774 691.124Z" fill="#1877C2"/>
<path d="M404.988 696.523C404.988 696.523 431.171 758.927 437.494 778.375C443.816 797.823 429.542 809.238 405.938 809.436C382.334 809.635 317.648 807.097 317.648 807.097L317.492 788.619L395.405 777.7L362.975 705.087L404.988 696.523Z" fill="#1877C2"/>
<path d="M436.991 596.676L430.79 591.597C430.79 591.597 426.589 580.339 415.352 586.592C404.114 592.845 357.213 630.198 362.976 705.09C362.976 705.09 383.598 716.207 414.379 714.921C445.16 713.634 448.085 695.134 442.901 689.018C437.718 682.903 431.497 675.769 443.64 655.134L460.82 623.167L436.991 596.676Z" fill="#13133A"/>
<path d="M460.82 623.167L480.475 641.479L515.269 628.867L523.556 638.035C523.556 638.035 498.141 666.994 481.752 671.238C465.363 675.481 441.564 652.072 441.564 652.072L460.82 623.167Z" fill="#1877C2"/>
<path d="M515.269 628.867C515.269 628.867 523.393 618.533 530.628 624.633C537.862 630.733 523.556 638.035 523.556 638.035L515.269 628.867Z" fill="url(#paint8_linear)"/>
<path d="M442.902 583.815C454.268 583.72 463.403 574.177 463.305 562.5C463.207 550.823 453.914 541.434 442.548 541.529C431.182 541.624 422.048 551.168 422.145 562.845C422.243 574.522 431.537 583.911 442.902 583.815Z" fill="url(#paint9_linear)"/>
<path d="M471.721 530.137C471.721 530.137 473.98 541.248 459.946 546.928C445.912 552.609 447.013 554.826 437.311 560.475C427.61 566.123 429.776 566.101 429.776 566.101L435.411 582.742C435.411 582.742 422.292 576.194 417.812 560.66C413.333 545.127 422.013 545.047 422.013 545.047C422.013 545.047 422.993 532.796 431.632 529.385C440.271 525.973 453.294 529.202 459.7 518.021C466.106 506.839 471.721 530.137 471.721 530.137Z" fill="url(#paint10_linear)"/>
<path d="M721.624 273.101L511.288 317.547L527.219 392.963L737.555 348.516L721.624 273.101Z" fill="#1877C2"/>
<path d="M556.341 371.658C570.155 371.658 581.353 360.458 581.353 346.642C581.353 332.826 570.155 321.626 556.341 321.626C542.527 321.626 531.329 332.826 531.329 346.642C531.329 360.458 542.527 371.658 556.341 371.658Z" fill="white"/>
<path opacity="0.53" d="M715.09 307.064L586.011 335.637L587.57 342.68L716.648 314.107L715.09 307.064Z" fill="white"/>
<path d="M682.892 314.194L586.013 335.64L587.592 342.773L684.471 321.328L682.892 314.194Z" fill="white"/>
<path d="M566.639 560.748L496.849 561.333C496.225 561.338 495.724 561.848 495.729 562.472L496.269 626.923C496.274 627.546 496.784 628.048 497.408 628.043L567.197 627.458C567.821 627.453 568.323 626.943 568.317 626.319L567.777 561.869C567.772 561.245 567.262 560.743 566.639 560.748Z" fill="url(#paint11_linear)"/>
<path d="M551.359 593.562C551.391 597.297 550.319 600.959 548.276 604.086C546.233 607.213 543.311 609.665 539.877 611.135C536.444 612.605 532.652 613.027 528.98 612.347C525.308 611.667 521.918 609.915 519.239 607.314C516.559 604.712 514.709 601.375 513.92 597.724C513.132 594.073 513.441 590.27 514.809 586.794C516.177 583.318 518.541 580.324 521.606 578.189C524.671 576.054 528.298 574.874 532.032 574.796H532.26C537.128 574.751 541.826 576.585 545.377 579.916C548.928 583.247 551.058 587.82 551.324 592.682C551.35 592.974 551.362 593.268 551.359 593.562V593.562Z" fill="url(#paint12_linear)"/>
<path d="M551.324 592.682L532.423 593.712L532.036 574.786H532.263C537.132 574.742 541.831 576.578 545.381 579.911C548.932 583.244 551.06 587.819 551.324 592.682V592.682Z" fill="url(#paint13_linear)"/>
<path d="M215.59 697.806C215.59 697.806 222.153 680.986 201.412 672.78C180.672 664.575 168.049 691.502 154.021 684.356C154.021 684.356 161.496 709.436 178.771 704.264C196.046 699.093 203.735 683.376 215.59 697.806Z" fill="#1877C2"/>
<path d="M228.895 716.575C228.895 716.575 223.455 703.755 239.863 697.185C256.271 690.615 266.693 711.109 277.774 705.442C277.774 705.442 272.148 724.787 258.316 721.043C244.484 717.299 238.151 705.346 228.895 716.575Z" fill="#13133A"/>
<path d="M210.432 748.699C210.432 748.699 216.995 731.879 196.254 723.674C175.514 715.468 162.878 742.395 148.863 735.249C148.863 735.249 156.335 760.329 173.613 755.154C190.892 749.979 198.577 734.269 210.432 748.699Z" fill="#13133A"/>
<path d="M210.432 748.699L210.845 797.868" stroke="url(#paint14_linear)" stroke-miterlimit="10"/>
<path d="M228.37 757.308C228.37 757.308 222.93 744.526 239.3 737.975C255.67 731.425 266.047 751.858 277.095 746.21C277.095 746.21 271.489 765.494 257.699 761.763C243.908 758.031 237.595 746.114 228.37 757.308Z" fill="#1877C2"/>
<path d="M228.37 757.308L228.687 794.923" stroke="url(#paint15_linear)" stroke-miterlimit="10"/>
<path d="M229.823 713.993C229.823 713.993 221.03 738.955 220.812 764.236C220.595 789.518 220.22 795.547 220.22 795.547" stroke="url(#paint16_linear)" stroke-miterlimit="10"/>
<path d="M215.357 695.016L215.491 793.919" stroke="url(#paint17_linear)" stroke-miterlimit="10"/>
<path d="M251.657 800.949C251.811 819.191 237.486 834.104 219.66 834.251C217.495 834.27 215.332 834.07 213.206 833.656C198.465 830.715 187.26 817.485 187.126 801.493C187.039 791.182 190.965 787.566 197.576 786.356C202.695 785.396 209.415 785.886 217.168 785.819C234.981 785.672 251.51 782.705 251.657 800.949Z" fill="#13133A"/>
<path d="M237 801.487C237.128 816.826 227.02 829.812 213.213 833.656C198.472 830.715 187.266 817.485 187.132 801.493C187.046 791.182 190.972 787.566 197.582 786.356C199.182 786.356 200.804 786.382 202.503 786.356C220.323 786.219 236.846 783.239 237 801.487Z" fill="#1877C2"/>
<path d="M1123.05 403.03C1123.12 410.73 1121.67 418.368 1118.78 425.507C1115.89 432.647 1111.63 439.147 1106.23 444.638C1100.83 450.129 1094.41 454.502 1087.32 457.509C1080.23 460.516 1072.62 462.096 1064.92 462.161C1032.58 462.433 1006.11 436.408 1005.84 404.019C1005.57 371.895 1031.2 345.608 1063.22 344.94H1063.93C1095.39 344.674 1121.31 369.261 1122.94 400.342C1123.04 401.219 1123.04 402.102 1123.05 403.03Z" fill="#1877C2"/>
<path d="M1122.94 400.348L1064.42 403.548L1063.22 344.962H1063.93C1095.39 344.664 1121.31 369.242 1122.94 400.348Z" fill="#13133A"/>
<path d="M959.643 306.42L793.741 307.81L794.14 355.454L960.042 354.064L959.643 306.42Z" fill="#1877C2"/>
<path opacity="0.26" d="M961.029 373.771L795.127 375.161L795.526 422.804L961.429 421.414L961.029 373.771Z" fill="url(#paint18_linear)"/>
<path opacity="0.09" d="M958.766 446.49L792.863 447.88L793.262 495.524L959.165 494.133L958.766 446.49Z" fill="url(#paint19_linear)"/>
<path d="M460.242 300.563L245.445 302.711L246.215 379.724L461.012 377.576L460.242 300.563Z" fill="url(#paint20_linear)"/>
<path d="M282.34 366.339C296.143 366.339 307.333 355.148 307.333 341.342C307.333 327.537 296.143 316.346 282.34 316.346C268.536 316.346 257.347 327.537 257.347 341.342C257.347 355.148 268.536 366.339 282.34 366.339Z" fill="white"/>
<path d="M412.729 335.032L313.6 336.538L313.711 343.837L412.84 342.331L412.729 335.032Z" fill="white"/>
<path d="M458.597 401.045L243.8 403.193L244.57 480.207L459.367 478.058L458.597 401.045Z" fill="url(#paint21_linear)"/>
<path d="M280.253 466.811C294.057 466.811 305.246 455.619 305.246 441.814C305.246 428.008 294.057 416.817 280.253 416.817C266.45 416.817 255.26 428.008 255.26 441.814C255.26 455.619 266.45 466.811 280.253 466.811Z" fill="white"/>
<path d="M410.648 435.504L311.52 437.01L311.631 444.309L410.759 442.803L410.648 435.504Z" fill="white"/>
<path d="M216.882 304.046L2.08832 305.246L2.51837 382.258L217.312 381.058L216.882 304.046Z" fill="url(#paint22_linear)"/>
<path d="M40.326 367.805C54.1292 367.805 65.319 356.614 65.319 342.808C65.319 329.003 54.1292 317.811 40.326 317.811C26.5228 317.811 15.333 329.003 15.333 342.808C15.333 356.614 26.5228 367.805 40.326 367.805Z" fill="white"/>
<path d="M170.714 336.506L71.5859 338.011L71.6967 345.31L170.825 343.804L170.714 336.506Z" fill="white"/>
<path d="M214.793 404.517L0 405.717L0.430053 482.729L215.223 481.529L214.793 404.517Z" fill="url(#paint23_linear)"/>
<path d="M38.2398 468.276C52.043 468.276 63.2327 457.085 63.2327 443.279C63.2327 429.474 52.043 418.282 38.2398 418.282C24.4365 418.282 13.2468 429.474 13.2468 443.279C13.2468 457.085 24.4365 468.276 38.2398 468.276Z" fill="white"/>
<path d="M168.631 436.978L69.5022 438.483L69.613 445.782L168.741 444.277L168.631 436.978Z" fill="white"/>
<path d="M728.236 372.449C728.236 372.449 730.552 361.043 730.475 350.78C730.399 340.517 739.713 350.7 740.788 356.86C741.863 363.021 739.886 371.242 739.886 371.242L728.236 372.449Z" fill="url(#paint24_linear)"/>
<path d="M555.038 403.677C555.038 403.677 552.335 392.316 552.248 382.049C552.162 371.783 542.265 382.133 541.209 388.303C540.153 394.473 542.438 402.665 542.438 402.665L555.038 403.677Z" fill="url(#paint25_linear)"/>
<path d="M706.398 600.951L685.529 804.386L658.844 804.61L656.988 583.913L706.398 600.951Z" fill="#13133A"/>
<path d="M626.197 584.173L573.616 800.194L596.238 805.135L666.648 634.134L700.293 607.16L626.197 584.173Z" fill="#13133A"/>
<path d="M640.608 467.025L593.163 439.705L553.781 394.87L540.518 404.221L573.811 457.322L624.472 501.037L640.608 467.025Z" fill="#1877C2"/>
<path d="M578.732 798.098L573.747 815.59L588.133 817.523L596.196 800.005L578.732 798.098Z" fill="url(#paint26_linear)"/>
<path d="M681.597 804.418L679.475 816.755L664.081 816.883L663.976 804.566L681.597 804.418Z" fill="url(#paint27_linear)"/>
<path d="M657.007 830.289L657.052 835.409L712.474 834.942L711.866 831.179C711.411 828.374 710.104 825.777 708.122 823.74C706.14 821.704 703.58 820.326 700.789 819.796L684.608 816.698L680.467 812.627C680.467 812.627 669.22 817.853 664.046 812.765C662.555 813.077 661.2 813.851 660.172 814.976C659.144 816.101 658.496 817.52 658.319 819.034L657.007 830.289Z" fill="#13133A"/>
<path d="M565.22 828.673L564.826 833.793L620.085 838.059L619.801 834.26C619.59 831.426 618.51 828.725 616.709 826.526C614.907 824.327 612.472 822.736 609.734 821.972L593.877 817.491L590.101 813.081C590.101 813.081 578.448 817.331 573.728 811.817C572.215 812.002 570.799 812.658 569.678 813.691C568.558 814.725 567.791 816.085 567.485 817.578L565.22 828.673Z" fill="#13133A"/>
<path d="M662.488 444.768L674.967 463.143L675.018 469.489C675.031 470.962 674.686 472.417 674.014 473.728C673.341 475.039 672.361 476.167 671.158 477.016C669.954 477.866 668.562 478.411 667.102 478.605C665.642 478.799 664.156 478.636 662.773 478.13L650.419 473.614L649.161 445.907L662.488 444.768Z" fill="url(#paint28_linear)"/>
<path d="M656.252 455.088C667.022 455.088 675.754 446.355 675.754 435.583C675.754 424.81 667.022 416.077 656.252 416.077C645.481 416.077 636.75 424.81 636.75 435.583C636.75 446.355 645.481 455.088 656.252 455.088Z" fill="url(#paint29_linear)"/>
<path d="M683.712 405.581C683.712 405.581 685.852 415.821 672.551 421.073C659.25 426.325 660.296 428.363 651.113 433.573C641.93 438.783 643.971 438.764 643.971 438.764L649.305 454.102C649.305 454.102 636.865 448.064 632.638 433.727C628.411 419.39 636.621 419.326 636.621 419.326C636.621 419.326 637.556 408.026 645.737 404.877C653.919 401.728 666.267 404.704 672.337 394.386C678.407 384.069 683.712 405.581 683.712 405.581Z" fill="url(#paint30_linear)"/>
<path opacity="0.28" d="M624.472 501.037L631.492 497.776L627.105 525.541L624.472 501.037Z" fill="url(#paint31_linear)"/>
<path opacity="0.28" d="M704.939 483.266L692.293 470.414C692.293 470.414 699.409 474.36 704.311 471.236C709.213 468.113 718.982 457.866 718.982 457.866L704.939 483.266Z" fill="url(#paint32_linear)"/>
<path d="M453.937 260.482L442.286 272.331L454.134 283.984L465.784 272.134L453.937 260.482Z" fill="#1877C2"/>
<path d="M1123.53 583.484L1111.88 595.334L1123.73 606.986L1135.38 595.137L1123.53 583.484Z" fill="#1877C2"/>
<path d="M1106.57 663.647C1106.57 663.647 1114.85 642.404 1088.65 632.035C1062.44 621.666 1046.51 655.682 1028.79 646.657C1028.79 646.657 1038.23 678.339 1060.05 671.801C1081.87 665.263 1091.59 645.422 1106.57 663.647Z" fill="#1877C2"/>
<path d="M1123.37 687.351C1123.37 687.351 1116.49 671.161 1137.22 662.86C1157.96 654.558 1171.11 680.461 1185.11 673.289C1185.11 673.289 1178 697.726 1160.53 692.996C1143.06 688.266 1135.06 673.171 1123.37 687.351Z" fill="#13133A"/>
<path d="M1100.05 727.927C1100.05 727.927 1108.34 706.684 1082.13 696.318C1055.92 685.953 1039.99 719.965 1022.27 710.937C1022.27 710.937 1031.71 742.619 1053.53 736.081C1075.35 729.543 1085.08 709.701 1100.05 727.927Z" fill="#13133A"/>
<path d="M1100.05 727.927L1100.57 790.03" stroke="url(#paint33_linear)" stroke-miterlimit="10"/>
<path d="M1122.71 738.798C1122.71 738.798 1115.84 722.659 1136.52 714.383C1157.19 706.108 1170.3 731.917 1184.25 724.781C1184.25 724.781 1177.17 749.141 1159.75 744.427C1142.33 739.713 1134.36 724.663 1122.71 738.798Z" fill="#1877C2"/>
<path d="M1122.71 738.798L1123.11 786.312" stroke="url(#paint34_linear)" stroke-miterlimit="10"/>
<path d="M1124.54 684.093C1124.54 684.093 1113.44 715.603 1113.16 747.56C1112.89 779.517 1112.41 787.108 1112.41 787.108" stroke="url(#paint35_linear)" stroke-miterlimit="10"/>
<path d="M1106.27 660.12L1106.44 785.041" stroke="url(#paint36_linear)" stroke-miterlimit="10"/>
<path d="M1152.12 793.925C1152.31 816.967 1134.22 835.797 1111.72 835.985C1108.98 836.01 1106.25 835.758 1103.56 835.233C1084.94 831.518 1070.79 814.806 1070.61 794.61C1070.5 781.588 1075.44 777.009 1083.8 775.492C1090.26 774.298 1098.75 774.896 1108.55 774.813C1131.06 774.624 1151.93 770.877 1152.12 793.925Z" fill="#13133A"/>
<path d="M1133.6 794.616C1133.77 813.99 1121 830.392 1103.56 835.259C1084.94 831.544 1070.79 814.832 1070.61 794.635C1070.5 781.614 1075.44 777.034 1083.8 775.517C1085.81 775.533 1087.88 775.549 1090.02 775.517C1112.55 775.316 1133.41 771.552 1133.6 794.616Z" fill="#1877C2"/>
<path d="M269.934 25.7298H180.089V31.6214H269.934V25.7298Z" fill="white"/>
<path d="M858.605 798.162L858.736 813.558L851.521 826.618L854.759 828.99L866.978 817.594L869.893 798.066L858.605 798.162Z" fill="url(#paint37_linear)"/>
<path d="M900.198 795.653L905.916 810.297L903.996 825.658L907.573 825.834L914.939 810.835L910.716 791.547L900.198 795.653Z" fill="url(#paint38_linear)"/>
<path d="M865.501 461.426C876.554 461.333 885.415 449.309 885.291 434.569C885.168 419.83 876.107 407.956 865.054 408.048C854.001 408.141 845.141 420.165 845.264 434.905C845.388 449.645 854.448 461.519 865.501 461.426Z" fill="url(#paint39_linear)"/>
<path d="M891.514 561.774C891.514 561.774 900.931 583.254 887.393 681.917L917.054 791.509L898.633 797.816L854.74 704.77L843.595 568.507L891.514 561.774Z" fill="#1877C2"/>
<path d="M837.179 569.416C837.179 569.416 833.289 595.114 833.426 611.538C833.564 627.961 852.48 802.319 852.48 802.319L874.034 802.137L872.962 674.851L891.52 561.774L837.179 569.416Z" fill="#1877C2"/>
<path d="M872.962 463.713C875.023 464.721 895.229 484.607 903.545 496.854C911.861 509.102 886.433 537.036 886.433 537.036L872.962 463.713Z" fill="url(#paint40_linear)"/>
<path d="M852.682 460.471L832.226 468.856C832.226 468.856 818.9 471.022 829.484 508.916C840.069 546.81 835.065 562.251 833.116 574.585C833.116 574.585 876.239 576.274 896.672 564.811C896.672 564.811 890.349 545.36 891.261 532.006C892.173 518.651 898.813 454.951 852.682 460.471Z" fill="url(#paint41_linear)"/>
<path d="M832.578 509.911C832.578 509.911 789.853 554.423 777.358 535.027C764.863 515.63 770.728 476.555 770.728 476.555L770.184 476.085L763.925 470.593C757.123 464.628 761.327 458.17 766.45 457.082C770.085 456.339 773.227 462.253 774.785 465.793C777.63 464.628 784.855 462.474 779.93 473.413C779.93 473.413 780.007 473.857 780.154 474.651C781.466 481.455 787.872 513.991 791.536 510.257C795.593 506.125 830.204 469.899 830.204 469.899C844.664 484.153 832.578 509.911 832.578 509.911Z" fill="url(#paint42_linear)"/>
<path d="M864.476 451.488L882.184 453.312C882.184 453.312 890.503 440.55 889.997 429.608C889.492 418.666 887.118 414.503 879.579 410.333C872.04 406.163 847.547 379.339 836.869 384.549C826.192 389.759 824.371 414.503 842.341 422.311C860.31 430.12 867.078 428.565 863.174 434.556C859.27 440.546 864.476 451.488 864.476 451.488Z" fill="url(#paint43_linear)"/>
<path d="M864.604 442.633C868.704 442.633 872.028 439.309 872.028 435.208C872.028 431.108 868.704 427.784 864.604 427.784C860.505 427.784 857.181 431.108 857.181 435.208C857.181 439.309 860.505 442.633 864.604 442.633Z" fill="url(#paint44_linear)"/>
<path d="M922.721 814.822L924.228 817.872L896.656 831.518L895.834 829.137C894.816 826.167 895.194 823.082 896.72 820.919C897.064 820.434 897.469 819.996 897.926 819.616L905.01 813.718L905.849 810.268C905.849 810.268 912.971 810.537 914.018 806.226C914.888 806.035 915.797 806.148 916.593 806.546C917.469 806.982 918.206 807.654 918.721 808.486L922.721 814.822Z" fill="#13133A"/>
<path d="M872.943 823.569L873.314 826.951L842.731 830.302L842.776 827.786C842.84 824.644 844.244 821.876 846.43 820.372C846.918 820.033 847.448 819.761 848.007 819.562L856.688 816.455L858.659 813.501C858.659 813.501 865.257 816.198 867.721 812.505C868.602 812.631 869.414 813.055 870.021 813.706C870.697 814.417 871.16 815.304 871.356 816.266L872.943 823.569Z" fill="#13133A"/>
<defs>
<linearGradient id="paint0_linear" x1="614.433" y1="-8.96928" x2="474.908" y2="149.596" gradientUnits="userSpaceOnUse">
<stop stop-color="#24246B"/>
<stop offset="1" stop-color="#13133A"/>
</linearGradient>
<linearGradient id="paint1_linear" x1="1222.75" y1="123.759" x2="1013.33" y2="361.768" gradientUnits="userSpaceOnUse">
<stop stop-color="#4ECBDF" stop-opacity="0"/>
<stop offset="1" stop-color="#39ABD4" stop-opacity="0.38"/>
</linearGradient>
<linearGradient id="paint2_linear" x1="1.7788e+06" y1="486790" x2="1.96312e+06" y2="1.92734e+06" gradientUnits="userSpaceOnUse">
<stop stop-color="#4ECBDF" stop-opacity="0"/>
<stop offset="1" stop-color="#39ABD4" stop-opacity="0.38"/>
</linearGradient>
<linearGradient id="paint3_linear" x1="457.862" y1="608.771" x2="428.617" y2="573.346" gradientUnits="userSpaceOnUse">
<stop stop-color="#F9B4BF"/>
<stop offset="1" stop-color="#FCD2D7"/>
</linearGradient>
<linearGradient id="paint4_linear" x1="11202.6" y1="38070.8" x2="11608.1" y2="38070.8" gradientUnits="userSpaceOnUse">
<stop stop-color="#F9B4BF"/>
<stop offset="1" stop-color="#FCD2D7"/>
</linearGradient>
<linearGradient id="paint5_linear" x1="19767" y1="120310" x2="21069.8" y2="120300" gradientUnits="userSpaceOnUse">
<stop stop-color="#24246B"/>
<stop offset="1" stop-color="#13133A"/>
</linearGradient>
<linearGradient id="paint6_linear" x1="22528.8" y1="27950.5" x2="23229.9" y2="27950.5" gradientUnits="userSpaceOnUse">
<stop stop-color="#F9B4BF"/>
<stop offset="1" stop-color="#FCD2D7"/>
</linearGradient>
<linearGradient id="paint7_linear" x1="69409.3" y1="50524.1" x2="76350.6" y2="50466" gradientUnits="userSpaceOnUse">
<stop stop-color="#24246B"/>
<stop offset="1" stop-color="#13133A"/>
</linearGradient>
<linearGradient id="paint8_linear" x1="28426.5" y1="30956.6" x2="29373.4" y2="30956.6" gradientUnits="userSpaceOnUse">
<stop stop-color="#F9B4BF"/>
<stop offset="1" stop-color="#FCD2D7"/>
</linearGradient>
<linearGradient id="paint9_linear" x1="-51867.8" y1="79506.3" x2="-56911.3" y2="73887.4" gradientUnits="userSpaceOnUse">
<stop stop-color="#F9B4BF"/>
<stop offset="1" stop-color="#FCD2D7"/>
</linearGradient>
<linearGradient id="paint10_linear" x1="-68891.8" y1="123613" x2="-77334.2" y2="115751" gradientUnits="userSpaceOnUse">
<stop stop-color="#24246B"/>
<stop offset="1" stop-color="#13133A"/>
</linearGradient>
<linearGradient id="paint11_linear" x1="112835" y1="124144" x2="129059" y2="124009" gradientUnits="userSpaceOnUse">
<stop stop-color="#24246B"/>
<stop offset="1" stop-color="#13133A"/>
</linearGradient>
<linearGradient id="paint12_linear" x1="513.472" y1="593.906" x2="551.333" y2="593.589" gradientUnits="userSpaceOnUse">
<stop stop-color="#4ECBDF"/>
<stop offset="1" stop-color="#1877C2"/>
</linearGradient>
<linearGradient id="paint13_linear" x1="35383.2" y1="33296.5" x2="32972.9" y2="35455" gradientUnits="userSpaceOnUse">
<stop stop-color="#4ECBDF"/>
<stop offset="1" stop-color="#1877C2"/>
</linearGradient>
<linearGradient id="paint14_linear" x1="471.097" y1="115998" x2="750.321" y2="116009" gradientUnits="userSpaceOnUse">
<stop stop-color="#4ECBDF"/>
<stop offset="1" stop-color="#1877C2"/>
</linearGradient>
<linearGradient id="paint15_linear" x1="890.072" y1="89925.7" x2="719.575" y2="89933.9" gradientUnits="userSpaceOnUse">
<stop stop-color="#4ECBDF"/>
<stop offset="1" stop-color="#1877C2"/>
</linearGradient>
<linearGradient id="paint16_linear" x1="6622.92" y1="183547" x2="14877.9" y2="187827" gradientUnits="userSpaceOnUse">
<stop stop-color="#4ECBDF"/>
<stop offset="1" stop-color="#1877C2"/>
</linearGradient>
<linearGradient id="paint17_linear" x1="300.073" y1="216344" x2="482.741" y2="216345" gradientUnits="userSpaceOnUse">
<stop stop-color="#4ECBDF"/>
<stop offset="1" stop-color="#1877C2"/>
</linearGradient>
<linearGradient id="paint18_linear" x1="495305" y1="43948.2" x2="490932" y2="61577.8" gradientUnits="userSpaceOnUse">
<stop stop-color="#4ECBDF"/>
<stop offset="1" stop-color="#1877C2"/>
</linearGradient>
<linearGradient id="paint19_linear" x1="493905" y1="54855.9" x2="489532" y2="72485.7" gradientUnits="userSpaceOnUse">
<stop stop-color="#4ECBDF"/>
<stop offset="1" stop-color="#1877C2"/>
</linearGradient>
<linearGradient id="paint20_linear" x1="155350" y1="83038.6" x2="299541" y2="81597" gradientUnits="userSpaceOnUse">
<stop stop-color="#4ECBDF"/>
<stop offset="1" stop-color="#1877C2"/>
</linearGradient>
<linearGradient id="paint21_linear" x1="153812" y1="107331" x2="298003" y2="105890" gradientUnits="userSpaceOnUse">
<stop stop-color="#24246B"/>
<stop offset="1" stop-color="#13133A"/>
</linearGradient>
<linearGradient id="paint22_linear" x1="-7732.74" y1="84655.3" x2="136456" y2="83850.2" gradientUnits="userSpaceOnUse">
<stop stop-color="#4ECBDF"/>
<stop offset="1" stop-color="#1877C2"/>
</linearGradient>
<linearGradient id="paint23_linear" x1="-9377.75" y1="108941" x2="134811" y2="108135" gradientUnits="userSpaceOnUse">
<stop stop-color="#24246B"/>
<stop offset="1" stop-color="#13133A"/>
</linearGradient>
<linearGradient id="paint24_linear" x1="11773.8" y1="31386.8" x2="10215.7" y2="30483.6" gradientUnits="userSpaceOnUse">
<stop stop-color="#F9B4BF"/>
<stop offset="1" stop-color="#FCD2D7"/>
</linearGradient>
<linearGradient id="paint25_linear" x1="45993.7" y1="33432.6" x2="47638.7" y2="32250.4" gradientUnits="userSpaceOnUse">
<stop stop-color="#F9B4BF"/>
<stop offset="1" stop-color="#FCD2D7"/>
</linearGradient>
<linearGradient id="paint26_linear" x1="10013.9" y1="49945.6" x2="8429.64" y2="49961.4" gradientUnits="userSpaceOnUse">
<stop stop-color="#F9B4BF"/>
<stop offset="1" stop-color="#FCD2D7"/>
</linearGradient>
<linearGradient id="paint27_linear" x1="12377.1" y1="32422.8" x2="11406.7" y2="32432.5" gradientUnits="userSpaceOnUse">
<stop stop-color="#F9B4BF"/>
<stop offset="1" stop-color="#FCD2D7"/>
</linearGradient>
<linearGradient id="paint28_linear" x1="14880.7" y1="43526.3" x2="17260.9" y2="48024.7" gradientUnits="userSpaceOnUse">
<stop stop-color="#F9B4BF"/>
<stop offset="1" stop-color="#FCD2D7"/>
</linearGradient>
<linearGradient id="paint29_linear" x1="27577.2" y1="57041.1" x2="23311.4" y2="52025.8" gradientUnits="userSpaceOnUse">
<stop stop-color="#F9B4BF"/>
<stop offset="1" stop-color="#FCD2D7"/>
</linearGradient>
<linearGradient id="paint30_linear" x1="37821.2" y1="88261" x2="30622.1" y2="81162" gradientUnits="userSpaceOnUse">
<stop stop-color="#24246B"/>
<stop offset="1" stop-color="#13133A"/>
</linearGradient>
<linearGradient id="paint31_linear" x1="14679.2" y1="45098.3" x2="14833.8" y2="45097" gradientUnits="userSpaceOnUse">
<stop stop-color="#24246B"/>
<stop offset="1" stop-color="#13133A"/>
</linearGradient>
<linearGradient id="paint32_linear" x1="58690.6" y1="37674.1" x2="60925.7" y2="37655.4" gradientUnits="userSpaceOnUse">
<stop stop-color="#24246B"/>
<stop offset="1" stop-color="#13133A"/>
</linearGradient>
<linearGradient id="paint33_linear" x1="2888.28" y1="143781" x2="3336.62" y2="143798" gradientUnits="userSpaceOnUse">
<stop stop-color="#4ECBDF"/>
<stop offset="1" stop-color="#1877C2"/>
</linearGradient>
<linearGradient id="paint34_linear" x1="1229.03" y1="111776" x2="957.211" y2="111789" gradientUnits="userSpaceOnUse">
<stop stop-color="#4ECBDF"/>
<stop offset="1" stop-color="#1877C2"/>
</linearGradient>
<linearGradient id="paint35_linear" x1="42990.9" y1="224693" x2="56155.2" y2="231517" gradientUnits="userSpaceOnUse">
<stop stop-color="#4ECBDF"/>
<stop offset="1" stop-color="#1877C2"/>
</linearGradient>
<linearGradient id="paint36_linear" x1="1682.78" y1="262603" x2="1973.33" y2="262604" gradientUnits="userSpaceOnUse">
<stop stop-color="#4ECBDF"/>
<stop offset="1" stop-color="#1877C2"/>
</linearGradient>
<linearGradient id="paint37_linear" x1="49532.7" y1="79964.2" x2="50601.5" y2="79964.2" gradientUnits="userSpaceOnUse">
<stop stop-color="#F9B4BF"/>
<stop offset="1" stop-color="#FCD2D7"/>
</linearGradient>
<linearGradient id="paint38_linear" x1="42212.4" y1="88092.2" x2="42885.6" y2="88092.2" gradientUnits="userSpaceOnUse">
<stop stop-color="#F9B4BF"/>
<stop offset="1" stop-color="#FCD2D7"/>
</linearGradient>
<linearGradient id="paint39_linear" x1="107149" y1="72986.7" x2="112157" y2="72944.8" gradientUnits="userSpaceOnUse">
<stop stop-color="#F9B4BF"/>
<stop offset="1" stop-color="#FCD2D7"/>
</linearGradient>
<linearGradient id="paint40_linear" x1="89771.1" y1="115715" x2="92989" y2="115688" gradientUnits="userSpaceOnUse">
<stop stop-color="#24246B"/>
<stop offset="1" stop-color="#13133A"/>
</linearGradient>
<linearGradient id="paint41_linear" x1="186056" y1="186113" x2="201780" y2="185981" gradientUnits="userSpaceOnUse">
<stop stop-color="#24246B"/>
<stop offset="1" stop-color="#13133A"/>
</linearGradient>
<linearGradient id="paint42_linear" x1="183562" y1="129588" x2="202057" y2="129588" gradientUnits="userSpaceOnUse">
<stop stop-color="#24246B"/>
<stop offset="1" stop-color="#13133A"/>
</linearGradient>
<linearGradient id="paint43_linear" x1="159355" y1="91201.9" x2="171061" y2="91201.9" gradientUnits="userSpaceOnUse">
<stop stop-color="#24246B"/>
<stop offset="1" stop-color="#13133A"/>
</linearGradient>
<linearGradient id="paint44_linear" x1="40629.6" y1="20621.6" x2="41318.4" y2="20621.6" gradientUnits="userSpaceOnUse">
<stop stop-color="#F9B4BF"/>
<stop offset="1" stop-color="#FCD2D7"/>
</linearGradient>
</defs>
</svg>
