<svg width="1280" height="600" viewBox="0 0 1280 600" fill="none" xmlns="http://www.w3.org/2000/svg">
<path fill-rule="evenodd" clip-rule="evenodd" d="M975.974 144.488C1007.5 137 1048 122.677 1130 169.5C1186.58 201.811 1316.48 69.9281 1346.5 118.5C1378.38 170.073 1368.44 444.083 1360.48 501.678C1351.43 567.178 1339.82 644.787 1266.78 683.033C1193.94 721.174 1098.61 685.595 1011.47 684.433C936.332 683.432 28.8078 704.73 -39.5 683.034C-115.095 659.022 -39.5 624.5 41 613.5C103.324 604.984 274.5 540.5 362.5 540.5C423 540.5 573.672 566.276 633.5 510C691.356 455.578 887.882 165.41 975.974 144.488Z" fill="#F2F9FF"/>
<path fill-rule="evenodd" clip-rule="evenodd" d="M1303 16.5C1286 -63.6135 1355.28 71.3552 1412.92 120.883C1466.01 166.499 1445.34 281.477 1462.41 347.454C1478.51 409.691 1474.06 474.38 1451.22 534.693C1428.92 593.582 1384.18 638.929 1335.9 681.577C1280.78 730.257 1227.54 807.951 1152.93 798.156C1076.56 788.13 139.819 653.976 69.0001 629.5C8.62738 608.634 160 592.307 356.5 562.5C553 532.693 522 598 689 534.693C856 471.385 850.464 458.675 861.347 406.873C874.28 345.309 1049.78 363.721 1089.5 313.5C1135.58 255.245 1320.4 98.5 1303 16.5Z" fill="#54ACFF"/>
<path fill-rule="evenodd" clip-rule="evenodd" d="M950.5 629C887.793 609.963 813.71 580.812 768.664 539.444C721.85 496.453 700.753 471.773 685.616 418.5C669.641 362.277 654.751 294.294 685.616 247.167C718.318 197.235 724.407 204.897 796 194.5C866.499 184.262 1094.85 141.707 1165.5 166.5C1227.24 188.168 1221.46 189.823 1272 227C1328.88 268.84 1308.77 308.24 1312.5 366C1316.19 423.254 1275.84 509.662 1233.16 551.046C1195.91 587.166 1140.71 587.246 1085 604.5C1026.75 622.542 1014.35 648.384 950.5 629Z" fill="#E2F1FF"/>
<path d="M799.723 547.393C852.962 547.393 896.12 527.926 896.12 503.912C896.12 479.898 852.962 460.431 799.723 460.431C746.485 460.431 703.327 479.898 703.327 503.912C703.327 527.926 746.485 547.393 799.723 547.393Z" fill="#DAEBFF"/>
<path d="M760.297 566.813C776.841 566.813 790.253 560.763 790.253 553.3C790.253 545.837 776.841 539.788 760.297 539.788C743.753 539.788 730.341 545.837 730.341 553.3C730.341 560.763 743.753 566.813 760.297 566.813Z" fill="#DAEBFF"/>
<path d="M974.991 507.304C1021.06 507.304 1058.4 501.254 1058.4 493.791C1058.4 486.328 1021.06 480.278 974.991 480.278C928.923 480.278 891.577 486.328 891.577 493.791C891.577 501.254 928.923 507.304 974.991 507.304Z" fill="#DAEBFF"/>
<path d="M1224.65 464.745H678.436V468.221H1224.65V464.745Z" fill="#D3E2F9"/>
<path d="M744.885 464.015C744.885 464.015 738.578 477.202 727.358 482.089C716.139 486.976 700.405 480.816 691.586 473.543C682.766 466.27 674.202 455.922 673.351 448.21C672.5 440.498 687.295 443.535 687.295 443.535C687.295 443.535 680.757 434.161 678.036 427.467C675.316 420.773 678.502 413.787 687.442 417.937L696.382 422.094C696.382 422.094 689.527 407.53 689.65 398.426C689.772 389.323 694.884 375.681 704.518 385.318C714.152 394.956 715.133 415.166 715.133 415.166C715.133 415.166 717.276 406.554 720.327 400.253C723.378 393.953 729.715 394.769 732.637 403.551C735.559 412.333 736.679 424.901 736.679 424.901C736.679 424.901 739.472 415.202 744.033 416.743C748.593 418.284 751.251 429.652 750.484 440.809C749.718 451.966 744.885 464.015 744.885 464.015Z" fill="#00B77B"/>
<path d="M742.888 440.42C742.888 440.42 742.555 392.424 707.519 375.33C707.519 375.33 691.483 415.641 715.831 450.204C740.179 484.766 735.193 476.733 735.193 476.733L742.888 440.42Z" fill="#00D967"/>
<path d="M716.167 397.781L736.1 469.06" stroke="white" stroke-width="2" stroke-linecap="round" stroke-linejoin="round"/>
<path d="M1011.7 431.137H938.29V475.179H1011.7V431.137Z" fill="#1E2889"/>
<path d="M1047.31 474.758H902.679V493.852H1047.31V474.758Z" fill="#0542BF"/>
<path d="M1129.87 201.274H820.115C811.156 201.274 803.894 208.533 803.894 217.486V418.637C803.894 427.59 811.156 434.848 820.115 434.848H1129.87C1138.83 434.848 1146.09 427.59 1146.09 418.637V217.486C1146.09 208.533 1138.83 201.274 1129.87 201.274Z" fill="#006DFE"/>
<path d="M1119.72 210.43H830.271C821.96 210.43 815.223 217.163 815.223 225.469V410.655C815.223 418.961 821.96 425.694 830.271 425.694H1119.72C1128.03 425.694 1134.77 418.961 1134.77 410.655V225.469C1134.77 217.163 1128.03 210.43 1119.72 210.43Z" fill="url(#paint0_linear)"/>
<path d="M928.04 226.338H833.164C831.089 226.338 829.407 228.018 829.407 230.091C829.407 232.164 831.089 233.845 833.164 233.845H928.04C930.115 233.845 931.797 232.164 931.797 230.091C931.797 228.018 930.115 226.338 928.04 226.338Z" fill="white"/>
<path d="M928.04 242.634H833.164C831.089 242.634 829.407 244.314 829.407 246.387C829.407 248.46 831.089 250.141 833.164 250.141H928.04C930.115 250.141 931.797 248.46 931.797 246.387C931.797 244.314 930.115 242.634 928.04 242.634Z" fill="white"/>
<path d="M928.04 258.93H833.164C831.089 258.93 829.407 260.61 829.407 262.683C829.407 264.756 831.089 266.437 833.164 266.437H928.04C930.115 266.437 931.797 264.756 931.797 262.683C931.797 260.61 930.115 258.93 928.04 258.93Z" fill="white"/>
<path d="M928.04 275.226H833.164C831.089 275.226 829.407 276.906 829.407 278.979C829.407 281.052 831.089 282.733 833.164 282.733H928.04C930.115 282.733 931.797 281.052 931.797 278.979C931.797 276.906 930.115 275.226 928.04 275.226Z" fill="white"/>
<path d="M928.04 291.522H833.164C831.089 291.522 829.407 293.202 829.407 295.275C829.407 297.348 831.089 299.029 833.164 299.029H928.04C930.115 299.029 931.797 297.348 931.797 295.275C931.797 293.202 930.115 291.522 928.04 291.522Z" fill="white"/>
<path d="M928.04 325.349H833.164C831.089 325.349 829.407 327.029 829.407 329.102C829.407 331.175 831.089 332.856 833.164 332.856H928.04C930.115 332.856 931.797 331.175 931.797 329.102C931.797 327.029 930.115 325.349 928.04 325.349Z" fill="white"/>
<path d="M928.04 341.645H833.164C831.089 341.645 829.407 343.325 829.407 345.398C829.407 347.471 831.089 349.152 833.164 349.152H928.04C930.115 349.152 931.797 347.471 931.797 345.398C931.797 343.325 930.115 341.645 928.04 341.645Z" fill="#00D967"/>
<path d="M928.04 357.941H833.164C831.089 357.941 829.407 359.621 829.407 361.694C829.407 363.767 831.089 365.448 833.164 365.448H928.04C930.115 365.448 931.797 363.767 931.797 361.694C931.797 359.621 930.115 357.941 928.04 357.941Z" fill="white"/>
<path d="M928.04 374.237H833.164C831.089 374.237 829.407 375.917 829.407 377.99C829.407 380.063 831.089 381.744 833.164 381.744H928.04C930.115 381.744 931.797 380.063 931.797 377.99C931.797 375.917 930.115 374.237 928.04 374.237Z" fill="white"/>
<path d="M928.04 390.533H833.164C831.089 390.533 829.407 392.213 829.407 394.286C829.407 396.359 831.089 398.04 833.164 398.04H928.04C930.115 398.04 931.797 396.359 931.797 394.286C931.797 392.213 930.115 390.533 928.04 390.533Z" fill="white"/>
<path d="M1110.02 325.349H952.332C950.258 325.349 948.576 327.029 948.576 329.102C948.576 331.175 950.258 332.856 952.332 332.856H1110.02C1112.1 332.856 1113.78 331.175 1113.78 329.102C1113.78 327.029 1112.1 325.349 1110.02 325.349Z" fill="white"/>
<path d="M1110.02 341.645H952.332C950.258 341.645 948.576 343.325 948.576 345.398C948.576 347.471 950.258 349.152 952.332 349.152H1110.02C1112.1 349.152 1113.78 347.471 1113.78 345.398C1113.78 343.325 1112.1 341.645 1110.02 341.645Z" fill="white"/>
<path d="M1110.02 357.941H952.332C950.258 357.941 948.576 359.621 948.576 361.694C948.576 363.767 950.258 365.448 952.332 365.448H1110.02C1112.1 365.448 1113.78 363.767 1113.78 361.694C1113.78 359.621 1112.1 357.941 1110.02 357.941Z" fill="white"/>
<path d="M1110.02 374.237H952.332C950.258 374.237 948.576 375.917 948.576 377.99C948.576 380.063 950.258 381.744 952.332 381.744H1110.02C1112.1 381.744 1113.78 380.063 1113.78 377.99C1113.78 375.917 1112.1 374.237 1110.02 374.237Z" fill="white"/>
<path d="M1110.02 390.533H952.332C950.258 390.533 948.576 392.213 948.576 394.286C948.576 396.359 950.258 398.04 952.332 398.04H1110.02C1112.1 398.04 1113.78 396.359 1113.78 394.286C1113.78 392.213 1112.1 390.533 1110.02 390.533Z" fill="white"/>
<path d="M950.045 225.727H1117.26C1118.14 225.727 1118.98 226.076 1119.61 226.698C1120.23 227.32 1120.58 228.164 1120.58 229.044V296.603C1120.58 297.483 1120.23 298.328 1119.61 298.95C1118.98 299.573 1118.14 299.922 1117.26 299.922H950.045C949.165 299.922 948.32 299.573 947.697 298.95C947.074 298.328 946.724 297.483 946.724 296.603V229.044C946.724 228.608 946.81 228.177 946.977 227.774C947.144 227.371 947.389 227.006 947.697 226.698C948.006 226.389 948.372 226.145 948.775 225.979C949.178 225.812 949.609 225.726 950.045 225.727V225.727Z" fill="white"/>
<path d="M1115.92 265.451V293.652C1115.92 294.257 1115.67 294.836 1115.25 295.262C1114.82 295.689 1114.24 295.928 1113.63 295.927H953.038C952.738 295.928 952.441 295.869 952.164 295.755C951.887 295.642 951.635 295.474 951.423 295.263C951.21 295.052 951.042 294.801 950.927 294.524C950.811 294.248 950.752 293.952 950.751 293.652V231.709C965.585 231.709 972.97 237.25 977.299 244.531C977.583 244.996 977.839 245.469 978.089 245.957C985.413 259.811 983.209 278.798 999.319 278.798C999.892 278.802 1000.46 278.73 1001.02 278.586C1001.36 278.515 1001.69 278.406 1002.01 278.263C1012.84 273.701 1011.16 241.336 1030.44 241.568C1034.55 241.618 1037.63 243.197 1040.06 245.714C1040.29 245.967 1040.52 246.219 1040.75 246.492C1049.38 256.614 1049.5 279.172 1062.75 283.267C1067.53 284.743 1071.75 282.742 1075.91 279.435C1076.18 279.223 1076.45 279.011 1076.71 278.779C1085.53 271.468 1094.29 258.969 1107.88 262.033C1108.28 262.125 1108.67 262.226 1109.08 262.337C1111.49 263.066 1113.79 264.114 1115.92 265.451V265.451Z" fill="#DAEBFF"/>
<path d="M1115.93 259.757C1113.05 259.8 1110.84 260.769 1109.07 262.337C1105.79 265.237 1104.03 270.193 1102.31 275.037C1099.73 282.287 1097.07 289.769 1089.29 289.769C1088.87 289.769 1088.44 289.749 1087.99 289.707C1082.92 289.213 1079.19 285.088 1075.9 279.435C1073.86 275.936 1071.99 271.842 1070.09 267.647C1064.7 255.846 1059.13 243.641 1048.87 243.358C1048.74 243.358 1048.63 243.348 1048.52 243.348C1045.41 243.348 1042.87 244.531 1040.73 246.492C1036.39 250.448 1033.63 257.574 1030.93 264.551C1026.93 274.875 1022.8 285.554 1013.47 285.768C1006.78 285.912 1003.73 283.382 1001 278.59C999.948 276.729 998.937 274.524 997.782 272.007C995.679 267.397 993.049 261.663 988.698 254.99C985.775 250.52 982.061 247.679 978.083 245.96C967.339 241.285 954.694 244.702 950.736 245.991V244.928C954.966 243.594 966.783 240.57 977.285 244.534C981.869 246.262 986.199 249.326 989.537 254.444C993.939 261.168 996.579 266.94 998.712 271.583C999.905 274.19 1000.93 276.427 1002 278.266C1004.57 282.704 1007.4 284.899 1013.46 284.757C1022.1 284.556 1025.93 274.667 1029.99 264.191C1032.74 257.083 1035.54 249.822 1040.04 245.717C1042.43 243.544 1045.29 242.247 1048.88 242.35C1059.79 242.643 1065.49 255.141 1071 267.235C1072.88 271.338 1074.7 275.353 1076.7 278.782C1079.85 284.263 1083.39 288.235 1088.09 288.701C1096.1 289.49 1098.65 282.31 1101.35 274.697C1103.03 269.954 1104.75 265.122 1107.87 262.037C1109.85 260.059 1112.41 258.8 1115.9 258.75L1115.93 259.757Z" fill="#00B77B"/>
<path d="M833.659 220.945H723.252C719.663 220.945 716.754 223.853 716.754 227.44V293.354C716.754 296.941 719.663 299.849 723.252 299.849H833.659C837.248 299.849 840.157 296.941 840.157 293.354V227.44C840.157 223.853 837.248 220.945 833.659 220.945Z" fill="#B0D8FF"/>
<path d="M840.165 227.048C840.165 225.364 839.495 223.748 838.303 222.557C837.112 221.366 835.495 220.697 833.81 220.697H725.366C723.681 220.697 722.065 221.366 720.873 222.557C719.681 223.748 719.012 225.364 719.012 227.048V234.303H840.165V227.048Z" fill="#3998FF"/>
<path d="M719.012 234.303V291.212C719.012 292.897 719.681 294.512 720.873 295.703C722.065 296.894 723.681 297.563 725.366 297.563H833.803C835.488 297.563 837.104 296.894 838.296 295.703C839.488 294.512 840.157 292.897 840.157 291.212V234.303H719.012Z" fill="url(#paint1_linear)"/>
<path d="M810.948 230.223C812.31 230.223 813.415 229.12 813.415 227.758C813.415 226.397 812.31 225.293 810.948 225.293C809.586 225.293 808.482 226.397 808.482 227.758C808.482 229.12 809.586 230.223 810.948 230.223Z" fill="white"/>
<path d="M820.91 230.223C822.272 230.223 823.377 229.12 823.377 227.758C823.377 226.397 822.272 225.293 820.91 225.293C819.548 225.293 818.443 226.397 818.443 227.758C818.443 229.12 819.548 230.223 820.91 230.223Z" fill="white"/>
<path d="M830.872 230.223C832.234 230.223 833.339 229.12 833.339 227.758C833.339 226.397 832.234 225.293 830.872 225.293C829.51 225.293 828.405 226.397 828.405 227.758C828.405 229.12 829.51 230.223 830.872 230.223Z" fill="white"/>
<path d="M824.114 243.551H789.965C784.664 243.551 780.366 247.846 780.366 253.144V283.195C780.366 288.493 784.664 292.788 789.965 292.788H824.114C829.415 292.788 833.713 288.493 833.713 283.195V253.144C833.713 247.846 829.415 243.551 824.114 243.551Z" fill="white"/>
<path d="M770.883 263.373C769.794 258.574 767.106 254.287 763.259 251.216C759.412 248.145 754.634 246.472 749.711 246.471V268.168L770.883 263.373Z" fill="#0ACE68"/>
<path d="M749.711 268.168V246.469C745.206 246.466 740.812 247.863 737.136 250.465C733.461 253.068 730.685 256.748 729.195 260.996C727.704 265.245 727.571 269.851 728.815 274.178C730.059 278.505 732.617 282.339 736.137 285.148C739.657 287.958 743.963 289.605 748.46 289.861C752.958 290.117 757.424 288.97 761.24 286.578C765.056 284.186 768.034 280.668 769.762 276.51C771.489 272.353 771.881 267.761 770.883 263.371L749.711 268.168Z" fill="white"/>
<path d="M749.711 285.119C758.876 285.119 766.306 277.693 766.306 268.533C766.306 259.373 758.876 251.948 749.711 251.948C740.545 251.948 733.115 259.373 733.115 268.533C733.115 277.693 740.545 285.119 749.711 285.119Z" fill="#DAEBFF"/>
<path d="M1275.03 344.002H1173.24V479.678H1275.03V344.002Z" fill="#EBF5FF"/>
<path d="M1269.58 349.497H1178.54V381.12H1269.58V349.497Z" fill="#D1E3FF"/>
<path d="M1269.58 386.658H1178.54V418.281H1269.58V386.658Z" fill="#D1E3FF"/>
<path d="M1269.58 424.937H1178.54V456.56H1269.58V424.937Z" fill="#D1E3FF"/>
<path d="M1227.29 356.287C1227.29 358.139 1225.88 359.64 1224.14 359.64C1222.4 359.64 1220.98 358.139 1220.98 356.287C1220.98 354.435 1222.39 352.935 1224.14 352.935C1225.88 352.935 1227.29 354.436 1227.29 356.287Z" fill="#F5FCFF"/>
<path d="M1227.29 393.309C1227.29 395.161 1225.88 396.662 1224.14 396.662C1222.4 396.662 1220.98 395.161 1220.98 393.309C1220.98 391.457 1222.39 389.956 1224.14 389.956C1225.88 389.956 1227.29 391.457 1227.29 393.309Z" fill="#F5FCFF"/>
<path d="M1227.29 431.308C1227.29 433.16 1225.88 434.661 1224.14 434.661C1222.4 434.661 1220.98 433.16 1220.98 431.308C1220.98 429.456 1222.39 427.954 1224.14 427.954C1225.88 427.954 1227.29 429.456 1227.29 431.308Z" fill="#F5FCFF"/>
<path d="M1175.31 344.002H1150.9V479.678H1175.31V344.002Z" fill="#D1E3FF"/>
<path d="M727.77 328.161H690.781V344.506H727.77V328.161Z" fill="#DAEBFF"/>
<path d="M742.726 344.506H705.738V360.85H742.726V344.506Z" fill="#EBF5FF"/>
<path d="M1264.28 283.504H1227.29V299.849H1264.28V283.504Z" fill="#DAEBFF"/>
<path d="M1279.24 299.849H1242.25V316.193H1279.24V299.849Z" fill="#EBF5FF"/>
<path d="M1209.04 224.79H1057.39C1052.46 224.79 1048.46 228.783 1048.46 233.71V324.245C1048.46 329.171 1052.46 333.165 1057.39 333.165H1209.04C1213.97 333.165 1217.96 329.171 1217.96 324.245V233.71C1217.96 228.783 1213.97 224.79 1209.04 224.79Z" fill="#B0D8FF"/>
<path d="M1217.96 233.172C1217.96 232.027 1217.74 230.893 1217.3 229.834C1216.86 228.776 1216.22 227.815 1215.41 227.005C1214.6 226.195 1213.63 225.552 1212.58 225.114C1211.52 224.676 1210.38 224.45 1209.24 224.45H1060.3C1059.15 224.449 1058.01 224.675 1056.95 225.113C1055.9 225.551 1054.93 226.193 1054.12 227.003C1053.31 227.813 1052.67 228.775 1052.23 229.834C1051.79 230.892 1051.56 232.027 1051.56 233.172V243.137H1217.96L1217.96 233.172Z" fill="#3998FF"/>
<path d="M1051.56 243.137V321.309C1051.56 323.622 1052.48 325.842 1054.12 327.478C1055.76 329.114 1057.98 330.033 1060.29 330.033H1209.23C1210.38 330.033 1211.52 329.807 1212.57 329.369C1213.63 328.93 1214.6 328.288 1215.41 327.478C1216.22 326.667 1216.86 325.706 1217.3 324.647C1217.74 323.589 1217.96 322.454 1217.96 321.309V243.137H1051.56Z" fill="url(#paint2_linear)"/>
<path d="M1117.66 251.883H1087.37C1087.06 251.871 1086.77 251.737 1086.56 251.511C1086.35 251.286 1086.24 250.986 1086.25 250.678C1086.25 250.526 1086.27 250.374 1086.32 250.231C1086.38 250.088 1086.46 249.956 1086.56 249.844C1086.66 249.732 1086.79 249.642 1086.93 249.578C1087.06 249.514 1087.21 249.478 1087.37 249.472H1117.67C1117.97 249.485 1118.26 249.619 1118.47 249.845C1118.68 250.071 1118.79 250.371 1118.78 250.678V250.678C1118.79 250.831 1118.76 250.984 1118.71 251.127C1118.66 251.27 1118.57 251.401 1118.47 251.513C1118.37 251.625 1118.24 251.715 1118.1 251.779C1117.96 251.842 1117.81 251.878 1117.66 251.883V251.883Z" fill="#006DFE"/>
<path d="M1112.66 262.691H1082.36C1082.06 262.679 1081.77 262.545 1081.56 262.319C1081.35 262.093 1081.24 261.794 1081.25 261.487V261.487C1081.24 261.179 1081.35 260.88 1081.56 260.654C1081.77 260.428 1082.06 260.295 1082.36 260.282H1112.66C1112.97 260.294 1113.26 260.428 1113.47 260.654C1113.68 260.88 1113.79 261.179 1113.78 261.487V261.487C1113.79 261.794 1113.68 262.094 1113.47 262.32C1113.26 262.545 1112.97 262.679 1112.66 262.691Z" fill="#00D967"/>
<path d="M1176.92 262.691H1124.88C1124.58 262.679 1124.29 262.545 1124.08 262.319C1123.87 262.093 1123.76 261.794 1123.77 261.487V261.487C1123.76 261.179 1123.87 260.88 1124.08 260.654C1124.29 260.428 1124.58 260.295 1124.88 260.282H1176.92C1177.23 260.294 1177.52 260.428 1177.72 260.654C1177.93 260.88 1178.04 261.179 1178.03 261.487V261.487C1178.04 261.794 1177.93 262.094 1177.72 262.32C1177.52 262.545 1177.23 262.679 1176.92 262.691V262.691Z" fill="#006DFE"/>
<path d="M1143.86 251.883H1128.55C1128.24 251.871 1127.95 251.737 1127.74 251.511C1127.53 251.286 1127.42 250.986 1127.43 250.678C1127.43 250.526 1127.45 250.374 1127.5 250.231C1127.56 250.088 1127.64 249.956 1127.74 249.844C1127.84 249.732 1127.97 249.642 1128.11 249.578C1128.25 249.514 1128.4 249.478 1128.55 249.472H1143.86C1144.17 249.485 1144.46 249.619 1144.67 249.845C1144.88 250.071 1144.99 250.371 1144.98 250.678V250.678C1144.99 250.986 1144.88 251.285 1144.67 251.511C1144.46 251.737 1144.17 251.87 1143.86 251.883V251.883Z" fill="#006DFE"/>
<path d="M1170.74 251.883H1155.43C1155.12 251.871 1154.83 251.737 1154.62 251.511C1154.41 251.286 1154.3 250.986 1154.31 250.678V250.678C1154.31 250.526 1154.33 250.374 1154.38 250.231C1154.44 250.088 1154.52 249.956 1154.62 249.844C1154.72 249.732 1154.85 249.642 1154.99 249.578C1155.12 249.514 1155.27 249.478 1155.43 249.472H1170.74C1171.05 249.485 1171.34 249.619 1171.55 249.845C1171.76 250.071 1171.87 250.371 1171.85 250.678V250.678C1171.87 250.986 1171.76 251.285 1171.55 251.511C1171.34 251.737 1171.05 251.87 1170.74 251.883V251.883Z" fill="#006DFE"/>
<path d="M1102.64 273.48H1082.73C1082.42 273.467 1082.13 273.333 1081.92 273.108C1081.72 272.882 1081.6 272.582 1081.62 272.275V272.275C1081.6 271.967 1081.71 271.668 1081.92 271.441C1082.13 271.215 1082.42 271.081 1082.73 271.069H1102.64C1102.94 271.081 1103.23 271.215 1103.44 271.441C1103.65 271.668 1103.76 271.967 1103.75 272.275V272.275C1103.76 272.582 1103.65 272.882 1103.44 273.108C1103.23 273.333 1102.94 273.467 1102.64 273.48V273.48Z" fill="#006DFE"/>
<path d="M1143.92 273.48H1113.62C1113.31 273.468 1113.02 273.334 1112.81 273.108C1112.6 272.882 1112.49 272.583 1112.5 272.275C1112.5 272.123 1112.52 271.971 1112.57 271.827C1112.62 271.684 1112.71 271.553 1112.81 271.441C1112.91 271.329 1113.04 271.238 1113.18 271.174C1113.31 271.111 1113.46 271.075 1113.62 271.069H1143.92C1144.22 271.081 1144.51 271.215 1144.72 271.441C1144.93 271.668 1145.04 271.967 1145.03 272.275V272.275C1145.04 272.582 1144.93 272.882 1144.72 273.108C1144.51 273.333 1144.22 273.467 1143.92 273.48Z" fill="#00D967"/>
<path d="M1166.01 273.48H1154.7C1154.39 273.468 1154.1 273.334 1153.89 273.108C1153.68 272.882 1153.57 272.583 1153.58 272.275V272.275C1153.58 272.123 1153.6 271.971 1153.65 271.827C1153.7 271.684 1153.79 271.553 1153.89 271.441C1153.99 271.329 1154.12 271.238 1154.26 271.174C1154.39 271.111 1154.54 271.075 1154.7 271.069H1166.01C1166.32 271.081 1166.61 271.215 1166.82 271.442C1167.03 271.668 1167.14 271.968 1167.13 272.275V272.275C1167.14 272.582 1167.03 272.882 1166.82 273.107C1166.61 273.333 1166.32 273.467 1166.01 273.48V273.48Z" fill="#006DFE"/>
<path d="M1121.37 284.283H1103.62C1103.31 284.27 1103.02 284.136 1102.81 283.91C1102.6 283.685 1102.49 283.385 1102.5 283.078V283.078C1102.49 282.771 1102.6 282.471 1102.81 282.245C1103.02 282.02 1103.31 281.886 1103.62 281.873H1121.37C1121.68 281.886 1121.97 282.02 1122.18 282.246C1122.39 282.471 1122.5 282.771 1122.48 283.078V283.078C1122.5 283.385 1122.39 283.684 1122.18 283.91C1121.97 284.136 1121.68 284.27 1121.37 284.283V284.283Z" fill="#006DFE"/>
<path d="M1163.84 284.283H1133.54C1133.23 284.27 1132.94 284.136 1132.73 283.91C1132.53 283.684 1132.41 283.385 1132.43 283.078V283.078C1132.41 282.771 1132.53 282.471 1132.73 282.246C1132.94 282.02 1133.23 281.886 1133.54 281.873H1163.84C1164.15 281.886 1164.44 282.02 1164.65 282.245C1164.86 282.471 1164.97 282.771 1164.96 283.078V283.078C1164.97 283.385 1164.86 283.685 1164.65 283.91C1164.44 284.136 1164.15 284.27 1163.84 284.283V284.283Z" fill="#006DFE"/>
<path d="M1154.13 295.084H1097.35C1097.04 295.071 1096.75 294.937 1096.54 294.711C1096.33 294.486 1096.22 294.186 1096.24 293.879C1096.22 293.571 1096.33 293.272 1096.54 293.045C1096.75 292.819 1097.04 292.685 1097.35 292.672H1154.13C1154.28 292.679 1154.43 292.714 1154.57 292.778C1154.71 292.842 1154.83 292.933 1154.94 293.045C1155.04 293.157 1155.12 293.288 1155.17 293.431C1155.23 293.574 1155.25 293.727 1155.24 293.879V293.879C1155.26 294.187 1155.14 294.486 1154.94 294.712C1154.73 294.938 1154.44 295.072 1154.13 295.084Z" fill="#006DFE"/>
<path d="M1196.59 295.084H1162.3C1161.99 295.071 1161.7 294.937 1161.49 294.711C1161.28 294.486 1161.17 294.186 1161.18 293.879C1161.17 293.571 1161.28 293.272 1161.49 293.045C1161.7 292.819 1161.99 292.685 1162.3 292.672H1196.59C1196.9 292.685 1197.19 292.819 1197.4 293.045C1197.61 293.272 1197.72 293.571 1197.71 293.879C1197.72 294.186 1197.61 294.486 1197.4 294.711C1197.19 294.937 1196.9 295.071 1196.59 295.084V295.084Z" fill="#006DFE"/>
<path d="M1112.66 305.883H1082.36C1082.06 305.87 1081.77 305.737 1081.56 305.511C1081.35 305.285 1081.24 304.986 1081.25 304.678V304.678C1081.24 304.371 1081.35 304.072 1081.56 303.846C1081.77 303.62 1082.06 303.486 1082.36 303.474H1112.66C1112.97 303.486 1113.26 303.619 1113.47 303.845C1113.68 304.071 1113.79 304.371 1113.78 304.678V304.678C1113.79 304.986 1113.68 305.285 1113.47 305.511C1113.26 305.737 1112.97 305.871 1112.66 305.883Z" fill="#006DFE"/>
<path d="M1149.33 305.883H1119.03C1118.72 305.87 1118.43 305.737 1118.23 305.511C1118.02 305.285 1117.91 304.986 1117.92 304.678V304.678C1117.91 304.371 1118.02 304.072 1118.23 303.846C1118.43 303.62 1118.72 303.486 1119.03 303.474H1149.33C1149.64 303.486 1149.93 303.62 1150.14 303.846C1150.35 304.072 1150.46 304.371 1150.45 304.678C1150.46 304.986 1150.35 305.286 1150.14 305.511C1149.93 305.737 1149.64 305.871 1149.33 305.883V305.883Z" fill="#00D967"/>
<path d="M1152.25 316.684H1106.23C1105.92 316.672 1105.63 316.538 1105.42 316.312C1105.21 316.086 1105.1 315.787 1105.11 315.479V315.479C1105.11 315.327 1105.13 315.175 1105.18 315.032C1105.24 314.889 1105.32 314.757 1105.42 314.645C1105.52 314.533 1105.65 314.443 1105.79 314.379C1105.93 314.315 1106.07 314.279 1106.23 314.273H1152.25C1152.4 314.279 1152.55 314.315 1152.69 314.379C1152.83 314.443 1152.95 314.533 1153.06 314.645C1153.16 314.757 1153.24 314.889 1153.29 315.032C1153.35 315.175 1153.37 315.327 1153.36 315.479V315.479C1153.37 315.787 1153.26 316.086 1153.05 316.312C1152.85 316.538 1152.56 316.672 1152.25 316.684V316.684Z" fill="#006DFE"/>
<path d="M1068.67 249.472H1066.44V251.883H1068.67V249.472Z" fill="#006DFE"/>
<path d="M1068.67 260.273H1066.44V262.684H1068.67V260.273Z" fill="#006DFE"/>
<path d="M1068.67 271.072H1066.44V273.483H1068.67V271.072Z" fill="#006DFE"/>
<path d="M1068.67 281.873H1066.44V284.284H1068.67V281.873Z" fill="#006DFE"/>
<path d="M1068.67 292.672H1066.44V295.084H1068.67V292.672Z" fill="#006DFE"/>
<path d="M1068.67 303.474H1066.44V305.885H1068.67V303.474Z" fill="#006DFE"/>
<path d="M1068.67 314.273H1066.44V316.684H1068.67V314.273Z" fill="#006DFE"/>
<path d="M1184.88 321.6L1176.75 317.869C1176.63 317.807 1176.52 317.711 1176.45 317.59C1176.37 317.47 1176.34 317.332 1176.34 317.191V316.389C1176.34 316.248 1176.37 316.11 1176.45 315.99C1176.52 315.869 1176.63 315.773 1176.75 315.711L1184.88 311.98C1184.99 311.936 1185.11 311.919 1185.22 311.933C1185.34 311.946 1185.45 311.989 1185.54 312.057C1185.64 312.124 1185.71 312.215 1185.76 312.32C1185.81 312.426 1185.84 312.542 1185.83 312.658V312.944C1185.83 313.086 1185.79 313.226 1185.72 313.347C1185.64 313.468 1185.54 313.564 1185.41 313.625L1179.83 316.109C1179.7 316.172 1179.6 316.269 1179.52 316.389C1179.45 316.509 1179.41 316.648 1179.41 316.789C1179.41 316.931 1179.45 317.069 1179.52 317.189C1179.6 317.31 1179.7 317.407 1179.83 317.47L1185.41 319.955C1185.54 320.015 1185.64 320.112 1185.72 320.232C1185.79 320.353 1185.83 320.493 1185.83 320.634V320.922C1185.84 321.038 1185.81 321.155 1185.76 321.26C1185.71 321.365 1185.64 321.456 1185.54 321.524C1185.45 321.591 1185.34 321.634 1185.22 321.647C1185.11 321.661 1184.99 321.644 1184.88 321.6V321.6Z" fill="#006DFE"/>
<path d="M1192.25 309.873L1188.49 323.898C1188.46 324.048 1188.38 324.182 1188.26 324.28C1188.14 324.377 1187.99 324.433 1187.84 324.437V324.437C1187.73 324.432 1187.62 324.402 1187.52 324.349C1187.42 324.295 1187.34 324.22 1187.28 324.129C1187.21 324.038 1187.17 323.933 1187.16 323.824C1187.14 323.714 1187.15 323.602 1187.18 323.497L1190.94 309.472C1190.97 309.322 1191.05 309.187 1191.17 309.089C1191.29 308.992 1191.44 308.936 1191.59 308.932C1191.7 308.937 1191.81 308.967 1191.91 309.021C1192.01 309.074 1192.09 309.149 1192.15 309.24C1192.22 309.331 1192.26 309.436 1192.27 309.546C1192.29 309.655 1192.28 309.767 1192.25 309.873V309.873Z" fill="#006DFE"/>
<path d="M1202.68 317.869L1194.55 321.6C1194.44 321.644 1194.33 321.661 1194.21 321.647C1194.09 321.634 1193.98 321.591 1193.89 321.524C1193.79 321.456 1193.72 321.365 1193.67 321.26C1193.62 321.155 1193.6 321.038 1193.6 320.922V320.634C1193.6 320.492 1193.64 320.353 1193.71 320.232C1193.79 320.112 1193.9 320.015 1194.03 319.955L1199.6 317.47C1199.73 317.407 1199.84 317.31 1199.91 317.189C1199.98 317.069 1200.02 316.931 1200.02 316.789C1200.02 316.648 1199.98 316.509 1199.91 316.389C1199.84 316.269 1199.73 316.172 1199.6 316.109L1194.03 313.625C1193.9 313.564 1193.79 313.468 1193.71 313.347C1193.64 313.226 1193.6 313.086 1193.6 312.944V312.658C1193.6 312.542 1193.62 312.426 1193.67 312.32C1193.72 312.215 1193.79 312.124 1193.89 312.057C1193.98 311.989 1194.09 311.946 1194.21 311.933C1194.33 311.919 1194.44 311.936 1194.55 311.98L1202.68 315.711C1202.8 315.773 1202.91 315.869 1202.98 315.99C1203.06 316.11 1203.1 316.248 1203.09 316.389V317.191C1203.1 317.332 1203.06 317.47 1202.98 317.59C1202.91 317.711 1202.8 317.807 1202.68 317.869V317.869Z" fill="#006DFE"/>
<path d="M1177.85 237.534C1179.72 237.534 1181.23 236.019 1181.23 234.149C1181.23 232.279 1179.72 230.763 1177.85 230.763C1175.98 230.763 1174.46 232.279 1174.46 234.149C1174.46 236.019 1175.98 237.534 1177.85 237.534Z" fill="white"/>
<path d="M1191.53 237.534C1193.4 237.534 1194.92 236.019 1194.92 234.149C1194.92 232.279 1193.4 230.763 1191.53 230.763C1189.66 230.763 1188.14 232.279 1188.14 234.149C1188.14 236.019 1189.66 237.534 1191.53 237.534Z" fill="white"/>
<path d="M1205.21 237.534C1207.08 237.534 1208.6 236.019 1208.6 234.149C1208.6 232.279 1207.08 230.763 1205.21 230.763C1203.34 230.763 1201.82 232.279 1201.82 234.149C1201.82 236.019 1203.34 237.534 1205.21 237.534Z" fill="white"/>
<path d="M1083.12 366.034H962.96C959.054 366.034 955.887 369.199 955.887 373.102V444.838C955.887 448.742 959.054 451.907 962.96 451.907H1083.12C1087.03 451.907 1090.19 448.742 1090.19 444.838V373.102C1090.19 369.199 1087.03 366.034 1083.12 366.034Z" fill="#B0D8FF"/>
<path d="M1090.19 372.676C1090.19 370.843 1089.46 369.085 1088.17 367.789C1086.87 366.493 1085.11 365.764 1083.28 365.764H965.252C963.418 365.764 961.659 366.493 960.362 367.789C959.065 369.085 958.336 370.843 958.336 372.676V380.573H1090.19V372.676Z" fill="#3998FF"/>
<path d="M958.345 380.573V442.51C958.345 443.418 958.524 444.316 958.871 445.155C959.219 445.993 959.728 446.755 960.371 447.397C961.013 448.039 961.775 448.548 962.614 448.896C963.453 449.243 964.353 449.422 965.261 449.422H1083.28C1085.12 449.422 1086.88 448.693 1088.18 447.397C1089.47 446.101 1090.2 444.343 1090.2 442.51V380.573H958.345Z" fill="url(#paint3_linear)"/>
<path d="M1058.4 376.132C1059.89 376.132 1061.09 374.931 1061.09 373.449C1061.09 371.968 1059.89 370.767 1058.4 370.767C1056.92 370.767 1055.72 371.968 1055.72 373.449C1055.72 374.931 1056.92 376.132 1058.4 376.132Z" fill="white"/>
<path d="M1069.24 376.132C1070.73 376.132 1071.93 374.931 1071.93 373.449C1071.93 371.968 1070.73 370.767 1069.24 370.767C1067.76 370.767 1066.56 371.968 1066.56 373.449C1066.56 374.931 1067.76 376.132 1069.24 376.132Z" fill="white"/>
<path d="M1080.09 376.132C1081.57 376.132 1082.77 374.931 1082.77 373.449C1082.77 371.968 1081.57 370.767 1080.09 370.767C1078.61 370.767 1077.4 371.968 1077.4 373.449C1077.4 374.931 1078.61 376.132 1080.09 376.132Z" fill="white"/>
<path d="M980.732 392.138H969.89V432.834H980.732V392.138Z" fill="#00D967"/>
<path d="M999.77 397.423H988.929V432.834H999.77V397.423Z" fill="#00D967"/>
<path d="M1018.81 407.994H1007.97V432.834H1018.81V407.994Z" fill="#00D967"/>
<path d="M1037.85 400.066H1027.01V432.834H1037.85V400.066Z" fill="#00D967"/>
<path d="M1056.89 407.994H1046.04V432.834H1056.89V407.994Z" fill="#00D967"/>
<path d="M1075.92 400.066H1065.08V432.834H1075.92V400.066Z" fill="#00D967"/>
<path d="M1080.15 436.271H965.925V437.856H1080.15V436.271Z" fill="#00D967"/>
<path d="M747.257 408.647C747.257 408.647 750.247 365.897 773.179 343.083C796.111 320.269 840.586 317.675 857.778 327.683C874.971 337.691 885.456 351.684 890.163 384.61C894.869 417.536 893.453 462.805 884.596 482.035C875.739 501.266 857.19 521.974 831.935 527.812C806.681 533.651 779.316 537.853 751.033 530.835C722.75 523.817 711.024 516.253 704.414 487.915C697.804 459.577 720.246 441.355 728.788 435.735C737.331 430.114 747.257 408.647 747.257 408.647Z" fill="#9FD4FF"/>
<path d="M864.699 332.232C868.341 339.665 872.576 351.234 874.478 367.246C878.148 398.173 885.794 436.292 875.257 457.535C864.719 478.777 855.513 499.498 832.597 507.41C809.682 515.321 786.676 518.018 786.676 518.018C786.676 518.018 739.736 518.354 711.968 508.208C719.462 520.697 731.161 525.899 751.033 530.83C779.316 537.842 806.681 533.649 831.935 527.807C857.19 521.965 875.735 501.262 884.593 482.03C893.45 462.798 894.86 417.533 890.159 384.605C886.124 356.359 877.831 342.048 864.699 332.232Z" fill="#78CFFF"/>
<path d="M814.939 354.012L813.651 339.358L809.813 324.486C796.213 327.501 782.801 333.512 773.179 343.083C750.247 365.901 747.257 408.647 747.257 408.647C747.257 408.647 737.338 430.114 728.797 435.735C720.662 441.084 699.954 457.851 703.665 483.875C715.226 486.212 731.732 487.277 742.223 478.076C759.773 462.697 799.058 394.42 799.058 394.42L814.939 354.012Z" fill="#B6E2FF"/>
<path d="M846.348 350.714C856.404 341.249 854.299 329.582 853.151 325.529C846.105 322.895 836.491 321.715 826.084 322.265L822.196 329.278L821.39 339.104C821.39 339.104 814.824 370.901 814.784 374.041C814.744 377.18 808.827 391.606 807.737 393.721C806.646 395.835 787.734 427.133 787.734 427.133C787.734 427.133 759.487 460.048 759.721 461.266C759.955 462.483 759.512 530.051 759.512 530.051L763.83 533.287C769.723 534.086 775.662 534.492 781.608 534.503C780.953 530.817 779.913 526.093 778.29 520.052C772.06 496.846 779.431 469.084 779.431 469.084C779.431 469.084 782.779 505.275 791.392 513.584C800.004 521.893 809.1 518.502 806.047 509.673C802.994 500.845 809.023 490.72 809.023 490.72C809.023 490.72 864.059 467.525 867.648 452.074C871.238 436.623 852.089 434.774 852.089 434.774C852.089 434.774 866.302 428.258 870.718 419.426C875.133 410.594 865.192 379.187 859.093 370.119C852.994 361.052 843.763 354.213 846.348 350.714Z" fill="#64C8FF"/>
<path d="M769.41 529.058C769.41 529.058 770.309 534.192 771.54 538.173C772.77 542.154 776.448 544.49 776.217 548.647C775.987 552.804 764.642 556.391 756.835 559.825C749.029 563.26 741.332 563.713 740.51 557.308C739.688 550.903 753.566 549.287 756.409 540.153C759.252 531.018 757.326 530.263 757.326 530.263L769.41 529.058Z" fill="#FFAB00"/>
<path d="M751.218 541.658C751.218 541.658 760.273 539.367 763.632 541.965C766.991 544.563 768.701 553.279 767.526 556.319L775.313 555.159L780.904 548.562L776.977 535.109L768.114 526.687L750.169 530.619L751.218 541.658Z" fill="#FE8E00"/>
<path d="M800.583 470.288C800.583 470.288 796.154 473.039 792.361 474.773C788.569 476.506 784.38 475.325 781.437 478.272C778.493 481.219 783.371 492.059 786.008 500.165C788.646 508.271 793.437 514.311 798.757 510.662C804.077 507.014 796.044 495.586 800.965 487.381C805.885 479.176 807.737 480.108 807.737 480.108L800.583 470.288Z" fill="#FFAB00"/>
<path d="M789.267 474.809C789.267 474.809 793.604 477.594 793.824 485.892C794.043 494.19 799.941 511.63 799.941 511.63C799.941 511.63 802.37 506.557 802.593 506.169C802.816 505.781 800.716 493.367 800.716 493.367C800.716 493.367 804.806 487.32 805.018 487.133C805.23 486.946 808.077 480.557 808.077 480.557L796.35 468.163L789.267 474.809Z" fill="#FE8E00"/>
<path d="M837.531 431.578C837.531 431.578 857.438 438.576 860.819 445.232C864.199 451.889 862.245 462.402 841.883 471.263C821.52 480.124 803.201 488.497 803.201 488.497C803.201 488.497 793.666 482.141 793.826 471.126L820.208 455.843C820.208 455.843 813.66 452.011 805.785 452.915C797.91 453.82 767.733 457.962 767.733 457.962C767.733 457.962 771.27 489.082 773.814 532.322C773.814 532.322 764.372 539.602 753.827 534.589C753.827 534.589 739.454 463.206 740.334 451.437C741.213 439.669 748.888 435.087 759.843 432.906C770.798 430.725 793.257 423.788 793.257 423.788L837.531 431.578Z" fill="#1E2889"/>
<path d="M739.966 440.192C739.966 440.192 750.941 437.779 757.096 445.766C763.251 453.753 773.136 473.956 773.136 473.956L801.089 467.379C801.089 467.379 813.386 461.019 824.856 456.862C836.325 452.705 849.209 444.815 856.983 452.683C864.757 460.552 854.894 471.702 854.894 471.702L869.978 453.424L866.41 428.1L807.17 415.364L754.759 419.987L739.966 440.192Z" fill="#17216B"/>
<path d="M860.11 391.824C857.157 382.936 851.33 366.735 843.219 363.594C835.109 360.453 823.303 360.219 823.303 360.219L819.921 360.661L809.646 360.302C791.559 360.138 788.7 364.736 785.177 371.049C782.005 376.74 778.783 385.568 778.783 385.568L766.608 422.249C793.122 442.553 839.67 433.484 839.67 433.484C839.67 433.484 856.814 425.752 862.175 421.388C867.537 417.024 863.06 400.712 860.11 391.824ZM793.608 396.679L792.789 410.99L784.65 408.729C784.65 408.729 789.688 393.976 794.288 384.766L793.608 396.679ZM847.719 409.463C846.532 412.7 837.687 418.311 837.687 418.311L840.165 389.082C840.165 389.082 848.908 406.217 847.721 409.458L847.719 409.463Z" fill="#FFAB00"/>
<path d="M840.576 392.313L840.159 389.076C840.159 389.076 839.587 381.524 840.774 374.78C840.774 374.78 835.17 386.888 832.586 402.274C830.003 417.66 802.023 421.082 802.023 421.082L801.594 432.083L822.851 430.36L826.45 427.187L837.687 418.306L842.106 400.643L840.576 392.313Z" fill="#FE8E00"/>
<path d="M859.667 386.386C859.644 386.786 863.086 403.72 862.314 410.29C861.542 416.86 859.712 418.962 850.497 424.049C841.282 429.136 828.368 434.01 828.368 434.01L828.887 437.193L839.821 437.125L848.8 432.671L863.514 427.196C863.514 427.196 867.6 421.316 867.783 418.119C867.967 414.922 869.762 414.926 867.747 408.195C865.732 401.465 859.667 386.386 859.667 386.386Z" fill="#FE8E00"/>
<path d="M792.207 390.204L794.006 385.34C794.006 385.34 792.843 382.174 794.788 371.66L785.368 396.202L782.489 410.396L787.921 403.641L792.207 390.204Z" fill="#FE8E00"/>
<path d="M803.3 428.672C803.3 428.672 806.436 424.691 809.968 423.439C813.499 422.188 826.45 427.187 826.45 427.187L829.47 434.875C829.47 434.875 824.893 437.77 819.453 436.458C814.012 435.145 805.432 435.258 805.432 435.258L803.3 428.672Z" fill="#FFACA6"/>
<path d="M827.46 435.062L755.071 430.928L754.769 436.204L827.159 440.338L827.46 435.062Z" fill="#78C2FF"/>
<path d="M807.945 439.23L744.896 435.632L738.301 390.955L801.35 394.553L807.945 439.23Z" fill="#0542BF"/>
<path d="M803.226 438.96L740.175 435.363L733.58 390.686L796.629 394.284L803.226 438.96Z" fill="#006DFE"/>
<path d="M767.539 417.263C770.615 416.803 772.632 413.241 772.043 409.305C771.455 405.37 768.484 402.552 765.408 403.011C762.332 403.471 760.316 407.033 760.904 410.969C761.493 414.904 764.463 417.722 767.539 417.263Z" fill="white"/>
<path d="M811.143 354.661C810.933 356.611 810.428 358.517 809.646 360.314C809.646 360.314 811.306 364.285 815.811 363.806C820.316 363.328 823.303 360.224 823.303 360.224C823.303 360.224 822.403 358.489 821.937 355.424C818.001 353.383 813.879 353.892 811.143 354.661Z" fill="#FFACA6"/>
<path d="M821.937 355.424C821.51 352.444 821.605 349.413 822.218 346.466L819.447 344.637L810.209 348.386C810.209 348.386 811.535 350.642 811.142 354.661C813.879 353.892 818.001 353.383 821.937 355.424Z" fill="#EA756C"/>
<path d="M803.863 326.043C803.863 326.043 798.903 326.762 796.846 318.96C795.252 312.922 798.808 310.689 801.323 309.161C803.838 307.632 804.021 306.338 807.26 304.554C811.54 302.193 813.258 304.898 815.619 303.362C817.979 301.827 822.456 301.744 824.762 304.819C827.069 307.893 828.58 306.473 832.029 308.14C835.478 309.806 834.022 314.199 835.627 315.494C837.232 316.788 839.797 317.401 839.447 321.19C839.096 324.979 836.507 325.833 838.092 328.53C839.677 331.227 838.855 337.392 834.733 338.16C830.611 338.928 828.511 341.756 828.022 344.453C827.533 347.151 823.055 348.312 820.575 347.235C818.096 346.158 803.863 326.043 803.863 326.043Z" fill="#191E56"/>
<path d="M795.143 313.539C795.143 313.539 796.301 315.605 810.946 315.337C825.591 315.069 825.622 327.699 830.442 330.229C835.262 332.759 840.109 335.891 840.109 335.891L830.795 347.74L822.679 353.98L795.691 340.571L795.143 313.539Z" fill="#10163D"/>
<path d="M803.433 321.875C803.433 321.875 799.86 336.439 802.582 344.944C805.304 353.449 813.226 350.563 819.642 345.919L820.991 341.017C820.991 341.017 824.345 341.726 826.388 337.684C828.432 333.642 824.05 332.89 824.05 332.89C823.507 332.449 823.063 331.9 822.744 331.278C822.426 330.655 822.24 329.974 822.2 329.276C822.2 329.276 819.472 330.524 816.41 326.19C816.41 326.19 814.809 323.493 812.38 324.457C809.951 325.421 807.287 324.667 806.072 322.528C804.858 320.388 803.433 321.875 803.433 321.875Z" fill="#FFACA6"/>
<path d="M799.783 325.241C799.783 325.241 800.603 327.472 805.24 327.974C809.876 328.476 810.957 329.287 814.485 331.39C818.013 333.494 819.928 335.961 824.102 335.747C828.276 335.533 827.97 333.865 827.97 333.865L824.582 329.111L814.363 323.666L806.116 321.456L802.994 320.812L799.783 325.241Z" fill="#EA756C"/>
<defs>
<linearGradient id="paint0_linear" x1="815.223" y1="318.061" x2="1134.77" y2="318.061" gradientUnits="userSpaceOnUse">
<stop stop-color="#B0D8FF"/>
<stop offset="0.02" stop-color="#B3D9FF"/>
<stop offset="0.15" stop-color="#C4E1FF"/>
<stop offset="0.3" stop-color="#D1E7FF"/>
<stop offset="0.51" stop-color="#D8EAFF"/>
<stop offset="1" stop-color="#DAEBFF"/>
</linearGradient>
<linearGradient id="paint1_linear" x1="151753" y1="44022.8" x2="151863" y2="68947.9" gradientUnits="userSpaceOnUse">
<stop stop-color="#B0D8FF"/>
<stop offset="0.02" stop-color="#B3D9FF"/>
<stop offset="0.15" stop-color="#C4E1FF"/>
<stop offset="0.3" stop-color="#D1E7FF"/>
<stop offset="0.51" stop-color="#D8EAFF"/>
<stop offset="1" stop-color="#DAEBFF"/>
</linearGradient>
<linearGradient id="paint2_linear" x1="538056" y1="64000.2" x2="537602" y2="109853" gradientUnits="userSpaceOnUse">
<stop stop-color="#B0D8FF"/>
<stop offset="0.02" stop-color="#B3D9FF"/>
<stop offset="0.15" stop-color="#C4E1FF"/>
<stop offset="0.3" stop-color="#D1E7FF"/>
<stop offset="0.51" stop-color="#D8EAFF"/>
<stop offset="1" stop-color="#DAEBFF"/>
</linearGradient>
<linearGradient id="paint3_linear" x1="345075" y1="105413" x2="344956" y2="132540" gradientUnits="userSpaceOnUse">
<stop stop-color="#B0D8FF"/>
<stop offset="0.02" stop-color="#B3D9FF"/>
<stop offset="0.15" stop-color="#C4E1FF"/>
<stop offset="0.3" stop-color="#D1E7FF"/>
<stop offset="0.51" stop-color="#D8EAFF"/>
<stop offset="1" stop-color="#DAEBFF"/>
</linearGradient>
</defs>
</svg>
