<svg width="820" height="506" viewBox="0 0 820 506" fill="none" xmlns="http://www.w3.org/2000/svg">
<path d="M526.26 444.209L510.944 454.933L403.948 329.938L401.012 305.82L416.327 295.096L583.219 283.886L568.627 324.898L553.311 335.622L454.055 327.615L540.708 403.473L526.26 444.209Z" fill="#BED0E2"/>
<path d="M529.807 476.612L644.283 287.704L659.598 276.98L689.956 287.753L559.596 487.201L544.281 497.925L529.807 476.612Z" fill="#BED0E2"/>
<path d="M635.57 483.232L634.723 453.198L650.039 442.476L765.181 438.682L678.111 363.475L677.178 333.756L692.496 323.032L815.03 437.077L802.756 471.626L787.44 482.35L635.57 483.232Z" fill="#BED0E2"/>
<path d="M510.944 454.933L388.63 340.662L401.014 305.822L567.903 294.613L553.313 335.625L438.742 338.342L525.395 414.199L510.944 454.933Z" fill="#EDF1F4"/>
<path d="M514.492 487.334L644.283 287.702L674.639 298.473L544.278 497.923L514.492 487.334Z" fill="#EDF1F4"/>
<path d="M620.252 493.956L634.723 453.198L749.866 449.406L662.793 374.199L677.178 333.756L799.712 447.801L787.44 482.35L620.252 493.956Z" fill="#EDF1F4"/>
<path d="M306.315 16.257H187.886C178.492 16.257 170.873 23.8745 170.873 33.2691V98.1899C170.873 107.585 178.492 115.202 187.886 115.202H261.945L279.894 139.367C281.802 141.938 285.883 140.583 285.878 137.383L285.85 115.2H306.313C315.709 115.2 323.326 107.582 323.326 98.1876V33.2668C323.328 23.8721 315.714 16.257 306.315 16.257Z" fill="#EDF1F4"/>
<path d="M157.68 183.103C156.712 183.103 155.793 182.653 155.184 181.828L142.87 165.247H101.423C94.4073 165.247 88.7005 159.54 88.7005 152.524V107.092C88.7005 100.077 94.4073 94.3694 101.423 94.3694H174.334C181.349 94.3694 187.056 100.077 187.056 107.092V152.524C187.056 159.54 181.349 165.247 174.334 165.247H160.831L160.847 179.955C160.851 181.333 160.007 182.506 158.697 182.938C158.356 183.047 158.015 183.103 157.68 183.103ZM101.42 95.9974C95.3052 95.9974 90.3284 100.975 90.3284 107.09V152.522C90.3284 158.637 95.3052 163.614 101.42 163.614H143.689L156.495 180.855C156.978 181.501 157.684 181.555 158.179 181.389C158.68 181.224 159.212 180.759 159.212 179.957L159.191 163.617H174.329C180.444 163.617 185.421 158.64 185.421 152.524V107.092C185.421 100.977 180.444 95.9998 174.329 95.9998H101.42V95.9974Z" fill="#BED0E2"/>
<path d="M278.951 42.0549H235.409C234.824 42.0549 234.35 41.5814 234.35 40.996C234.35 40.4106 234.824 39.9372 235.409 39.9372H278.951C279.537 39.9372 280.01 40.4106 280.01 40.996C280.01 41.5814 279.537 42.0549 278.951 42.0549Z" fill="#2A2B3C"/>
<path d="M227.485 42.0549H209.853C209.268 42.0549 208.794 41.5814 208.794 40.996C208.794 40.4106 209.268 39.9372 209.853 39.9372H227.485C228.07 39.9372 228.543 40.4106 228.543 40.996C228.543 41.5814 228.07 42.0549 227.485 42.0549Z" fill="#2A2B3C"/>
<path d="M278.951 59.2489H255.758C255.173 59.2489 254.699 58.7754 254.699 58.19C254.699 57.6046 255.173 57.1311 255.758 57.1311H278.951C279.537 57.1311 280.01 57.6046 280.01 58.19C280.01 58.7754 279.537 59.2489 278.951 59.2489Z" fill="#2A2B3C"/>
<path d="M248.875 59.2489H209.856C209.27 59.2489 208.797 58.7754 208.797 58.19C208.797 57.6046 209.27 57.1311 209.856 57.1311H248.875C249.461 57.1311 249.934 57.6046 249.934 58.19C249.934 58.7754 249.459 59.2489 248.875 59.2489Z" fill="#2A2B3C"/>
<path d="M285.274 75.7457H250.254C249.669 75.7457 249.195 75.2722 249.195 74.6867C249.195 74.1013 249.669 73.6278 250.254 73.6278H285.274C285.86 73.6278 286.333 74.1013 286.333 74.6867C286.333 75.2722 285.86 75.7457 285.274 75.7457Z" fill="#2A2B3C"/>
<path d="M243.88 75.7457H229.7C229.115 75.7457 228.641 75.2722 228.641 74.6868C228.641 74.1014 229.115 73.6279 229.7 73.6279H243.88C244.465 73.6279 244.939 74.1014 244.939 74.6868C244.939 75.2722 244.465 75.7457 243.88 75.7457Z" fill="#2A2B3C"/>
<path d="M285.274 91.7736H266.619C266.034 91.7736 265.56 91.3001 265.56 90.7147C265.56 90.1293 266.034 89.6558 266.619 89.6558H285.274C285.86 89.6558 286.333 90.1293 286.333 90.7147C286.333 91.3001 285.86 91.7736 285.274 91.7736Z" fill="#2A2B3C"/>
<path d="M261.084 91.7736H229.7C229.115 91.7736 228.641 91.3001 228.641 90.7147C228.641 90.1293 229.115 89.6558 229.7 89.6558H261.084C261.67 89.6558 262.143 90.1293 262.143 90.7147C262.143 91.3001 261.67 91.7736 261.084 91.7736Z" fill="#2A2B3C"/>
<path d="M306.653 82.4465C305.716 82.4979 305.009 82.6401 304.533 82.871C304.058 83.1043 303.65 83.4915 303.311 84.0372C302.971 84.583 302.731 85.2664 302.586 86.0897C302.486 86.7078 302.434 87.7737 302.434 89.2897C302.434 91.7806 302.323 93.5205 302.096 94.5118C301.87 95.5007 301.457 96.296 300.853 96.8931C300.249 97.4902 299.363 97.9613 298.192 98.3088C297.408 98.5397 296.177 98.654 294.493 98.654H293.472V94.029C294.848 94.029 295.748 93.9427 296.17 93.7701C296.592 93.5975 296.905 93.3433 297.105 93.0191C297.304 92.6902 297.406 92.1352 297.413 91.3515C297.418 90.5678 297.471 89.0704 297.574 86.8617C297.639 85.5253 297.814 84.457 298.096 83.6524C298.379 82.8477 298.754 82.1667 299.223 81.6093C299.692 81.0519 300.293 80.5597 301.023 80.1352C300.074 79.5171 299.379 78.9154 298.941 78.3253C298.337 77.4763 297.926 76.3964 297.709 75.0857C297.567 74.1854 297.467 72.2076 297.399 69.1499C297.388 68.1866 297.301 67.5429 297.14 67.2234C296.982 66.9015 296.692 66.6543 296.273 66.4817C295.855 66.3091 294.922 66.2228 293.469 66.2228V61.6164H294.491C296.224 61.6164 297.553 61.7517 298.479 62.0199C299.403 62.2905 300.182 62.7499 300.811 63.3983C301.443 64.0467 301.868 64.8444 302.094 65.789C302.32 66.7312 302.432 68.2193 302.432 70.2484C302.432 72.5994 302.528 74.1341 302.721 74.8571C303.003 75.8833 303.435 76.6204 304.013 77.0612C304.592 77.5043 305.471 77.7586 306.653 77.8239V82.4465V82.4465Z" fill="#EA3E72"/>
<path d="M186.237 47.9069C187.42 47.8439 188.299 47.5897 188.878 47.1466C189.456 46.7034 189.887 45.9664 190.169 44.9401C190.363 44.2194 190.459 42.6871 190.459 40.3338C190.459 38.3046 190.571 36.8166 190.797 35.872C191.023 34.9274 191.447 34.1321 192.079 33.4837C192.709 32.8353 193.486 32.3735 194.409 32.1053C195.333 31.8371 196.665 31.6994 198.4 31.6994H199.421V36.3058C197.971 36.3058 197.035 36.3921 196.618 36.567C196.201 36.7396 195.911 36.9892 195.75 37.3087C195.592 37.6306 195.505 38.2697 195.491 39.2353C195.429 42.293 195.326 44.2707 195.184 45.1687C194.965 46.4818 194.552 47.5594 193.95 48.4083C193.511 49.0007 192.821 49.6048 191.87 50.2182C192.6 50.6427 193.201 51.1348 193.668 51.6922C194.137 52.252 194.514 52.9331 194.797 53.7377C195.079 54.5401 195.251 55.6106 195.317 56.9471C195.419 59.1558 195.473 60.6531 195.48 61.4368C195.484 62.2205 195.59 62.7756 195.788 63.1044C195.988 63.4333 196.298 63.6805 196.721 63.8555C197.147 64.0281 198.043 64.1143 199.419 64.1143V68.7394H198.397C196.714 68.7394 195.482 68.6227 194.696 68.3918C193.528 68.0466 192.642 67.5732 192.038 66.9761C191.431 66.379 191.018 65.586 190.794 64.5948C190.568 63.6059 190.456 61.8659 190.456 59.3726C190.456 57.859 190.405 56.7931 190.302 56.1751C190.16 55.3518 189.92 54.6684 189.579 54.1203C189.239 53.5768 188.831 53.1897 188.355 52.9564C187.882 52.7255 187.173 52.5832 186.237 52.5319V47.9069V47.9069Z" fill="#EA3E72"/>
<path d="M468.061 229.246H413.684V174.865H468.061V229.246ZM415.538 227.391H466.21V176.719H415.538V227.391Z" fill="#ADB0E1"/>
<path d="M440.87 219.161C439.888 219.161 438.902 218.881 438.034 218.307L416.489 204.056C414.117 202.489 413.467 199.296 415.036 196.926C416.601 194.554 419.796 193.904 422.166 195.473L440.114 207.345L473.486 172.246C475.445 170.184 478.696 170.104 480.76 172.064C482.819 174.02 482.901 177.276 480.942 179.338L444.602 217.563C443.599 218.615 442.242 219.161 440.87 219.161Z" fill="#4093F6"/>
<path d="M398.036 486.023C398.628 483.192 398.656 480.962 397.415 476.862C397.42 476.813 397.399 476.79 397.399 476.79C396.424 473.606 395.883 472.286 395.051 469.149C389.393 468.225 382.347 469.198 377.778 471.411C378.513 475.796 378.462 476.925 377.699 479.348C377.585 479.74 377.426 480.125 377.216 480.507C374.548 485.606 365.894 489.009 362.311 492.442C361.313 493.331 360.716 494.24 360.688 495.162C360.483 499.864 396.56 492.822 398.036 486.023Z" fill="#EA3E72"/>
<path d="M360.814 494.623C360.737 494.809 360.721 494.961 360.718 495.155C360.389 500.192 397.303 493.146 398.707 486.576L398.726 486.548C398.866 486.203 398.947 485.818 399.001 485.419C399.493 482.065 397.676 477.492 397.406 476.848C397.425 476.82 397.394 476.801 397.394 476.801C388.075 482.854 377.223 480.489 377.223 480.489C374.879 484.969 367.955 488.148 363.867 491.138C362.22 492.195 361.087 493.375 360.814 494.623Z" fill="#FFD357"/>
<path d="M360.814 494.623C360.737 494.809 360.721 494.961 360.718 495.155C360.389 500.192 397.303 493.146 398.707 486.576L398.726 486.548C398.866 486.203 398.947 485.818 399.001 485.419C397.114 486.917 393.166 489.559 386.972 491.267C378.954 493.485 370.467 495.446 360.814 494.623Z" fill="#2A2B3B"/>
<path d="M270.847 482.695C275.556 480.846 284.001 480.179 287.91 476.409C288.227 476.113 288.499 475.796 288.733 475.463C290.223 473.403 290.629 472.349 291.315 467.955C296.35 467.302 303.342 468.603 308.417 471.269C308.214 474.509 308.312 475.931 308.232 479.26C308.232 479.26 308.244 479.292 308.223 479.334C308.13 482.718 306.544 486.436 305.629 488.372C293.908 487.395 282.364 485.711 270.847 482.695Z" fill="#EA3E72"/>
<path d="M266.516 486.786C266.446 488.864 302.968 493.48 305.277 490.658L305.301 490.634C305.443 490.495 305.534 490.331 305.65 490.168C305.744 490.005 305.837 489.841 305.93 489.655C307.444 486.623 308.267 480.008 308.221 479.306C308.244 479.283 308.221 479.26 308.221 479.26C297.469 482.058 287.93 476.391 287.93 476.391C284.29 479.915 276.71 480.729 271.883 482.271C267.172 483.313 266.54 486.693 266.516 486.786Z" fill="#FFD357"/>
<path d="M266.346 487.497C266.278 489.573 302.588 494.369 304.895 491.546C304.895 491.546 305.532 490.331 305.651 490.168C293.481 491.11 275.88 488.37 266.633 486.53C266.586 486.625 266.367 487.404 266.346 487.497Z" fill="#2A2B3B"/>
<path d="M192.532 194.625C192.448 194.56 192.357 194.511 192.276 194.439C191.088 193.359 193.006 191.055 194.197 192.137C194.279 192.211 194.384 192.249 194.47 192.316C194.477 191.474 195.333 190.383 196.812 191.027C197.241 191.213 203.274 193.928 208.911 193.112C207.801 192.442 205.938 191.353 204.471 191.043C202.913 190.714 203.277 188.225 204.839 188.573C205.086 188.627 207.099 189.126 207.353 189.28C214.366 191.479 220.976 196.141 226.232 201.319C227.154 202.096 228.049 202.912 228.898 203.803C229.201 204.123 229.196 204.678 229.045 205.053C228.287 206.98 225.659 210.733 224.332 212.307C224.196 212.463 224.031 212.563 223.861 212.64C224.36 213.856 222.634 215.036 221.75 213.835C219.397 210.63 214.285 205.475 214.233 205.438C207.218 204.906 200.431 204.277 193.978 201.366C192.675 200.778 193.276 198.581 194.463 198.642C194.475 198.632 194.484 198.621 194.498 198.611C194.477 198.604 194.459 198.59 194.442 198.581C194.046 198.441 192.346 197.492 191.87 197.126C190.965 196.424 191.704 194.898 192.532 194.625Z" fill="#EA3E72"/>
<path d="M207.833 196.358C201.394 196.358 194.402 192.608 194.333 192.571C194.19 192.494 194.139 192.316 194.214 192.174C194.293 192.03 194.475 191.985 194.61 192.055C194.678 192.095 201.546 195.775 207.833 195.775C207.894 195.775 207.957 195.775 208.018 195.775H208.02C208.179 195.775 208.309 195.904 208.312 196.064C208.314 196.223 208.183 196.356 208.022 196.358C207.962 196.358 207.896 196.358 207.833 196.358Z" fill="#2A2B3C"/>
<path d="M206.768 199.579C201.308 199.579 192.77 195.08 192.397 194.882C192.254 194.807 192.201 194.63 192.275 194.488C192.35 194.348 192.527 194.294 192.67 194.366C192.761 194.415 201.455 198.991 206.772 198.991C206.943 198.991 207.108 198.987 207.269 198.977C207.276 198.977 207.283 198.977 207.288 198.977C207.439 198.977 207.57 199.096 207.579 199.25C207.589 199.411 207.465 199.551 207.307 199.561C207.129 199.572 206.95 199.579 206.768 199.579Z" fill="#2A2B3C"/>
<path d="M206.42 202.147C206.418 202.147 206.418 202.147 206.416 202.147C202.293 202.077 194.678 199.043 194.353 198.915C194.207 198.856 194.132 198.684 194.193 198.534C194.253 198.385 194.426 198.318 194.573 198.374C194.65 198.406 202.411 201.497 206.425 201.564C206.586 201.566 206.714 201.702 206.712 201.86C206.71 202.019 206.581 202.147 206.42 202.147Z" fill="#2A2B3C"/>
<path d="M336.837 181.881C311.859 170.367 284.339 202.264 270.22 219.01C256.098 235.754 264.065 249.372 273.24 247.957C302.029 243.516 351.977 188.862 336.837 181.881Z" fill="#3F4261"/>
<path d="M223.513 194.625C246.742 192.316 275.747 210.76 283.604 220.062C291.461 229.363 274.49 248.638 270.483 247.926C266.477 247.215 216.423 230.375 214.343 210.982C214.34 210.984 219.625 195.012 223.513 194.625Z" fill="#3F4261"/>
<path d="M218.221 219.516C218.221 219.516 238.336 244.542 273.24 247.957C277.576 248.381 301.84 235.178 301.84 235.178L298.39 215.388C298.39 215.388 281.521 238.907 273.1 240.514C264.681 242.123 218.221 219.516 218.221 219.516Z" fill="#343751"/>
<path d="M320.884 481.149C328.392 460.834 332.342 431.146 332.911 409.679C333.541 385.987 342.551 315.578 344.626 303.753C346.093 295.394 348.672 286.261 345.375 278.002C339.164 262.459 300.375 259.299 299.664 259.984C288.653 270.587 290.857 289.018 289.288 303.723C287.352 321.866 285.955 340.182 285.379 358.423C284.833 375.718 274.872 474.548 275.878 473.567C290.092 478.567 310.406 484.981 320.884 481.149Z" fill="#4093F6"/>
<path d="M325.759 294.142C325.759 294.142 318.722 380.035 315.224 395.244C311.726 410.453 304.944 467.591 294.358 479.372C294.358 479.372 311.224 484.533 320.884 481.149C320.884 481.149 330.85 452.774 332.562 419.757C334.269 386.74 346.982 314.606 346.982 314.606L325.759 294.142Z" fill="#2483E2"/>
<path d="M327.202 301.038L341.062 350.58L336.193 384.284L327.202 301.038Z" fill="#2A2B3B"/>
<path d="M329.831 313.458C332.839 331.464 336.386 349.467 340.722 367.219C344.827 384.011 360.805 482.362 361.504 481.151C388.324 483.973 400.762 479.402 408.486 474.427C410.282 452.827 405.464 424.687 400.265 403.836C394.505 380.863 384.313 310.613 383.147 298.648C382.377 290.645 381.538 276.185 376.874 268.698C376.619 268.278 376.339 267.882 376.057 267.509C365.91 254.191 328.62 267.695 328.105 268.535C320.339 281.713 327.405 298.881 329.831 313.458Z" fill="#4093F6"/>
<path d="M362.647 285.001C362.647 285.001 375.357 311.706 374.891 324.045C374.424 336.359 371.509 385.852 379.903 405.677C388.301 425.501 390.85 481.147 390.85 481.147C390.85 481.147 400.081 479.591 408.486 474.422C410.282 452.823 405.464 424.683 400.265 403.832C394.505 380.858 384.313 310.608 383.147 298.643C382.377 290.641 381.538 276.18 376.873 268.693L362.647 272.449V285.001V285.001Z" fill="#2483E2"/>
<path d="M291.212 278.496C291.212 278.496 335.029 290.198 381.274 281.955L379.847 270.995L291.212 278.496Z" fill="#2A2B3B"/>
<path d="M308.477 186.094C308.477 186.094 295.298 197.769 288.234 217.011C283.781 229.142 282.119 245.039 282.119 245.039L298.18 236.353L308.477 186.094Z" fill="#17171D"/>
<path d="M383.362 277.748C383.362 277.748 372.792 195.801 348.5 181.744C332.86 172.694 308.727 180.652 303.339 192.531C292.83 215.7 286.701 277.652 286.701 277.652C286.701 277.652 342.886 289.43 383.362 277.748Z" fill="#EDF1F4"/>
<path d="M321.477 167.237C321.477 167.237 321.759 177.578 322.071 179.663C322.167 180.3 331.703 179.838 332.928 178.609C331.981 176.001 331.491 172.188 331.491 167.237C331.491 162.551 321.477 167.237 321.477 167.237Z" fill="#EA3E72"/>
<path d="M332.758 160.778C332.758 160.778 330.586 173.394 322.617 173.641C314.65 173.886 319.641 156.466 320.835 155.985C322.036 155.505 329.807 153.809 332.758 160.778Z" fill="#EA3E72"/>
<path d="M323.035 149.828C324.11 149.289 325.285 149.061 326.496 149.292C327.953 149.569 328.87 150.686 330.281 150.836C333.434 151.174 334.968 153.208 334.63 155.892C334.71 155.967 334.794 156.037 334.859 156.144C336.013 158.105 336.755 160.174 335.598 162.052C336.862 164.319 334.941 167.288 333.485 169.137C333.359 169.294 333.217 169.382 333.07 169.445C332.664 170.213 331.246 170.341 330.876 169.245C329.94 166.486 330.754 163.164 329.719 160.608C329.222 159.384 328.128 158.483 327.309 157.329C326.083 157.714 324.926 157.541 323.823 156.848C321.199 158.238 316.871 157.627 316.141 154.367C315.173 150.033 319.832 148.708 323.035 149.828Z" fill="#17171D"/>
<path d="M328.653 163.076C328.653 163.076 329.863 160.753 332.065 161.084C334.269 161.415 334.775 166.663 331.046 167.12C327.319 167.577 328.653 163.076 328.653 163.076Z" fill="#EA3E72"/>
<path d="M318.207 167.698C318.916 167.507 319.814 167.418 320.194 166.931C320.842 166.094 321.936 166.227 321.943 167.15C322.769 168.328 324.698 168.925 325.334 168.151C325.686 167.885 326.001 167.579 326.276 167.234C326.838 166.574 327.298 165.753 327.666 164.965C328.368 163.453 328.748 161.805 329.094 160.181C329.406 158.714 331.654 159.335 331.342 160.802C330.892 162.919 330.272 165.177 329.173 167.111C329.203 167.274 329.208 167.456 329.159 167.656C328.333 171.141 326.817 173.42 323.091 174.003C321.962 174.18 320.115 173.916 319.121 173.168C317.992 172.316 317.934 168.316 318.207 167.698Z" fill="#17171D"/>
<path d="M290.109 304.04C289.631 304.04 289.318 304.017 289.269 304.014C289.111 304 288.989 303.863 289.001 303.702C289.012 303.541 289.148 303.45 289.313 303.431C289.362 303.443 294.055 303.76 296.119 301.691C297.844 299.968 298.402 285.787 298.472 280.467C298.474 280.308 298.605 280.18 298.763 280.18C298.901 280.171 299.057 280.313 299.055 280.476C299.043 281.267 298.778 299.861 296.534 302.104C294.818 303.821 291.629 304.04 290.109 304.04Z" fill="#2A2B3C"/>
<path d="M325.194 467.612C323.608 467.596 286.331 467.12 276.181 460.158C276.046 460.067 276.013 459.885 276.104 459.752C276.197 459.614 276.377 459.584 276.51 459.675C286.515 466.541 324.812 467.024 325.197 467.029C325.358 467.031 325.488 467.164 325.486 467.323C325.484 467.486 325.353 467.612 325.194 467.612Z" fill="#2A2B3C"/>
<path d="M359.286 468.078C359.13 468.078 359 467.95 358.995 467.794C358.993 467.633 359.121 467.5 359.279 467.495C380.647 467.036 408.104 459.708 408.379 459.633C408.533 459.589 408.694 459.684 408.736 459.841C408.778 459.995 408.687 460.156 408.528 460.197C408.253 460.27 380.731 467.617 359.293 468.078C359.291 468.078 359.289 468.078 359.286 468.078Z" fill="#2A2B3C"/>
<path d="M311.402 264.638C311.985 266.433 322.619 269.465 336.053 271.145C350.79 273.011 368.913 273.241 380.878 268.463C382.65 267.763 384.283 266.949 385.752 266.014C385.752 266.014 365.812 189.816 348.134 180.72C338.222 175.614 332.671 177.83 332.671 177.83C332.671 177.83 301.723 234.944 311.402 264.638Z" fill="#3F4261"/>
<path d="M342.816 254.28C341.977 260.88 339.178 266.618 336.055 271.143C350.792 273.008 368.916 273.239 380.88 268.46C381.997 253.932 374.163 231.679 374.163 231.679L341.023 184.12C341.023 184.12 330.899 195.015 331.134 206.464C331.365 217.942 344.962 237.37 342.816 254.28Z" fill="#343751"/>
<path d="M322.072 179.663C322.072 179.663 300.088 208.265 301.084 263.852C301.154 267.737 286.865 265.626 285.652 261.965C281.044 248.057 294.358 200.295 306.406 186.786C311.073 181.555 322.072 179.663 322.072 179.663Z" fill="#3F4261"/>
<path d="M332.674 177.837C332.674 177.837 337.259 181.961 336.895 185.38C336.531 188.804 326.097 191.309 326.097 191.309C326.097 191.309 336.093 190.886 338.205 186.094C340.318 181.296 332.674 177.837 332.674 177.837Z" fill="#17171D"/>
<path d="M322.071 179.663C322.071 179.663 312.834 182.416 311.166 187.078C310.681 188.44 315.735 190.481 315.735 190.481C315.735 190.481 309.023 190.178 309.125 186.982C309.23 183.787 322.071 179.663 322.071 179.663Z" fill="#17171D"/>
<path d="M341.872 182.987C341.872 182.987 332.494 194.658 333.784 207.875C335.073 221.093 360.145 249.468 360.924 253.745C361.7 258.021 360.599 272.626 360.599 272.626L370.835 247.947L349.263 218.954L341.872 182.987Z" fill="#17171D"/>
<path d="M341.023 181.809C328.079 206.079 352.628 237.092 368.524 252.162C384.42 267.231 402.53 245.13 401.063 238.844C399.594 232.558 348.866 167.101 341.023 181.809Z" fill="#3F4261"/>
<path d="M291.158 265.759C291.063 265.71 290.962 265.682 290.869 265.626C289.486 264.81 290.899 262.165 292.285 262.984C292.38 263.04 292.49 263.054 292.588 263.103C292.425 262.277 293.04 261.036 294.622 261.37C295.076 261.466 301.534 262.905 306.891 260.964C305.669 260.53 330.71 263.898 331.811 264.451C337.588 267.362 330.908 274.839 329.803 273.843C326.85 271.177 314.655 271.987 314.597 271.959C307.619 272.859 300.846 273.612 293.938 272.068C292.544 271.756 292.688 269.482 293.861 269.3C293.873 269.288 293.88 269.274 293.892 269.263C293.868 269.26 293.847 269.251 293.829 269.246C293.414 269.19 291.553 268.603 291.018 268.337C289.985 267.837 290.4 266.196 291.158 265.759Z" fill="#EA3E72"/>
<path d="M302.173 264.77C297.166 264.77 292.565 263.401 292.504 263.385C292.35 263.336 292.261 263.175 292.308 263.021C292.357 262.87 292.523 262.788 292.672 262.825C292.749 262.849 300.361 265.109 306.553 263.756C306.711 263.723 306.866 263.821 306.898 263.98C306.931 264.138 306.833 264.292 306.674 264.325C305.217 264.645 303.675 264.77 302.173 264.77Z" fill="#2A2B3C"/>
<path d="M222.658 267.422L298.032 269.895L298.14 266.594L222.766 264.121L222.658 267.422Z" fill="#AABFCE"/>
<path d="M298.192 269.836L332.429 265.696L332.536 262.396L298.302 266.536L298.192 269.836Z" fill="#BED0E2"/>
<path d="M332.536 262.396L247.094 257.081L222.93 264.061L298.302 266.536L332.536 262.396Z" fill="#DCE8EF"/>
<path d="M225.055 264.131L299.979 265.794L291.758 219.966L217.759 217.496L215.164 219.182L225.055 264.131Z" fill="#DCE8EF"/>
<path d="M223.228 264.071L298.302 266.536L290.577 222.448L215.164 219.182L223.228 264.071Z" fill="#BED0E2"/>
<path d="M318.797 260.248C322.825 248.311 371.857 234.21 384.029 234.429C396.203 234.648 399.521 260.113 396.345 262.66C393.169 265.207 336.685 298.928 324.66 283.324C324.66 283.324 317.549 263.947 318.797 260.248Z" fill="#3F4261"/>
<path d="M352.684 183.066C352.684 183.066 397.672 220.713 405.014 242.86C412.355 265.008 361.493 277.811 358.062 282.114C358.062 282.114 399.183 252.257 394.129 241.179C389.075 230.1 352.684 183.066 352.684 183.066Z" fill="#343751"/>
<path d="M129.763 427.822C129.822 433.261 135.706 435.414 139.764 433.254C143.085 431.491 145.144 427.834 147.39 424.848C150.692 420.461 154.415 416.457 158.412 412.797C165.418 406.383 173.207 401.028 181.232 396.182C188.07 392.051 195.858 388.832 201.835 383.305C206.231 379.242 209.133 373.623 208.414 367.172C207.761 361.299 203.762 356.7 198.125 356.334C190.669 355.846 183.576 361.663 177.676 365.621C170.318 370.561 163.149 375.865 156.609 381.985C143.929 393.852 129.756 427.223 129.763 427.822Z" fill="#3F4261"/>
<path d="M137.497 419.33C151.297 396.147 171.764 378.302 195.828 368.529C196.872 368.102 197.682 369.8 196.628 370.23C172.823 379.899 152.621 397.464 138.969 420.405C138.365 421.42 136.891 420.347 137.497 419.33Z" fill="#2A2B3C"/>
<path d="M107.971 291.273C109.438 318.034 115.877 344.077 120.686 370.288C123.268 384.359 125.407 398.561 126.015 412.902C126.267 418.889 127.87 433.982 132.602 433.049C142.87 431.027 145.89 373.026 147.709 342.265C148.544 328.159 149.006 313.885 148.418 299.756C147.961 288.773 146.054 277.302 138.892 268.871C133.381 262.38 123.893 257.813 116.3 263.096C107.561 269.176 107.43 281.412 107.971 291.273Z" fill="#4093F6"/>
<path d="M124.989 276.878C124.812 275.693 126.515 275.182 126.692 276.376C133.621 322.93 135.918 370.132 133.509 417.196C133.448 418.4 131.678 418.409 131.741 417.196C134.143 370.307 131.893 323.261 124.989 276.878Z" fill="#2483E2"/>
<path d="M82.6928 338.148C82.828 346.484 85.5379 354.843 88.7587 362.356C96.0141 379.277 107.465 393.667 115.192 410.32C117.466 415.221 119.264 420.254 120.705 425.492C121.423 428.107 122.128 431.274 124.544 432.725C126.477 433.882 131.697 432.004 131.692 430.903C131.636 405.22 131.51 378.731 122.48 354.486C119.159 345.574 114.702 337.117 108.865 329.782C104.518 324.32 97.5698 317.934 90.3564 321.211C84.3393 323.947 82.5925 331.849 82.6928 338.148Z" fill="#92CEFF"/>
<path d="M98.9296 346.416C112.923 371.494 127.268 397.987 127.891 427.936C127.916 429.149 126.146 429.149 126.12 427.936C125.505 398.332 111.229 372.147 97.4042 347.366C96.8188 346.323 98.3512 345.376 98.9296 346.416Z" fill="#4093F6"/>
<path d="M168.464 321.213C162.337 317.936 156.439 324.322 152.747 329.784C147.789 337.12 144.004 345.577 141.184 354.489C133.516 378.733 133.409 405.222 133.362 430.906C133.357 432.009 137.791 433.884 139.433 432.727C141.485 431.276 142.084 428.111 142.693 425.495C143.915 420.256 145.445 415.223 147.374 410.323C153.934 393.667 163.66 379.277 169.821 362.358C172.557 354.846 174.859 346.486 174.973 338.151C175.055 331.849 173.571 323.947 168.464 321.213Z" fill="#92CEFF"/>
<path d="M161.18 346.416C149.298 371.494 137.117 397.987 136.587 427.936C136.566 429.149 138.068 429.149 138.092 427.936C138.614 398.332 150.737 372.147 162.479 347.366C162.971 346.323 161.675 345.376 161.18 346.416Z" fill="#4093F6"/>
<path d="M147.999 495.029H117.079L108.191 424.165H156.882L147.999 495.029Z" fill="#BED0E2"/>
<path d="M120.635 112.825H127.888V135.647C127.888 138.63 127.627 140.928 127.1 142.53C126.396 144.629 125.118 146.315 123.264 147.586C121.412 148.858 118.968 149.49 115.936 149.49C112.379 149.49 109.641 148.496 107.724 146.502C105.807 144.51 104.839 141.592 104.823 137.737L111.682 136.949C111.763 139.017 112.067 140.475 112.591 141.326C113.38 142.621 114.578 143.267 116.183 143.267C117.806 143.267 118.954 142.807 119.625 141.877C120.299 140.953 120.635 139.029 120.635 136.114V112.825V112.825Z" fill="#ABAFF1"/>
<path d="M133.793 137.147L140.874 136.459C141.301 138.838 142.166 140.583 143.467 141.697C144.769 142.812 146.53 143.37 148.743 143.37C151.087 143.37 152.852 142.873 154.039 141.879C155.229 140.89 155.826 139.729 155.826 138.404C155.826 137.548 155.576 136.823 155.075 136.226C154.573 135.624 153.701 135.106 152.455 134.663C151.604 134.367 149.662 133.842 146.63 133.091C142.726 132.121 139.988 130.931 138.416 129.525C136.205 127.538 135.097 125.119 135.097 122.269C135.097 120.433 135.617 118.717 136.66 117.117C137.697 115.517 139.199 114.302 141.158 113.469C143.117 112.632 145.482 112.212 148.253 112.212C152.775 112.212 156.182 113.205 158.47 115.19C160.756 117.173 161.957 119.818 162.074 123.13L154.795 123.449C154.482 121.6 153.815 120.265 152.791 119.454C151.768 118.642 150.228 118.239 148.181 118.239C146.065 118.239 144.409 118.672 143.211 119.542C142.441 120.098 142.056 120.846 142.056 121.779C142.056 122.63 142.418 123.365 143.138 123.969C144.057 124.739 146.287 125.541 149.827 126.379C153.37 127.211 155.989 128.079 157.682 128.97C159.382 129.863 160.707 131.088 161.668 132.636C162.624 134.185 163.104 136.097 163.104 138.376C163.104 140.445 162.531 142.376 161.385 144.179C160.238 145.982 158.615 147.323 156.516 148.202C154.417 149.077 151.803 149.518 148.673 149.518C144.113 149.518 140.615 148.461 138.173 146.357C135.724 144.254 134.267 141.182 133.793 137.147Z" fill="#ABAFF1"/>
<path d="M596.445 234.448C594.384 234.448 592.441 233.66 590.957 232.216C589.428 230.724 588.581 228.727 588.579 226.588C588.574 224.454 589.411 222.455 590.936 220.958L627.72 184.583C628.081 184.226 628.669 184.226 629.033 184.592C629.392 184.956 629.387 185.541 629.024 185.905L592.238 222.283C591.072 223.426 590.433 224.956 590.435 226.588C590.437 228.221 591.084 229.749 592.252 230.889C593.423 232.027 594.959 232.676 596.597 232.594C598.229 232.555 599.741 231.873 600.853 230.679L636.237 192.93C636.585 192.559 637.172 192.539 637.55 192.888C637.923 193.238 637.942 193.824 637.592 194.201L602.21 231.948C600.757 233.508 598.78 234.399 596.643 234.448C596.576 234.448 596.51 234.448 596.445 234.448Z" fill="#ADB0E1"/>
<path d="M656.553 192.49C650.89 192.49 645.398 190.691 640.761 187.265C634.684 182.729 630.801 175.837 630.106 168.352C629.488 161.78 631.302 155.258 635.211 149.987C639.446 144.273 645.657 140.546 652.695 139.497C659.743 138.449 666.756 140.203 672.465 144.439C677.762 148.357 681.402 154.067 682.718 160.523C684.231 167.932 682.517 175.648 678.014 181.691C673.788 187.414 667.584 191.146 660.541 192.196C659.209 192.392 657.877 192.49 656.553 192.49ZM656.676 141.057C655.447 141.057 654.209 141.148 652.97 141.332C646.419 142.307 640.643 145.775 636.699 151.095C633.061 155.998 631.377 162.064 631.948 168.18C632.597 175.142 636.211 181.556 641.867 185.777C647.184 189.71 653.731 191.337 660.268 190.36C666.821 189.383 672.591 185.915 676.521 180.59L676.526 180.588C680.717 174.967 682.31 167.79 680.901 160.896C679.679 154.892 676.288 149.577 671.36 145.931C667.055 142.731 661.947 141.057 656.676 141.057Z" fill="#ADB0E1"/>
<path d="M719.327 90.75H473.306C466.649 90.75 461.235 85.3369 461.235 78.6823V12.0677C461.235 5.41301 466.649 0 473.306 0H719.329C725.985 0 731.4 5.41301 731.4 12.0677V78.6823C731.398 85.3369 725.983 90.75 719.327 90.75ZM473.306 3.02329C468.317 3.02329 464.259 7.07986 464.259 12.0677V78.6823C464.259 83.6701 468.317 87.7266 473.306 87.7266H719.329C724.318 87.7266 728.376 83.6701 728.376 78.6823V12.0677C728.376 7.07986 724.318 3.02329 719.329 3.02329H473.306Z" fill="#EDF1F4"/>
<path d="M596.067 88.2178H598.706C599.746 88.2178 600.588 87.3759 600.588 86.3341L598.77 80.3364H592.366L594.182 86.3341C594.184 87.3759 595.027 88.2178 596.067 88.2178Z" fill="#BED0E2"/>
<path d="M597.209 88.2178H599.848C600.888 88.2178 601.73 87.3759 601.73 86.3341L599.914 80.3364H593.51L595.326 86.3341C595.326 87.3759 596.169 88.2178 597.209 88.2178Z" fill="#D3E0EA"/>
<path d="M574.801 88.2178H577.44C578.48 88.2178 579.322 87.3759 579.322 86.3341L581.139 80.3364H574.735L572.919 86.3341C572.919 87.3759 573.761 88.2178 574.801 88.2178Z" fill="#BED0E2"/>
<path d="M586.226 83.3193C601.968 83.3193 614.729 70.5622 614.729 54.8255C614.729 39.0888 601.968 26.3316 586.226 26.3316C570.484 26.3316 557.723 39.0888 557.723 54.8255C557.723 70.5622 570.484 83.3193 586.226 83.3193Z" fill="#BED0E2"/>
<path d="M596.852 32.7752L608.344 38.6549L613.184 29.2011L601.692 23.3214L596.852 32.7752Z" fill="#BED0E2"/>
<path d="M596.937 25.2154L614.802 34.3555L614.844 34.2747C617.371 29.3443 615.419 23.2977 610.484 20.774C605.55 18.2482 599.504 20.2 596.979 25.1325L596.937 25.2154Z" fill="#D3E0EA"/>
<path d="M569.491 39.3058L579.821 31.5664L573.45 23.0684L563.12 30.8078L569.491 39.3058Z" fill="#BED0E2"/>
<path d="M562.687 35.9904L578.746 23.9568L578.691 23.8845C575.367 19.4495 569.078 18.5501 564.643 21.8732C560.209 25.1963 559.307 31.4853 562.631 35.916L562.687 35.9904Z" fill="#D3E0EA"/>
<path d="M588.68 83.3958C604.422 83.3958 617.183 70.6387 617.183 54.902C617.183 39.1653 604.422 26.4082 588.68 26.4082C572.938 26.4082 560.177 39.1653 560.177 54.902C560.177 70.6387 572.938 83.3958 588.68 83.3958Z" fill="#D3E0EA"/>
<path d="M575.943 88.2178H578.582C579.622 88.2178 580.465 87.3759 580.465 86.3341L582.281 80.3364H575.877L574.059 86.3341C574.061 87.3759 574.903 88.2178 575.943 88.2178Z" fill="#D3E0EA"/>
<path d="M588.363 79.6497C602.078 79.6497 613.196 68.5355 613.196 54.8255C613.196 41.1154 602.078 30.0013 588.363 30.0013C574.649 30.0013 563.531 41.1154 563.531 54.8255C563.531 68.5355 574.649 79.6497 588.363 79.6497Z" fill="white"/>
<path d="M588.876 31.8381H587.853V36.1009H588.876V31.8381Z" fill="#BED0E2"/>
<path d="M597.984 37.2954L598.87 37.8063L600.338 35.263L599.452 34.7521L597.984 37.2954Z" fill="#BED0E2"/>
<path d="M605.449 44.3095L605.96 45.1933L608.505 43.7238L607.995 42.8401L605.449 44.3095Z" fill="#BED0E2"/>
<path d="M611.36 54.3152H607.098V55.3378H611.36V54.3152Z" fill="#BED0E2"/>
<path d="M606.049 64.4026L605.538 65.2864L608.084 66.7558L608.594 65.872L606.049 64.4026Z" fill="#BED0E2"/>
<path d="M598.746 71.9647L597.86 72.4757L599.329 75.0208L600.215 74.5098L598.746 71.9647Z" fill="#BED0E2"/>
<path d="M588.876 73.4648H587.853V77.8168H588.876V73.4648Z" fill="#BED0E2"/>
<path d="M578.747 72.3571L577.86 71.8462L576.393 74.3895L577.279 74.9004L578.747 72.3571Z" fill="#BED0E2"/>
<path d="M571.225 65.1914L570.713 64.3064L568.169 65.7779L568.681 66.6629L571.225 65.1914Z" fill="#BED0E2"/>
<path d="M569.72 54.3152H565.366V55.3378H569.72V54.3152Z" fill="#BED0E2"/>
<path d="M570.833 45.2043L571.345 44.3193L568.799 42.8467L568.287 43.7318L570.833 45.2043Z" fill="#BED0E2"/>
<path d="M577.981 37.6894L578.867 37.1785L577.399 34.6334L576.512 35.1443L577.981 37.6894Z" fill="#BED0E2"/>
<path d="M602.95 41.6526L601.654 40.3567L587.052 54.9543L588.348 56.2502L602.95 41.6526Z" fill="#4C5072"/>
<path d="M600.314 65.9115L601.015 64.9724L589.79 56.6069L589.09 57.5461L600.314 65.9115Z" fill="#4C5072"/>
<path d="M588.363 58.5418C590.229 58.5418 591.741 57.0303 591.741 55.1656C591.741 53.301 590.229 51.7894 588.363 51.7894C586.498 51.7894 584.986 53.301 584.986 55.1656C584.986 57.0303 586.498 58.5418 588.363 58.5418Z" fill="#4093F5"/>
<path d="M588.363 56.9556C589.352 56.9556 590.154 56.1542 590.154 55.1655C590.154 54.1768 589.352 53.3753 588.363 53.3753C587.374 53.3753 586.573 54.1768 586.573 55.1655C586.573 56.1542 587.374 56.9556 588.363 56.9556Z" fill="white"/>
<path d="M685.362 26.2274H669.126V88.2837H685.362V26.2274Z" fill="#92CEFF"/>
<path d="M688.907 26.2274H685.362V88.2837H688.907V26.2274Z" fill="#EDF1F4"/>
<path d="M666.415 29.4515L650.874 24.7528L632.903 84.1531L648.444 88.8518L666.415 29.4515Z" fill="#92CEFF"/>
<path d="M648.477 88.7818L651.87 89.8075L669.835 30.4073L666.442 29.3816L648.477 88.7818Z" fill="#EDF1F4"/>
<path d="M705.904 43.7676H691.123V88.2837H705.904V43.7676Z" fill="#FFD357"/>
<path d="M709.133 43.7676H705.904V88.2837H709.133V43.7676Z" fill="#EDF1F4"/>
<path d="M554.609 71.3919H481.018V88.1731H554.609V71.3919Z" fill="#4093F5"/>
<path d="M546.04 77.2343H523.862V82.3285H546.04V77.2343Z" fill="#4C5072"/>
<path d="M544.024 54.5215H470.433V71.3027H544.024V54.5215Z" fill="#E93E72"/>
<path d="M535.455 60.3661H513.277V65.4602H535.455V60.3661Z" fill="#4C5072"/>
</svg>
