<svg width="100%" height="100%" viewBox="0 0 3273 2054" fill="none" xmlns="http://www.w3.org/2000/svg">
<g clip-path="url(#clip0)">
<rect width="3273" height="2054" fill="white"/>
<path fill-rule="evenodd" clip-rule="evenodd" d="M5951.36 408.492C5896.44 728.988 5761.54 1023.59 5626.99 1314.27C5486.03 1618.81 5359.94 1950.7 5136.78 2168.31C4912.83 2386.69 4633.77 2511.81 4362.51 2547.3C4100.31 2581.59 3837.92 2509.59 3614.13 2367.49C3407.24 2236.12 3702.8 2098.49 3489 1983C3260.67 1859.66 2806.09 1744.96 2616 1550C2438.11 1367.55 2248.61 1114.55 2130 866.5C1973.56 539.336 1414.93 358.678 1370.5 -29.5C1330.37 -380.087 1896.5 -587.164 2022.49 -925.93C2148.1 -1263.68 2080.14 -1743.75 2326.61 -1959.23C2597.63 -2196.18 2954.79 -1906.06 3266.37 -2013.42C3506.96 -2096.33 3685.64 -2367.34 3913.33 -2506C4197.29 -2678.94 4514.55 -3084.93 4781.94 -2936.45C5072.83 -2774.91 4937.61 -2144.44 5128.62 -1831.14C5270.28 -1598.79 5583.97 -1614.57 5728.03 -1384.64C5873.72 -1152.1 5905.69 -832.191 5943.2 -531.024C5981.53 -223.202 6005.46 92.7712 5951.36 408.492Z" fill="#E3F2FF"/>
</g>
<defs>
<clipPath id="clip0">
<rect width="3273" height="2054" fill="white"/>
</clipPath>
</defs>
</svg>
