<svg
  preserveAspectRatio="xMinYMin slice"
  viewBox="0 0 734 506"
  fill="none"
  xmlns="http://www.w3.org/2000/svg"
>
  <g id="Frame 4">
    <g id="code">
      <g id="Group">
        <path
          id="Vector"
          d="M444.26 444.209L428.944 454.933L321.948 329.938L319.012 305.82L334.327 295.096L501.219 283.886L486.627 324.898L471.311 335.622L372.055 327.615L458.708 403.473L444.26 444.209Z"
          fill="#BED0E2"
        />
        <path
          id="Vector_2"
          d="M447.807 476.612L562.283 287.704L577.598 276.98L607.956 287.753L477.596 487.201L462.281 497.925L447.807 476.612Z"
          fill="#BED0E2"
        />
        <path
          id="Vector_3"
          d="M553.57 483.232L552.723 453.198L568.039 442.476L683.181 438.682L596.111 363.475L595.178 333.756L610.496 323.032L733.03 437.077L720.756 471.626L705.44 482.35L553.57 483.232Z"
          fill="#BED0E2"
        />
      </g>
      <g id="Group_2">
        <path
          id="Vector_4"
          d="M428.944 454.933L306.63 340.662L319.014 305.822L485.903 294.613L471.313 335.625L356.742 338.342L443.395 414.199L428.944 454.933Z"
          fill="#EDF1F4"
        />
        <path
          id="Vector_5"
          d="M432.492 487.334L562.283 287.702L592.639 298.473L462.278 497.923L432.492 487.334Z"
          fill="#EDF1F4"
        />
        <path
          id="Vector_6"
          d="M538.252 493.956L552.723 453.198L667.866 449.406L580.793 374.199L595.178 333.756L717.712 447.801L705.44 482.35L538.252 493.956Z"
          fill="#EDF1F4"
        />
      </g>
    </g>
    <g id="conversation_text">
      <path
        id="conversation"
        d="M224.315 16.257H105.886C96.4922 16.257 88.8729 23.8745 88.8729 33.2691V98.1899C88.8729 107.585 96.4922 115.202 105.886 115.202H179.945L197.894 139.367C199.802 141.938 203.883 140.583 203.878 137.383L203.85 115.2H224.313C233.709 115.2 241.326 107.582 241.326 98.1876V33.2668C241.328 23.8721 233.714 16.257 224.315 16.257Z"
        fill="#EDF1F4"
      />
      <g id="bottom_text">
        <path
          id="Vector_7"
          d="M203.274 75.7457H168.254C167.669 75.7457 167.195 75.2722 167.195 74.6867C167.195 74.1013 167.669 73.6278 168.254 73.6278H203.274C203.86 73.6278 204.333 74.1013 204.333 74.6867C204.333 75.2722 203.86 75.7457 203.274 75.7457Z"
          fill="#2A2B3C"
        />
        <path
          id="Vector_8"
          d="M161.88 75.7457H147.7C147.115 75.7457 146.641 75.2722 146.641 74.6868C146.641 74.1014 147.115 73.6279 147.7 73.6279H161.88C162.465 73.6279 162.939 74.1014 162.939 74.6868C162.939 75.2722 162.465 75.7457 161.88 75.7457Z"
          fill="#2A2B3C"
        />
        <path
          id="Vector_9"
          d="M203.274 91.7736H184.619C184.034 91.7736 183.56 91.3001 183.56 90.7147C183.56 90.1293 184.034 89.6558 184.619 89.6558H203.274C203.86 89.6558 204.333 90.1293 204.333 90.7147C204.333 91.3001 203.86 91.7736 203.274 91.7736Z"
          fill="#2A2B3C"
        />
        <path
          id="Vector_10"
          d="M179.084 91.7736H147.7C147.115 91.7736 146.641 91.3001 146.641 90.7147C146.641 90.1293 147.115 89.6558 147.7 89.6558H179.084C179.67 89.6558 180.143 90.1293 180.143 90.7147C180.143 91.3001 179.67 91.7736 179.084 91.7736Z"
          fill="#2A2B3C"
        />
      </g>
      <g id="top_text">
        <path
          id="Vector_11"
          d="M196.951 42.0549H153.409C152.824 42.0549 152.35 41.5814 152.35 40.996C152.35 40.4106 152.824 39.9372 153.409 39.9372H196.951C197.537 39.9372 198.01 40.4106 198.01 40.996C198.01 41.5814 197.537 42.0549 196.951 42.0549Z"
          fill="#2A2B3C"
        />
        <path
          id="Vector_12"
          d="M145.485 42.0549H127.853C127.268 42.0549 126.794 41.5814 126.794 40.996C126.794 40.4106 127.268 39.9372 127.853 39.9372H145.485C146.07 39.9372 146.543 40.4106 146.543 40.996C146.543 41.5814 146.07 42.0549 145.485 42.0549Z"
          fill="#2A2B3C"
        />
        <path
          id="Vector_13"
          d="M196.951 59.2489H173.758C173.173 59.2489 172.699 58.7754 172.699 58.19C172.699 57.6046 173.173 57.1311 173.758 57.1311H196.951C197.537 57.1311 198.01 57.6046 198.01 58.19C198.01 58.7754 197.537 59.2489 196.951 59.2489Z"
          fill="#2A2B3C"
        />
        <path
          id="Vector_14"
          d="M166.875 59.2489H127.856C127.27 59.2489 126.797 58.7754 126.797 58.19C126.797 57.6046 127.27 57.1311 127.856 57.1311H166.875C167.461 57.1311 167.934 57.6046 167.934 58.19C167.934 58.7754 167.459 59.2489 166.875 59.2489Z"
          fill="#2A2B3C"
        />
      </g>
      <g id="right_curly_brace">
        <path
          id="Vector_15"
          d="M224.653 82.4465C223.716 82.4979 223.009 82.6401 222.533 82.871C222.058 83.1043 221.65 83.4915 221.311 84.0372C220.971 84.583 220.731 85.2664 220.586 86.0897C220.486 86.7078 220.434 87.7737 220.434 89.2897C220.434 91.7806 220.323 93.5205 220.096 94.5118C219.87 95.5007 219.457 96.296 218.853 96.8931C218.249 97.4902 217.363 97.9613 216.192 98.3088C215.408 98.5397 214.177 98.654 212.493 98.654H211.472V94.029C212.848 94.029 213.748 93.9427 214.17 93.7701C214.592 93.5975 214.905 93.3433 215.105 93.0191C215.304 92.6902 215.406 92.1352 215.413 91.3515C215.418 90.5678 215.471 89.0704 215.574 86.8617C215.639 85.5253 215.814 84.457 216.096 83.6524C216.379 82.8477 216.754 82.1667 217.223 81.6093C217.692 81.0519 218.293 80.5597 219.023 80.1352C218.074 79.5171 217.379 78.9154 216.941 78.3253C216.337 77.4763 215.926 76.3964 215.709 75.0857C215.567 74.1854 215.467 72.2076 215.399 69.1499C215.388 68.1866 215.301 67.5429 215.14 67.2234C214.982 66.9015 214.692 66.6543 214.273 66.4817C213.855 66.3091 212.922 66.2228 211.469 66.2228V61.6164H212.491C214.224 61.6164 215.553 61.7517 216.479 62.0199C217.403 62.2905 218.182 62.7499 218.811 63.3983C219.443 64.0467 219.868 64.8444 220.094 65.789C220.32 66.7312 220.432 68.2193 220.432 70.2484C220.432 72.5994 220.528 74.1341 220.721 74.8571C221.003 75.8833 221.435 76.6204 222.013 77.0612C222.592 77.5043 223.471 77.7586 224.653 77.8239V82.4465V82.4465Z"
          fill="#EA3E72"
        />
      </g>
      <g id="left_curly_brace">
        <path
          id="Vector_16"
          d="M104.237 47.9069C105.42 47.8439 106.299 47.5897 106.878 47.1466C107.456 46.7034 107.887 45.9664 108.169 44.9401C108.363 44.2194 108.459 42.6871 108.459 40.3338C108.459 38.3046 108.571 36.8166 108.797 35.872C109.023 34.9274 109.447 34.1321 110.079 33.4837C110.709 32.8353 111.486 32.3735 112.409 32.1053C113.333 31.8371 114.665 31.6994 116.4 31.6994H117.421V36.3058C115.971 36.3058 115.035 36.3921 114.618 36.567C114.201 36.7396 113.911 36.9892 113.75 37.3087C113.592 37.6306 113.505 38.2697 113.491 39.2353C113.429 42.293 113.326 44.2707 113.184 45.1687C112.965 46.4818 112.552 47.5594 111.95 48.4083C111.511 49.0007 110.821 49.6048 109.87 50.2182C110.6 50.6427 111.201 51.1348 111.668 51.6922C112.137 52.252 112.514 52.9331 112.797 53.7377C113.079 54.5401 113.251 55.6106 113.317 56.9471C113.419 59.1558 113.473 60.6531 113.48 61.4368C113.484 62.2205 113.59 62.7756 113.788 63.1044C113.988 63.4333 114.298 63.6805 114.721 63.8555C115.147 64.0281 116.043 64.1143 117.419 64.1143V68.7394H116.397C114.714 68.7394 113.482 68.6227 112.696 68.3918C111.528 68.0466 110.642 67.5732 110.038 66.9761C109.431 66.379 109.018 65.586 108.794 64.5948C108.568 63.6059 108.456 61.8659 108.456 59.3726C108.456 57.859 108.405 56.7931 108.302 56.1751C108.16 55.3518 107.92 54.6684 107.579 54.1203C107.239 53.5768 106.831 53.1897 106.355 52.9564C105.882 52.7255 105.173 52.5832 104.237 52.5319V47.9069V47.9069Z"
          fill="#EA3E72"
        />
      </g>
    </g>
    <g id="todo" class="todo">
      <path
        id="Vector_17"
        d="M386.061 229.246H331.684V174.865H386.061V229.246ZM333.538 227.391H384.21V176.719H333.538V227.391Z"
        fill="#ADB0E1"
      />
      <path
        id="Vector_18"
        d="M358.87 219.161C357.888 219.161 356.902 218.881 356.034 218.307L334.489 204.056C332.117 202.489 331.467 199.296 333.036 196.926C334.601 194.554 337.796 193.904 340.166 195.473L358.114 207.345L391.486 172.246C393.445 170.184 396.696 170.104 398.76 172.064C400.819 174.02 400.901 177.276 398.942 179.338L362.602 217.563C361.599 218.615 360.242 219.161 358.87 219.161Z"
        fill="#4093F6"
      />
    </g>
    <g id="figure">
      <g id="Group_3">
        <path
          id="Vector_19"
          d="M316.036 486.023C316.628 483.192 316.656 480.962 315.415 476.862C315.42 476.813 315.399 476.79 315.399 476.79C314.424 473.606 313.883 472.286 313.051 469.149C307.393 468.225 300.347 469.198 295.778 471.411C296.513 475.796 296.462 476.925 295.699 479.348C295.585 479.74 295.426 480.125 295.216 480.507C292.548 485.606 283.894 489.009 280.311 492.442C279.313 493.331 278.716 494.24 278.688 495.162C278.483 499.864 314.56 492.822 316.036 486.023Z"
          fill="#EA3E72"
        />
        <path
          id="Vector_20"
          d="M278.814 494.623C278.737 494.809 278.721 494.961 278.718 495.155C278.389 500.192 315.303 493.146 316.707 486.576L316.726 486.548C316.866 486.203 316.947 485.818 317.001 485.419C317.493 482.065 315.676 477.492 315.406 476.848C315.425 476.82 315.394 476.801 315.394 476.801C306.075 482.854 295.223 480.489 295.223 480.489C292.879 484.969 285.955 488.148 281.867 491.138C280.22 492.195 279.087 493.375 278.814 494.623Z"
          fill="#FFD357"
        />
        <path
          id="Vector_21"
          d="M278.814 494.623C278.737 494.809 278.721 494.961 278.718 495.155C278.389 500.192 315.303 493.146 316.707 486.576L316.726 486.548C316.866 486.203 316.947 485.818 317.001 485.419C315.114 486.917 311.166 489.559 304.972 491.267C296.954 493.485 288.467 495.446 278.814 494.623Z"
          fill="#2A2B3B"
        />
      </g>
      <g id="Group_4">
        <g id="Group_5">
          <path
            id="Vector_22"
            d="M188.847 482.695C193.556 480.846 202.001 480.179 205.91 476.409C206.227 476.113 206.499 475.796 206.733 475.463C208.223 473.403 208.629 472.349 209.315 467.955C214.35 467.302 221.342 468.603 226.417 471.269C226.214 474.509 226.312 475.931 226.232 479.26C226.232 479.26 226.244 479.292 226.223 479.334C226.13 482.718 224.544 486.436 223.629 488.372C211.908 487.395 200.364 485.711 188.847 482.695Z"
            fill="#EA3E72"
          />
          <path
            id="Vector_23"
            d="M184.516 486.786C184.446 488.864 220.968 493.48 223.277 490.658L223.301 490.634C223.443 490.495 223.534 490.331 223.65 490.168C223.744 490.005 223.837 489.841 223.93 489.655C225.444 486.623 226.267 480.008 226.221 479.306C226.244 479.283 226.221 479.26 226.221 479.26C215.469 482.058 205.93 476.391 205.93 476.391C202.29 479.915 194.71 480.729 189.883 482.271C185.172 483.313 184.54 486.693 184.516 486.786Z"
            fill="#FFD357"
          />
        </g>
        <path
          id="Vector_24"
          d="M184.346 487.497C184.278 489.573 220.588 494.369 222.895 491.546C222.895 491.546 223.532 490.331 223.651 490.168C211.481 491.11 193.88 488.37 184.633 486.53C184.586 486.625 184.367 487.404 184.346 487.497Z"
          fill="#2A2B3B"
        />
      </g>
      <g id="Group_6">
        <path
          id="Vector_25"
          d="M110.532 194.625C110.448 194.56 110.357 194.511 110.276 194.439C109.088 193.359 111.006 191.055 112.197 192.137C112.279 192.211 112.384 192.249 112.47 192.316C112.477 191.474 113.333 190.383 114.812 191.027C115.241 191.213 121.274 193.928 126.911 193.112C125.801 192.442 123.938 191.353 122.471 191.043C120.913 190.714 121.277 188.225 122.839 188.573C123.086 188.627 125.099 189.126 125.353 189.28C132.366 191.479 138.976 196.141 144.232 201.319C145.154 202.096 146.049 202.912 146.898 203.803C147.201 204.123 147.196 204.678 147.045 205.053C146.287 206.98 143.659 210.733 142.332 212.307C142.196 212.463 142.031 212.563 141.861 212.64C142.36 213.856 140.634 215.036 139.75 213.835C137.397 210.63 132.285 205.475 132.233 205.438C125.218 204.906 118.431 204.277 111.978 201.366C110.675 200.778 111.276 198.581 112.463 198.642C112.475 198.632 112.484 198.621 112.498 198.611C112.477 198.604 112.459 198.59 112.442 198.581C112.046 198.441 110.346 197.492 109.87 197.126C108.965 196.424 109.704 194.898 110.532 194.625Z"
          fill="#EA3E72"
        />
        <path
          id="Vector_26"
          d="M125.833 196.358C119.394 196.358 112.402 192.608 112.333 192.571C112.19 192.494 112.139 192.316 112.214 192.174C112.293 192.03 112.475 191.985 112.61 192.055C112.678 192.095 119.546 195.775 125.833 195.775C125.894 195.775 125.957 195.775 126.018 195.775H126.02C126.179 195.775 126.309 195.904 126.312 196.064C126.314 196.223 126.183 196.356 126.022 196.358C125.962 196.358 125.896 196.358 125.833 196.358Z"
          fill="#2A2B3C"
        />
        <path
          id="Vector_27"
          d="M124.768 199.579C119.308 199.579 110.77 195.08 110.397 194.882C110.254 194.807 110.201 194.63 110.275 194.488C110.35 194.348 110.527 194.294 110.67 194.366C110.761 194.415 119.455 198.991 124.772 198.991C124.943 198.991 125.108 198.987 125.269 198.977C125.276 198.977 125.283 198.977 125.288 198.977C125.439 198.977 125.57 199.096 125.579 199.25C125.589 199.411 125.465 199.551 125.307 199.561C125.129 199.572 124.95 199.579 124.768 199.579Z"
          fill="#2A2B3C"
        />
        <path
          id="Vector_28"
          d="M124.42 202.147C124.418 202.147 124.418 202.147 124.416 202.147C120.293 202.077 112.678 199.043 112.353 198.915C112.207 198.856 112.132 198.684 112.193 198.534C112.253 198.385 112.426 198.318 112.573 198.374C112.65 198.406 120.411 201.497 124.425 201.564C124.586 201.566 124.714 201.702 124.712 201.86C124.71 202.019 124.581 202.147 124.42 202.147Z"
          fill="#2A2B3C"
        />
      </g>
      <path
        id="Vector_29"
        d="M254.837 181.881C229.859 170.367 202.339 202.264 188.22 219.01C174.098 235.754 182.065 249.372 191.24 247.957C220.029 243.516 269.977 188.862 254.837 181.881Z"
        fill="#3F4261"
      />
      <path
        id="Vector_30"
        d="M141.513 194.625C164.742 192.316 193.747 210.76 201.604 220.062C209.461 229.363 192.49 248.638 188.483 247.926C184.477 247.215 134.423 230.375 132.343 210.982C132.34 210.984 137.625 195.012 141.513 194.625Z"
        fill="#3F4261"
      />
      <path
        id="Vector_31"
        d="M136.221 219.516C136.221 219.516 156.336 244.542 191.24 247.957C195.576 248.381 219.84 235.178 219.84 235.178L216.39 215.388C216.39 215.388 199.521 238.907 191.1 240.514C182.681 242.123 136.221 219.516 136.221 219.516Z"
        fill="#343751"
      />
      <path
        id="Vector_32"
        d="M238.884 481.149C246.392 460.834 250.342 431.146 250.911 409.679C251.541 385.987 260.551 315.578 262.626 303.753C264.093 295.394 266.672 286.261 263.375 278.002C257.164 262.459 218.375 259.299 217.664 259.984C206.653 270.587 208.857 289.018 207.288 303.723C205.352 321.866 203.955 340.182 203.379 358.423C202.833 375.718 192.872 474.548 193.878 473.567C208.092 478.567 228.406 484.981 238.884 481.149Z"
        fill="#4093F6"
      />
      <path
        id="Vector_33"
        d="M243.759 294.142C243.759 294.142 236.722 380.035 233.224 395.244C229.726 410.453 222.944 467.591 212.358 479.372C212.358 479.372 229.224 484.533 238.884 481.149C238.884 481.149 248.85 452.774 250.562 419.757C252.269 386.74 264.982 314.606 264.982 314.606L243.759 294.142Z"
        fill="#2483E2"
      />
      <path
        id="Vector_34"
        d="M245.202 301.038L259.062 350.58L254.193 384.284L245.202 301.038Z"
        fill="#2A2B3B"
      />
      <path
        id="Vector_35"
        d="M247.831 313.458C250.839 331.464 254.386 349.467 258.722 367.219C262.827 384.011 278.805 482.362 279.504 481.151C306.324 483.973 318.762 479.402 326.486 474.427C328.282 452.827 323.464 424.687 318.265 403.836C312.505 380.863 302.313 310.613 301.147 298.648C300.377 290.645 299.538 276.185 294.874 268.698C294.619 268.278 294.339 267.882 294.057 267.509C283.91 254.191 246.62 267.695 246.105 268.535C238.339 281.713 245.405 298.881 247.831 313.458Z"
        fill="#4093F6"
      />
      <path
        id="Vector_36"
        d="M280.647 285.001C280.647 285.001 293.357 311.706 292.891 324.045C292.424 336.359 289.509 385.852 297.903 405.677C306.301 425.501 308.85 481.147 308.85 481.147C308.85 481.147 318.081 479.591 326.486 474.422C328.282 452.823 323.464 424.683 318.265 403.832C312.505 380.858 302.313 310.608 301.147 298.643C300.377 290.641 299.538 276.18 294.873 268.693L280.647 272.449V285.001V285.001Z"
        fill="#2483E2"
      />
      <path
        id="Vector_37"
        d="M209.212 278.496C209.212 278.496 253.029 290.198 299.274 281.955L297.847 270.995L209.212 278.496Z"
        fill="#2A2B3B"
      />
      <path
        id="Vector_38"
        d="M226.477 186.094C226.477 186.094 213.298 197.769 206.234 217.011C201.781 229.142 200.119 245.039 200.119 245.039L216.18 236.353L226.477 186.094Z"
        fill="#17171D"
      />
      <path
        id="Vector_39"
        d="M301.362 277.748C301.362 277.748 290.792 195.801 266.5 181.744C250.86 172.694 226.727 180.652 221.339 192.531C210.83 215.7 204.701 277.652 204.701 277.652C204.701 277.652 260.886 289.43 301.362 277.748Z"
        fill="#EDF1F4"
      />
      <path
        id="Vector_40"
        d="M239.477 167.237C239.477 167.237 239.759 177.578 240.071 179.663C240.167 180.3 249.703 179.838 250.928 178.609C249.981 176.001 249.491 172.188 249.491 167.237C249.491 162.551 239.477 167.237 239.477 167.237Z"
        fill="#EA3E72"
      />
      <path
        id="Vector_41"
        d="M250.758 160.778C250.758 160.778 248.586 173.394 240.617 173.641C232.65 173.886 237.641 156.466 238.835 155.985C240.036 155.505 247.807 153.809 250.758 160.778Z"
        fill="#EA3E72"
      />
      <path
        id="Vector_42"
        d="M241.035 149.828C242.11 149.289 243.285 149.061 244.496 149.292C245.953 149.569 246.87 150.686 248.281 150.836C251.434 151.174 252.968 153.208 252.63 155.892C252.71 155.967 252.794 156.037 252.859 156.144C254.013 158.105 254.755 160.174 253.598 162.052C254.862 164.319 252.941 167.288 251.485 169.137C251.359 169.294 251.217 169.382 251.07 169.445C250.664 170.213 249.246 170.341 248.876 169.245C247.94 166.486 248.754 163.164 247.719 160.608C247.222 159.384 246.128 158.483 245.309 157.329C244.083 157.714 242.926 157.541 241.823 156.848C239.199 158.238 234.871 157.627 234.141 154.367C233.173 150.033 237.832 148.708 241.035 149.828Z"
        fill="#17171D"
      />
      <path
        id="Vector_43"
        d="M246.653 163.076C246.653 163.076 247.863 160.753 250.065 161.084C252.269 161.415 252.775 166.663 249.046 167.12C245.319 167.577 246.653 163.076 246.653 163.076Z"
        fill="#EA3E72"
      />
      <path
        id="Vector_44"
        d="M236.207 167.698C236.916 167.507 237.814 167.418 238.194 166.931C238.842 166.094 239.936 166.227 239.943 167.15C240.769 168.328 242.698 168.925 243.334 168.151C243.686 167.885 244.001 167.579 244.276 167.234C244.838 166.574 245.298 165.753 245.666 164.965C246.368 163.453 246.748 161.805 247.094 160.181C247.406 158.714 249.654 159.335 249.342 160.802C248.892 162.919 248.272 165.177 247.173 167.111C247.203 167.274 247.208 167.456 247.159 167.656C246.333 171.141 244.817 173.42 241.091 174.003C239.962 174.18 238.115 173.916 237.121 173.168C235.992 172.316 235.934 168.316 236.207 167.698Z"
        fill="#17171D"
      />
      <path
        id="Vector_45"
        d="M208.109 304.04C207.631 304.04 207.318 304.017 207.269 304.014C207.111 304 206.989 303.863 207.001 303.702C207.012 303.541 207.148 303.45 207.313 303.431C207.362 303.443 212.055 303.76 214.119 301.691C215.844 299.968 216.402 285.787 216.472 280.467C216.474 280.308 216.605 280.18 216.763 280.18C216.901 280.171 217.057 280.313 217.055 280.476C217.043 281.267 216.778 299.861 214.534 302.104C212.818 303.821 209.629 304.04 208.109 304.04Z"
        fill="#2A2B3C"
      />
      <path
        id="Vector_46"
        d="M243.194 467.612C241.608 467.596 204.331 467.12 194.181 460.158C194.046 460.067 194.013 459.885 194.104 459.752C194.197 459.614 194.377 459.584 194.51 459.675C204.515 466.541 242.812 467.024 243.197 467.029C243.358 467.031 243.488 467.164 243.486 467.323C243.484 467.486 243.353 467.612 243.194 467.612Z"
        fill="#2A2B3C"
      />
      <path
        id="Vector_47"
        d="M277.286 468.078C277.13 468.078 277 467.95 276.995 467.794C276.993 467.633 277.121 467.5 277.279 467.495C298.647 467.036 326.104 459.708 326.379 459.633C326.533 459.589 326.694 459.684 326.736 459.841C326.778 459.995 326.687 460.156 326.528 460.197C326.253 460.27 298.731 467.617 277.293 468.078C277.291 468.078 277.289 468.078 277.286 468.078Z"
        fill="#2A2B3C"
      />
      <path
        id="Vector_48"
        d="M229.402 264.638C229.985 266.433 240.619 269.465 254.053 271.145C268.79 273.011 286.913 273.241 298.878 268.463C300.65 267.763 302.283 266.949 303.752 266.014C303.752 266.014 283.812 189.816 266.134 180.72C256.222 175.614 250.671 177.83 250.671 177.83C250.671 177.83 219.723 234.944 229.402 264.638Z"
        fill="#3F4261"
      />
      <path
        id="Vector_49"
        d="M260.816 254.28C259.977 260.88 257.178 266.618 254.055 271.143C268.792 273.008 286.916 273.239 298.88 268.46C299.997 253.932 292.163 231.679 292.163 231.679L259.023 184.12C259.023 184.12 248.899 195.015 249.134 206.464C249.365 217.942 262.962 237.37 260.816 254.28Z"
        fill="#343751"
      />
      <path
        id="Vector_50"
        d="M240.072 179.663C240.072 179.663 218.088 208.265 219.084 263.852C219.154 267.737 204.865 265.626 203.652 261.965C199.044 248.057 212.358 200.295 224.406 186.786C229.073 181.555 240.072 179.663 240.072 179.663Z"
        fill="#3F4261"
      />
      <path
        id="Vector_51"
        d="M250.674 177.837C250.674 177.837 255.259 181.961 254.895 185.38C254.531 188.804 244.097 191.309 244.097 191.309C244.097 191.309 254.093 190.886 256.205 186.094C258.318 181.296 250.674 177.837 250.674 177.837Z"
        fill="#17171D"
      />
      <path
        id="Vector_52"
        d="M240.071 179.663C240.071 179.663 230.834 182.416 229.166 187.078C228.681 188.44 233.735 190.481 233.735 190.481C233.735 190.481 227.023 190.178 227.125 186.982C227.23 183.787 240.071 179.663 240.071 179.663Z"
        fill="#17171D"
      />
      <path
        id="Vector_53"
        d="M259.872 182.987C259.872 182.987 250.494 194.658 251.784 207.875C253.073 221.093 278.145 249.468 278.924 253.745C279.7 258.021 278.599 272.626 278.599 272.626L288.835 247.947L267.263 218.954L259.872 182.987Z"
        fill="#17171D"
      />
      <path
        id="Vector_54"
        d="M259.023 181.809C246.079 206.079 270.628 237.092 286.524 252.162C302.42 267.231 320.53 245.13 319.063 238.844C317.594 232.558 266.866 167.101 259.023 181.809Z"
        fill="#3F4261"
      />
      <g id="Group_7">
        <path
          id="Vector_55"
          d="M209.158 265.759C209.063 265.71 208.962 265.682 208.869 265.626C207.486 264.81 208.899 262.165 210.285 262.984C210.38 263.04 210.49 263.054 210.588 263.103C210.425 262.277 211.04 261.036 212.622 261.37C213.076 261.466 219.534 262.905 224.891 260.964C223.669 260.53 248.71 263.898 249.811 264.451C255.588 267.362 248.908 274.839 247.803 273.843C244.85 271.177 232.655 271.987 232.597 271.959C225.619 272.859 218.846 273.612 211.938 272.068C210.544 271.756 210.688 269.482 211.861 269.3C211.873 269.288 211.88 269.274 211.892 269.263C211.868 269.26 211.847 269.251 211.829 269.246C211.414 269.19 209.553 268.603 209.018 268.337C207.985 267.837 208.4 266.196 209.158 265.759Z"
          fill="#EA3E72"
        />
        <path
          id="Vector_56"
          d="M220.173 264.77C215.166 264.77 210.565 263.401 210.504 263.385C210.35 263.336 210.261 263.175 210.308 263.021C210.357 262.87 210.523 262.788 210.672 262.825C210.749 262.849 218.361 265.109 224.553 263.756C224.711 263.723 224.866 263.821 224.898 263.98C224.931 264.138 224.833 264.292 224.674 264.325C223.217 264.645 221.675 264.77 220.173 264.77Z"
          fill="#2A2B3C"
        />
      </g>
      <g id="Group_8">
        <g id="Group_9">
          <path
            id="Vector_57"
            d="M140.658 267.422L216.032 269.895L216.14 266.594L140.766 264.121L140.658 267.422Z"
            fill="#AABFCE"
          />
          <path
            id="Vector_58"
            d="M216.192 269.836L250.429 265.696L250.536 262.396L216.302 266.536L216.192 269.836Z"
            fill="#BED0E2"
          />
          <path
            id="Vector_59"
            d="M250.536 262.396L165.094 257.081L140.93 264.061L216.302 266.536L250.536 262.396Z"
            fill="#DCE8EF"
          />
        </g>
        <g id="Group_10">
          <path
            id="Vector_60"
            d="M143.055 264.131L217.979 265.794L209.758 219.966L135.759 217.496L133.164 219.182L143.055 264.131Z"
            fill="#DCE8EF"
          />
          <path
            id="Vector_61"
            d="M141.228 264.071L216.302 266.536L208.577 222.448L133.164 219.182L141.228 264.071Z"
            fill="#BED0E2"
          />
        </g>
      </g>
      <path
        id="Vector_62"
        d="M236.797 260.248C240.825 248.311 289.857 234.21 302.029 234.429C314.203 234.648 317.521 260.113 314.345 262.66C311.169 265.207 254.685 298.928 242.66 283.324C242.66 283.324 235.549 263.947 236.797 260.248Z"
        fill="#3F4261"
      />
      <path
        id="Vector_63"
        d="M270.684 183.066C270.684 183.066 315.672 220.713 323.014 242.86C330.355 265.008 279.493 277.811 276.062 282.114C276.062 282.114 317.183 252.257 312.129 241.179C307.075 230.1 270.684 183.066 270.684 183.066Z"
        fill="#343751"
      />
    </g>
    <g id="flour">
      <g id="Group_11">
        <path
          id="Vector_64"
          d="M47.7634 427.822C47.8217 433.261 53.7057 435.414 57.7637 433.254C61.0848 431.491 63.1442 427.834 65.3901 424.848C68.6924 420.461 72.4148 416.457 76.4122 412.797C83.4181 406.383 91.2074 401.028 99.2325 396.182C106.07 392.051 113.858 388.832 119.835 383.305C124.231 379.242 127.133 373.623 126.414 367.172C125.761 361.299 121.762 356.7 116.125 356.334C108.669 355.846 101.576 361.663 95.6758 365.621C88.3178 370.561 81.1487 375.865 74.6092 381.985C61.9291 393.852 47.7564 427.223 47.7634 427.822Z"
          fill="#3F4261"
        />
        <path
          id="Vector_65"
          d="M55.497 419.33C69.2966 396.147 89.7639 378.302 113.828 368.529C114.872 368.102 115.682 369.8 114.628 370.23C90.8228 379.899 70.6213 397.464 56.9686 420.405C56.3645 421.42 54.8906 420.347 55.497 419.33Z"
          fill="#2A2B3C"
        />
        <path
          id="Vector_66"
          d="M25.9712 291.273C27.4381 318.034 33.8774 344.077 38.6864 370.288C41.2681 384.359 43.4068 398.561 44.0155 412.902C44.2674 418.889 45.8695 433.982 50.6016 433.049C60.8702 431.027 63.8902 373.026 65.7093 342.265C66.5442 328.159 67.0062 313.885 66.4185 299.756C65.9613 288.773 64.0537 277.302 56.8915 268.871C51.3806 262.38 41.8932 257.813 34.2995 263.096C25.5608 269.176 25.4301 281.412 25.9712 291.273Z"
          fill="#4093F6"
        />
        <path
          id="Vector_67"
          d="M42.9894 276.878C42.8122 275.693 44.5146 275.182 44.6919 276.376C51.6208 322.93 53.918 370.132 51.5088 417.196C51.4482 418.4 49.6782 418.409 49.7412 417.196C52.1433 370.307 49.8927 323.261 42.9894 276.878Z"
          fill="#2483E2"
        />
        <path
          id="Vector_68"
          d="M0.692757 338.148C0.828024 346.484 3.53792 354.843 6.75868 362.356C14.0141 379.277 25.4652 393.667 33.1917 410.32C35.4656 415.221 37.2638 420.254 38.7051 425.492C39.4234 428.107 40.1277 431.274 42.5439 432.725C44.4772 433.882 49.6968 432.004 49.6922 430.903C49.6362 405.22 49.5101 378.731 40.4798 354.486C37.1588 345.574 32.7022 337.117 26.8647 329.782C22.5175 324.32 15.5698 317.934 8.35637 321.211C2.33931 323.947 0.592473 331.849 0.692757 338.148Z"
          fill="#92CEFF"
        />
        <path
          id="Vector_69"
          d="M16.9296 346.416C30.9227 371.494 45.268 397.987 45.8907 427.936C45.9164 429.149 44.1461 429.149 44.1205 427.936C43.5048 398.332 29.2295 372.147 15.4042 347.366C14.8188 346.323 16.3512 345.376 16.9296 346.416Z"
          fill="#4093F6"
        />
        <path
          id="Vector_70"
          d="M86.4638 321.213C80.3371 317.936 74.439 324.322 70.7471 329.784C65.7889 337.12 62.0037 345.577 59.1841 354.489C51.5158 378.733 51.4085 405.222 51.3619 430.906C51.3572 432.009 55.7908 433.884 57.4326 432.727C59.485 431.276 60.0842 428.111 60.6929 425.495C61.915 420.256 63.4451 415.223 65.3738 410.323C71.9343 393.667 81.6596 379.277 87.8212 362.358C90.5569 354.846 92.8587 346.486 92.973 338.151C93.0546 331.849 91.5713 323.947 86.4638 321.213Z"
          fill="#92CEFF"
        />
        <path
          id="Vector_71"
          d="M79.1801 346.416C67.2976 371.494 55.1167 397.987 54.5873 427.936C54.5663 429.149 56.0683 429.149 56.0916 427.936C56.614 398.332 68.7366 372.147 80.4792 347.366C80.9712 346.323 79.6745 345.376 79.1801 346.416Z"
          fill="#4093F6"
        />
      </g>
      <path
        id="Vector_72"
        d="M65.9987 495.029H35.0786L26.1905 424.165H74.8822L65.9987 495.029Z"
        fill="#BED0E2"
      />
    </g>
    <g id="JS" class="js js_rotate">
      <path
        id="Vector_73"
        d="M75.6796 183.103C74.7117 183.103 73.793 182.653 73.1843 181.828L60.8702 165.247H19.4225C12.4073 165.247 6.7005 159.54 6.7005 152.524V107.092C6.7005 100.077 12.4073 94.3694 19.4225 94.3694H92.3338C99.349 94.3694 105.056 100.077 105.056 107.092V152.524C105.056 159.54 99.349 165.247 92.3338 165.247H78.8306L78.8468 179.955C78.8515 181.333 78.0072 182.506 76.6965 182.938C76.356 183.047 76.0154 183.103 75.6796 183.103ZM19.4202 95.9974C13.3052 95.9974 8.32837 100.975 8.32837 107.09V152.522C8.32837 158.637 13.3052 163.614 19.4202 163.614H61.6887L74.495 180.855C74.9778 181.501 75.6842 181.555 76.1787 181.389C76.6801 181.224 77.2118 180.759 77.2118 179.957L77.191 163.617H92.3292C98.4443 163.617 103.421 158.64 103.421 152.524V107.092C103.421 100.977 98.4443 95.9998 92.3292 95.9998H19.4202V95.9974Z"
        fill="#BED0E2"
      />
      <g id="Group_12">
        <path
          id="Vector_74"
          d="M38.6353 112.825H45.8884V135.647C45.8884 138.63 45.6271 140.928 45.1001 142.53C44.3957 144.629 43.1176 146.315 41.2636 147.586C39.4118 148.858 36.9677 149.49 33.9359 149.49C30.3793 149.49 27.6413 148.496 25.7242 146.502C23.8072 144.51 22.8393 141.592 22.8229 137.737L29.6817 136.949C29.7634 139.017 30.0666 140.475 30.5913 141.326C31.3796 142.621 32.5784 143.267 34.183 143.267C35.8062 143.267 36.9535 142.807 37.6252 141.877C38.2992 140.953 38.6353 139.029 38.6353 136.114V112.825V112.825Z"
          fill="#ABAFF1"
        />
        <path
          id="Vector_75"
          d="M51.7934 137.147L58.874 136.459C59.3008 138.838 60.1659 140.583 61.4672 141.697C62.7686 142.812 64.5296 143.37 66.7428 143.37C69.0867 143.37 70.8522 142.873 72.0392 141.879C73.2287 140.89 73.8257 139.729 73.8257 138.404C73.8257 137.548 73.5761 136.823 73.0747 136.226C72.5732 135.624 71.7009 135.106 70.4555 134.663C69.6042 134.367 67.6617 133.842 64.6299 133.091C60.7258 132.121 57.9875 130.931 56.4156 129.525C54.2047 127.538 53.097 125.119 53.097 122.269C53.097 120.433 53.6172 118.717 54.6597 117.117C55.6975 115.517 57.1993 114.302 59.1584 113.469C61.1174 112.632 63.4822 112.212 66.2529 112.212C70.775 112.212 74.1823 113.205 76.4702 115.19C78.7557 117.173 79.9569 119.818 80.0735 123.13L72.7948 123.449C72.4823 121.6 71.8153 120.265 70.7914 119.454C69.7676 118.642 68.2282 118.239 66.1806 118.239C64.0653 118.239 62.4095 118.672 61.2107 119.542C60.4411 120.098 60.0563 120.846 60.0563 121.779C60.0563 122.63 60.4177 123.365 61.1384 123.969C62.0573 124.739 64.287 125.541 67.8272 126.379C71.3698 127.211 73.9887 128.079 75.6819 128.97C77.382 129.863 78.707 131.088 79.6678 132.636C80.624 134.185 81.1044 136.097 81.1044 138.376C81.1044 140.445 80.5305 142.376 79.3854 144.179C78.238 145.982 76.6147 147.323 74.5158 148.202C72.4168 149.077 69.8026 149.518 66.6728 149.518C62.1134 149.518 58.6149 148.461 56.1731 146.357C53.7243 144.254 52.2668 141.182 51.7934 137.147Z"
          fill="#ABAFF1"
        />
      </g>
    </g>
    <g id="magnifier" class="magnifier">
      <g id="Group_13">
        <path
          id="Vector_76"
          d="M514.445 234.448C512.384 234.448 510.441 233.66 508.957 232.216C507.428 230.724 506.581 228.727 506.579 226.588C506.574 224.454 507.411 222.455 508.936 220.958L545.72 184.583C546.081 184.226 546.669 184.226 547.033 184.592C547.392 184.956 547.387 185.541 547.024 185.905L510.238 222.283C509.072 223.426 508.433 224.956 508.435 226.588C508.437 228.221 509.084 229.749 510.252 230.889C511.423 232.027 512.959 232.676 514.597 232.594C516.229 232.555 517.741 231.873 518.853 230.679L554.237 192.93C554.585 192.559 555.172 192.539 555.55 192.888C555.923 193.238 555.942 193.824 555.592 194.201L520.21 231.948C518.757 233.508 516.78 234.399 514.643 234.448C514.576 234.448 514.51 234.448 514.445 234.448Z"
          fill="#ADB0E1"
        />
      </g>
      <path
        id="Vector_77"
        d="M574.553 192.49C568.89 192.49 563.398 190.691 558.761 187.265C552.684 182.729 548.801 175.837 548.106 168.352C547.488 161.78 549.302 155.258 553.211 149.987C557.446 144.273 563.657 140.546 570.695 139.497C577.743 138.449 584.756 140.203 590.465 144.439C595.762 148.357 599.402 154.067 600.718 160.523C602.231 167.932 600.517 175.648 596.014 181.691C591.788 187.414 585.584 191.146 578.541 192.196C577.209 192.392 575.877 192.49 574.553 192.49ZM574.676 141.057C573.447 141.057 572.209 141.148 570.97 141.332C564.419 142.307 558.643 145.775 554.699 151.095C551.061 155.998 549.377 162.064 549.948 168.18C550.597 175.142 554.211 181.556 559.867 185.777C565.184 189.71 571.731 191.337 578.268 190.36C584.821 189.383 590.591 185.915 594.521 180.59L594.526 180.588C598.717 174.967 600.31 167.79 598.901 160.896C597.679 154.892 594.288 149.577 589.36 145.931C585.055 142.731 579.947 141.057 574.676 141.057Z"
        fill="#ADB0E1"
      />
    </g>
    <g id="bookshelf">
      <path
        id="Vector_78"
        d="M637.327 90.75H391.306C384.649 90.75 379.235 85.3369 379.235 78.6823V12.0677C379.235 5.41301 384.649 0 391.306 0H637.329C643.985 0 649.4 5.41301 649.4 12.0677V78.6823C649.398 85.3369 643.983 90.75 637.327 90.75ZM391.306 3.02329C386.317 3.02329 382.259 7.07986 382.259 12.0677V78.6823C382.259 83.6701 386.317 87.7266 391.306 87.7266H637.329C642.318 87.7266 646.376 83.6701 646.376 78.6823V12.0677C646.376 7.07986 642.318 3.02329 637.329 3.02329H391.306Z"
        fill="#EDF1F4"
      />
      <g id="Group_14">
        <g id="Group_15">
          <path
            id="Vector_79"
            d="M514.067 88.2178H516.706C517.746 88.2178 518.588 87.3759 518.588 86.3341L516.77 80.3364H510.366L512.182 86.3341C512.184 87.3759 513.027 88.2178 514.067 88.2178Z"
            fill="#BED0E2"
          />
          <path
            id="Vector_80"
            d="M515.209 88.2178H517.848C518.888 88.2178 519.73 87.3759 519.73 86.3341L517.914 80.3364H511.51L513.326 86.3341C513.326 87.3759 514.169 88.2178 515.209 88.2178Z"
            fill="#D3E0EA"
          />
        </g>
        <path
          id="Vector_81"
          d="M492.801 88.2178H495.44C496.48 88.2178 497.322 87.3759 497.322 86.3341L499.139 80.3364H492.735L490.919 86.3341C490.919 87.3759 491.761 88.2178 492.801 88.2178Z"
          fill="#BED0E2"
        />
        <path
          id="Vector_82"
          d="M504.226 83.3193C519.968 83.3193 532.729 70.5622 532.729 54.8255C532.729 39.0888 519.968 26.3316 504.226 26.3316C488.484 26.3316 475.723 39.0888 475.723 54.8255C475.723 70.5622 488.484 83.3193 504.226 83.3193Z"
          fill="#BED0E2"
        />
        <g id="Group_16">
          <path
            id="Vector_83"
            d="M514.852 32.7752L526.344 38.6549L531.184 29.2011L519.692 23.3214L514.852 32.7752Z"
            fill="#BED0E2"
          />
          <g id="Group_17">
            <path
              id="Vector_84"
              d="M514.937 25.2154L532.802 34.3555L532.844 34.2747C535.371 29.3443 533.419 23.2977 528.484 20.774C523.55 18.2482 517.504 20.2 514.979 25.1325L514.937 25.2154Z"
              fill="#D3E0EA"
            />
          </g>
        </g>
        <g id="Group_18">
          <path
            id="Vector_85"
            d="M487.491 39.3058L497.821 31.5664L491.45 23.0684L481.12 30.8078L487.491 39.3058Z"
            fill="#BED0E2"
          />
          <g id="Group_19">
            <path
              id="Vector_86"
              d="M480.687 35.9904L496.746 23.9568L496.691 23.8845C493.367 19.4495 487.078 18.5501 482.643 21.8732C478.209 25.1963 477.307 31.4853 480.631 35.916L480.687 35.9904Z"
              fill="#D3E0EA"
            />
          </g>
        </g>
        <path
          id="Vector_87"
          d="M506.68 83.3958C522.422 83.3958 535.183 70.6387 535.183 54.902C535.183 39.1653 522.422 26.4082 506.68 26.4082C490.938 26.4082 478.177 39.1653 478.177 54.902C478.177 70.6387 490.938 83.3958 506.68 83.3958Z"
          fill="#D3E0EA"
        />
        <path
          id="Vector_88"
          d="M493.943 88.2178H496.582C497.622 88.2178 498.465 87.3759 498.465 86.3341L500.281 80.3364H493.877L492.059 86.3341C492.061 87.3759 492.903 88.2178 493.943 88.2178Z"
          fill="#D3E0EA"
        />
        <g id="Group_20">
          <path
            id="Vector_89"
            d="M506.363 79.6497C520.078 79.6497 531.196 68.5355 531.196 54.8255C531.196 41.1154 520.078 30.0013 506.363 30.0013C492.649 30.0013 481.531 41.1154 481.531 54.8255C481.531 68.5355 492.649 79.6497 506.363 79.6497Z"
            fill="white"
          />
          <g id="Group_21">
            <path
              id="Vector_90"
              d="M506.876 31.8381H505.853V36.1009H506.876V31.8381Z"
              fill="#BED0E2"
            />
            <path
              id="Vector_91"
              d="M515.984 37.2954L516.87 37.8063L518.338 35.263L517.452 34.7521L515.984 37.2954Z"
              fill="#BED0E2"
            />
            <path
              id="Vector_92"
              d="M523.449 44.3095L523.96 45.1933L526.505 43.7238L525.995 42.8401L523.449 44.3095Z"
              fill="#BED0E2"
            />
            <path
              id="Vector_93"
              d="M529.36 54.3152H525.098V55.3378H529.36V54.3152Z"
              fill="#BED0E2"
            />
            <path
              id="Vector_94"
              d="M524.049 64.4026L523.538 65.2864L526.084 66.7558L526.594 65.872L524.049 64.4026Z"
              fill="#BED0E2"
            />
            <path
              id="Vector_95"
              d="M516.746 71.9647L515.86 72.4757L517.329 75.0208L518.215 74.5098L516.746 71.9647Z"
              fill="#BED0E2"
            />
            <path
              id="Vector_96"
              d="M506.876 73.4648H505.853V77.8168H506.876V73.4648Z"
              fill="#BED0E2"
            />
            <path
              id="Vector_97"
              d="M496.747 72.3571L495.86 71.8462L494.393 74.3895L495.279 74.9004L496.747 72.3571Z"
              fill="#BED0E2"
            />
            <path
              id="Vector_98"
              d="M489.225 65.1914L488.713 64.3064L486.169 65.7779L486.681 66.6629L489.225 65.1914Z"
              fill="#BED0E2"
            />
            <path
              id="Vector_99"
              d="M487.72 54.3152H483.366V55.3378H487.72V54.3152Z"
              fill="#BED0E2"
            />
            <path
              id="Vector_100"
              d="M488.833 45.2043L489.345 44.3193L486.799 42.8467L486.287 43.7318L488.833 45.2043Z"
              fill="#BED0E2"
            />
            <path
              id="Vector_101"
              d="M495.981 37.6894L496.867 37.1785L495.399 34.6334L494.512 35.1443L495.981 37.6894Z"
              fill="#BED0E2"
            />
          </g>
          <path
            id="Vector_102"
            d="M520.95 41.6526L519.654 40.3567L505.052 54.9543L506.348 56.2502L520.95 41.6526Z"
            fill="#4C5072"
          />
          <path
            id="Vector_103"
            d="M518.314 65.9115L519.015 64.9724L507.79 56.6069L507.09 57.5461L518.314 65.9115Z"
            fill="#4C5072"
          />
          <g id="Group_22">
            <path
              id="Vector_104"
              d="M506.363 58.5418C508.229 58.5418 509.741 57.0303 509.741 55.1656C509.741 53.301 508.229 51.7894 506.363 51.7894C504.498 51.7894 502.986 53.301 502.986 55.1656C502.986 57.0303 504.498 58.5418 506.363 58.5418Z"
              fill="#4093F5"
            />
            <path
              id="Vector_105"
              d="M506.363 56.9556C507.352 56.9556 508.154 56.1542 508.154 55.1655C508.154 54.1768 507.352 53.3753 506.363 53.3753C505.374 53.3753 504.573 54.1768 504.573 55.1655C504.573 56.1542 505.374 56.9556 506.363 56.9556Z"
              fill="white"
            />
          </g>
        </g>
      </g>
      <g id="Group_23">
        <path
          id="Vector_106"
          d="M603.362 26.2274H587.126V88.2837H603.362V26.2274Z"
          fill="#92CEFF"
        />
        <path
          id="Vector_107"
          d="M606.907 26.2274H603.362V88.2837H606.907V26.2274Z"
          fill="#EDF1F4"
        />
        <path
          id="Vector_108"
          d="M584.415 29.4515L568.874 24.7528L550.903 84.1531L566.444 88.8518L584.415 29.4515Z"
          fill="#92CEFF"
        />
        <path
          id="Vector_109"
          d="M566.477 88.7818L569.87 89.8075L587.835 30.4073L584.442 29.3816L566.477 88.7818Z"
          fill="#EDF1F4"
        />
        <path
          id="Vector_110"
          d="M623.904 43.7676H609.123V88.2837H623.904V43.7676Z"
          fill="#FFD357"
        />
        <path
          id="Vector_111"
          d="M627.133 43.7676H623.904V88.2837H627.133V43.7676Z"
          fill="#EDF1F4"
        />
      </g>
      <g id="Group_24">
        <path
          id="Vector_112"
          d="M472.609 71.3919H399.018V88.1731H472.609V71.3919Z"
          fill="#4093F5"
        />
        <path
          id="Vector_113"
          d="M464.04 77.2343H441.862V82.3285H464.04V77.2343Z"
          fill="#4C5072"
        />
      </g>
      <g id="Group_25">
        <path
          id="Vector_114"
          d="M462.024 54.5215H388.433V71.3027H462.024V54.5215Z"
          fill="#E93E72"
        />
        <path
          id="Vector_115"
          d="M453.455 60.3661H431.277V65.4602H453.455V60.3661Z"
          fill="#4C5072"
        />
      </g>
    </g>
  </g>
</svg>
